SplineFontDB: 3.0
FontName: CodeType-Bold
FullName: Codetype Bold
FamilyName: Codetype
Weight: Bold
Copyright: Copyright 2006 The Inconsolata Project Authors
Version: 2.000
ItalicAngle: 0
UnderlinePosition: -194
UnderlineWidth: 144
Ascent: 1638
Descent: 410
sfntRevision: 0x00020000
LayerCount: 2
Layer: 0 1 "+gMyXYgAA"  1
Layer: 1 1 "+Uk2XYgAA"  0
XUID: [1021 608 1509974417 15661287]
FSType: 0
OS2Version: 4
OS2_WeightWidthSlopeOnly: 0
OS2_UseTypoMetrics: 1
CreationTime: 1472710287
ModificationTime: 1486620245
PfmFamily: 81
TTFWeight: 700
TTFWidth: 5
LineGap: 350
VLineGap: 0
Panose: 0 0 8 9 0 0 0 0 0 0
OS2TypoAscent: 1521
OS2TypoAOffset: 0
OS2TypoDescent: -527
OS2TypoDOffset: 0
OS2TypoLinegap: 250
OS2WinAscent: 1884
OS2WinAOffset: 0
OS2WinDescent: 514
OS2WinDOffset: 0
HheadAscent: 1521
HheadAOffset: 0
HheadDescent: -527
HheadDOffset: 0
OS2SubXSize: 1331
OS2SubYSize: 1229
OS2SubXOff: 0
OS2SubYOff: 154
OS2SupXSize: 1331
OS2SupYSize: 1229
OS2SupXOff: 0
OS2SupYOff: 717
OS2StrikeYSize: 102
OS2StrikeYPos: 561
OS2Vendor: 'CYRE'
OS2CodePages: 20000193.00000000
OS2UnicodeRanges: 20000007.00000001.00000000.00000000
Lookup: 1 0 0 "'aalt' +MFkweTBmMG51cE9TW1cweDBuMKIwrzC7MLkA in +MOkwxjDzZYdbVwAA lookup 0"  {"'aalt' +MFkweTBmMG51cE9TW1cweDBuMKIwrzC7MLkA in +MOkwxjDzZYdbVwAA lookup 0 subtable"  } ['aalt' ('DFLT' <'dflt' > 'latn' <'AZE ' 'CAT ' 'CRT ' 'KAZ ' 'MOL ' 'ROM ' 'TAT ' 'TRK ' 'dflt' > ) ]
Lookup: 3 0 0 "'aalt' +MFkweTBmMG51cE9TW1cweDBuMKIwrzC7MLkA in +MOkwxjDzZYdbVwAA lookup 1"  {"'aalt' +MFkweTBmMG51cE9TW1cweDBuMKIwrzC7MLkA in +MOkwxjDzZYdbVwAA lookup 1 subtable"  } ['aalt' ('DFLT' <'dflt' > 'latn' <'AZE ' 'CAT ' 'CRT ' 'KAZ ' 'MOL ' 'ROM ' 'TAT ' 'TRK ' 'dflt' > ) ]

StartChar: A
Encoding: 65 65 4
Width: 1024
GlyphClass: 2
Flags: W
AnchorPoint: "Anchor-8" 0 0 basechar 0
AnchorPoint: "Anchor-7" 0 0 basechar 0
AnchorPoint: "Anchor-6" 514 1276 basechar 0
AnchorPoint: "Anchor-5" 872 0 basechar 0
AnchorPoint: "Anchor-4" 512 0 basechar 0
LayerCount: 2
Fore
SplineSet
766 0 m 1,0,-1
 675 330 l 1,1,-1
 349 330 l 1,2,-1
 256 0 l 1,3,-1
 20 0 l 1,4,-1
 446 1276 l 1,5,-1
 580 1276 l 1,6,-1
 1006 0 l 1,7,-1
 766 0 l 1,0,-1
394 489 m 1,8,-1
 631 489 l 1,9,-1
 514 913 l 1,10,-1
 394 489 l 1,8,-1
EndSplineSet
Substitution2: "Single Substitution lookup 28 subtable" ordfeminine
Substitution2: "'aalt' +MFkweTBmMG51cE9TW1cweDBuMKIwrzC7MLkA in +MOkwxjDzZYdbVwAA lookup 0 subtable" ordfeminine
EndChar

StartChar: Aogonek
Encoding: 260 260 25
Width: 1024
GlyphClass: 2
Flags: W
AnchorPoint: "Anchor-8" 0 0 basechar 0
AnchorPoint: "Anchor-7" 0 0 basechar 0
AnchorPoint: "Anchor-6" 514 1276 basechar 0
AnchorPoint: "Anchor-5" 872 0 basechar 0
AnchorPoint: "Anchor-4" 512 0 basechar 0
LayerCount: 2
Fore
SplineSet
923.5 -264 m 128,-1,1
 958 -292 958 -292 1026 -307 c 1,2,-1
 934 -487 l 1,3,4
 800 -453 800 -453 731.5 -392.5 c 128,-1,5
 663 -332 663 -332 663 -258 c 0,6,7
 663 -195 663 -195 711.5 -128 c 128,-1,8
 760 -61 760 -61 852 0 c 1,9,-1
 766 0 l 1,10,-1
 675 330 l 1,11,-1
 349 330 l 1,12,-1
 256 0 l 1,13,-1
 20 0 l 1,14,-1
 446 1276 l 1,15,-1
 580 1276 l 1,16,-1
 1000 19 l 1,17,-1
 1028 0 l 1,18,19
 889 -117 889 -117 889 -197 c 0,20,0
 889 -236 889 -236 923.5 -264 c 128,-1,1
394 489 m 1,21,-1
 631 489 l 1,22,-1
 514 913 l 1,23,-1
 394 489 l 1,21,-1
EndSplineSet
EndChar

StartChar: Aring
Encoding: 197 197 26
Width: 1024
GlyphClass: 2
Flags: W
AnchorPoint: "Anchor-8" 0 0 basechar 0
AnchorPoint: "Anchor-7" 0 0 basechar 0
AnchorPoint: "Anchor-6" 514 1669 basechar 0
AnchorPoint: "Anchor-5" 872 0 basechar 0
AnchorPoint: "Anchor-4" 512 0 basechar 0
LayerCount: 2
Fore
SplineSet
675 330 m 1,0,-1
 349 330 l 1,1,-1
 256 0 l 1,2,-1
 20 0 l 1,3,-1
 445 1273 l 1,4,5
 382 1294 382 1294 341.5 1347 c 128,-1,6
 301 1400 301 1400 301 1466 c 0,7,8
 301 1521 301 1521 329.5 1567.5 c 128,-1,9
 358 1614 358 1614 406.5 1641.5 c 128,-1,10
 455 1669 455 1669 512 1669 c 0,11,12
 570 1669 570 1669 619 1641.5 c 128,-1,13
 668 1614 668 1614 697.5 1567.5 c 128,-1,14
 727 1521 727 1521 727 1466 c 0,15,16
 727 1400 727 1400 686 1347 c 128,-1,17
 645 1294 645 1294 581 1273 c 1,18,-1
 1006 0 l 1,19,-1
 766 0 l 1,20,-1
 675 330 l 1,0,-1
467.5 1523 m 128,-1,22
 449 1500 449 1500 449 1468 c 256,23,24
 449 1436 449 1436 467.5 1414.5 c 128,-1,25
 486 1393 486 1393 514 1393 c 256,26,27
 542 1393 542 1393 561 1414.5 c 128,-1,28
 580 1436 580 1436 580 1468 c 256,29,30
 580 1500 580 1500 561 1523 c 128,-1,31
 542 1546 542 1546 514 1546 c 256,32,21
 486 1546 486 1546 467.5 1523 c 128,-1,22
394 489 m 1,33,-1
 631 489 l 1,34,-1
 514 913 l 1,35,-1
 394 489 l 1,33,-1
EndSplineSet
EndChar

StartChar: Aringacute
Encoding: 506 506 27
Width: 1024
GlyphClass: 2
Flags: W
AnchorPoint: "Anchor-8" 0 0 basechar 0
AnchorPoint: "Anchor-7" 0 0 basechar 0
AnchorPoint: "Anchor-6" 514 1941 basechar 0
AnchorPoint: "Anchor-5" 872 0 basechar 0
AnchorPoint: "Anchor-4" 512 0 basechar 0
LayerCount: 2
Fore
SplineSet
725 1861 m 1,0,-1
 356 1732 l 1,1,-1
 315 1806 l 1,2,-1
 629 2038 l 1,3,-1
 725 1861 l 1,0,-1
675 330 m 1,4,-1
 349 330 l 1,5,-1
 256 0 l 1,6,-1
 20 0 l 1,7,-1
 445 1273 l 1,8,9
 382 1294 382 1294 341.5 1347 c 128,-1,10
 301 1400 301 1400 301 1466 c 0,11,12
 301 1521 301 1521 329.5 1567.5 c 128,-1,13
 358 1614 358 1614 406.5 1641.5 c 128,-1,14
 455 1669 455 1669 512 1669 c 0,15,16
 570 1669 570 1669 619 1641.5 c 128,-1,17
 668 1614 668 1614 697.5 1567.5 c 128,-1,18
 727 1521 727 1521 727 1466 c 0,19,20
 727 1400 727 1400 686 1347 c 128,-1,21
 645 1294 645 1294 581 1273 c 1,22,-1
 1006 0 l 1,23,-1
 766 0 l 1,24,-1
 675 330 l 1,4,-1
467.5 1523 m 128,-1,26
 449 1500 449 1500 449 1468 c 256,27,28
 449 1436 449 1436 467.5 1414.5 c 128,-1,29
 486 1393 486 1393 514 1393 c 256,30,31
 542 1393 542 1393 561 1414.5 c 128,-1,32
 580 1436 580 1436 580 1468 c 256,33,34
 580 1500 580 1500 561 1523 c 128,-1,35
 542 1546 542 1546 514 1546 c 256,36,25
 486 1546 486 1546 467.5 1523 c 128,-1,26
394 489 m 1,37,-1
 631 489 l 1,38,-1
 514 913 l 1,39,-1
 394 489 l 1,37,-1
EndSplineSet
EndChar

StartChar: AE
Encoding: 198 198 29
Width: 1024
GlyphClass: 2
Flags: W
LayerCount: 2
Fore
SplineSet
0 0 m 1,0,-1
 393 1276 l 1,1,-1
 1020 1276 l 1,2,-1
 1020 1081 l 1,3,-1
 698 1081 l 1,4,-1
 698 764 l 1,5,-1
 969 764 l 1,6,-1
 969 563 l 1,7,-1
 698 563 l 1,8,-1
 698 197 l 1,9,-1
 1016 197 l 1,10,-1
 1016 0 l 1,11,-1
 485 0 l 1,12,-1
 485 326 l 1,13,-1
 311 326 l 1,14,-1
 221 0 l 1,15,-1
 0 0 l 1,0,-1
362 514 m 1,16,-1
 487 514 l 1,17,-1
 487 967 l 1,18,-1
 483 967 l 1,19,-1
 362 514 l 1,16,-1
EndSplineSet
EndChar

StartChar: B
Encoding: 66 66 31
Width: 1024
GlyphClass: 2
Flags: W
AnchorPoint: "Anchor-8" 0 0 basechar 0
AnchorPoint: "Anchor-7" 0 0 basechar 0
AnchorPoint: "Anchor-6" 512 1276 basechar 0
AnchorPoint: "Anchor-5" 0 0 basechar 0
AnchorPoint: "Anchor-4" 512 0 basechar 0
LayerCount: 2
Fore
SplineSet
82 1276 m 1,0,-1
 469 1276 l 2,1,2
 693 1276 693 1276 804 1187.5 c 128,-1,3
 915 1099 915 1099 915 946 c 0,4,5
 915 869 915 869 873 796 c 128,-1,6
 831 723 831 723 760 684 c 1,7,8
 819 656 819 656 865.5 606.5 c 128,-1,9
 912 557 912 557 938.5 496.5 c 128,-1,10
 965 436 965 436 965 375 c 0,11,12
 965 200 965 200 840.5 100 c 128,-1,13
 716 0 716 0 467 0 c 2,14,-1
 82 0 l 1,15,-1
 82 1276 l 1,0,-1
451 778 m 2,16,17
 574 778 574 778 629 820 c 128,-1,18
 684 862 684 862 684 934 c 0,19,20
 684 975 684 975 660.5 1009.5 c 128,-1,21
 637 1044 637 1044 589 1064.5 c 128,-1,22
 541 1085 541 1085 471 1085 c 2,23,-1
 311 1085 l 1,24,-1
 311 778 l 1,25,-1
 451 778 l 2,16,17
489 195 m 2,26,27
 604 195 604 195 664.5 237.5 c 128,-1,28
 725 280 725 280 725 381 c 0,29,30
 725 477 725 477 660.5 534.5 c 128,-1,31
 596 592 596 592 457 592 c 2,32,-1
 311 592 l 1,33,-1
 311 195 l 1,34,-1
 489 195 l 2,26,27
EndSplineSet
EndChar

StartChar: C
Encoding: 67 67 32
Width: 1024
GlyphClass: 2
Flags: W
AnchorPoint: "Anchor-8" 0 0 basechar 0
AnchorPoint: "Anchor-7" 0 0 basechar 0
AnchorPoint: "Anchor-6" 553 1276 basechar 0
AnchorPoint: "Anchor-5" 0 0 basechar 0
AnchorPoint: "Anchor-4" 553 0 basechar 0
LayerCount: 2
Fore
SplineSet
809 326 m 1,1,-1
 983 213 l 1,2,3
 911 90 911 90 805 26.5 c 128,-1,4
 699 -37 699 -37 563 -37 c 0,5,6
 419 -37 419 -37 305 37 c 128,-1,7
 191 111 191 111 125 261.5 c 128,-1,8
 59 412 59 412 59 631 c 0,9,10
 59 868 59 868 135.5 1020 c 128,-1,11
 212 1172 212 1172 330.5 1240.5 c 128,-1,12
 449 1309 449 1309 582 1309 c 0,13,14
 727 1309 727 1309 833 1232 c 128,-1,15
 939 1155 939 1155 997 1018 c 1,16,-1
 831 937 l 1,17,-1
 829 936 l 1,18,-1
 829 937 l 1,19,20
 791 1042 791 1042 728 1083 c 128,-1,21
 665 1124 665 1124 588 1124 c 0,22,23
 440 1124 440 1124 368.5 996 c 128,-1,24
 297 868 297 868 297 641 c 0,25,26
 297 502 297 502 332.5 389.5 c 128,-1,27
 368 277 368 277 432.5 212 c 128,-1,28
 497 147 497 147 578 147 c 0,29,0
 708 147 708 147 809 326 c 1,1,-1
808 953 m 256,31,32
 811 953 811 953 817 944.5 c 128,-1,33
 823 936 823 936 825 934 c 1,34,-1
 815 929 l 1,35,-1
 805 950 l 1,36,30
 805 953 805 953 808 953 c 256,31,32
834 922 m 2,37,38
 834 920 834 920 831 924 c 128,-1,39
 828 928 828 928 825 934 c 1,40,-1
 829 936 l 1,41,-1
 834 922 l 2,37,38
EndSplineSet
EndChar

StartChar: Ccedilla
Encoding: 199 199 35
Width: 1024
GlyphClass: 2
Flags: W
AnchorPoint: "Anchor-8" 0 0 basechar 0
AnchorPoint: "Anchor-7" 0 0 basechar 0
AnchorPoint: "Anchor-6" 553 1276 basechar 0
AnchorPoint: "Anchor-5" 0 0 basechar 0
AnchorPoint: "Anchor-4" 553 -389 basechar 0
LayerCount: 2
Fore
SplineSet
809 326 m 1,1,-1
 983 213 l 1,2,3
 863 10 863 10 658 -29 c 1,4,-1
 653 -63 l 1,5,6
 730 -71 730 -71 771.5 -109.5 c 128,-1,7
 813 -148 813 -148 813 -209 c 0,8,9
 813 -260 813 -260 783.5 -308.5 c 128,-1,10
 754 -357 754 -357 694.5 -388.5 c 128,-1,11
 635 -420 635 -420 551 -420 c 0,12,13
 408 -420 408 -420 293 -305 c 1,14,-1
 369 -172 l 1,15,16
 427 -233 427 -233 474.5 -257 c 128,-1,17
 522 -281 522 -281 576 -281 c 0,18,19
 622 -281 622 -281 646 -266.5 c 128,-1,20
 670 -252 670 -252 670 -227 c 0,21,22
 670 -204 670 -204 648 -193 c 128,-1,23
 626 -182 626 -182 573 -182 c 2,24,-1
 473 -182 l 1,25,-1
 494 -32 l 1,26,27
 367 -15 367 -15 269 64 c 128,-1,28
 171 143 171 143 115 286.5 c 128,-1,29
 59 430 59 430 59 631 c 0,30,31
 59 868 59 868 135.5 1020 c 128,-1,32
 212 1172 212 1172 330.5 1240.5 c 128,-1,33
 449 1309 449 1309 582 1309 c 0,34,35
 727 1309 727 1309 833 1232 c 128,-1,36
 939 1155 939 1155 997 1018 c 1,37,-1
 831 937 l 1,38,-1
 829 936 l 1,39,-1
 829 937 l 1,40,41
 791 1042 791 1042 728 1083 c 128,-1,42
 665 1124 665 1124 588 1124 c 0,43,44
 440 1124 440 1124 368.5 996 c 128,-1,45
 297 868 297 868 297 641 c 0,46,47
 297 502 297 502 332.5 389.5 c 128,-1,48
 368 277 368 277 432.5 212 c 128,-1,49
 497 147 497 147 578 147 c 0,50,0
 708 147 708 147 809 326 c 1,1,-1
808 953 m 256,52,53
 811 953 811 953 817 944.5 c 128,-1,54
 823 936 823 936 825 934 c 1,55,-1
 815 929 l 1,56,-1
 805 950 l 1,57,51
 805 953 805 953 808 953 c 256,52,53
834 922 m 2,58,59
 834 920 834 920 831 924 c 128,-1,60
 828 928 828 928 825 934 c 1,61,-1
 829 936 l 1,62,-1
 834 922 l 2,58,59
EndSplineSet
EndChar

StartChar: uni1E08
Encoding: 7688 7688 36
Width: 1024
GlyphClass: 2
Flags: W
AnchorPoint: "Anchor-8" 0 0 basechar 0
AnchorPoint: "Anchor-7" 0 0 basechar 0
AnchorPoint: "Anchor-6" 553 1548 basechar 0
AnchorPoint: "Anchor-5" 0 0 basechar 0
AnchorPoint: "Anchor-4" 553 -389 basechar 0
LayerCount: 2
Fore
SplineSet
764 1468 m 1,0,-1
 395 1339 l 1,1,-1
 354 1413 l 1,2,-1
 668 1645 l 1,3,-1
 764 1468 l 1,0,-1
809 326 m 1,5,-1
 983 213 l 1,6,7
 863 10 863 10 658 -29 c 1,8,-1
 653 -63 l 1,9,10
 730 -71 730 -71 771.5 -109.5 c 128,-1,11
 813 -148 813 -148 813 -209 c 0,12,13
 813 -260 813 -260 783.5 -308.5 c 128,-1,14
 754 -357 754 -357 694.5 -388.5 c 128,-1,15
 635 -420 635 -420 551 -420 c 0,16,17
 408 -420 408 -420 293 -305 c 1,18,-1
 369 -172 l 1,19,20
 427 -233 427 -233 474.5 -257 c 128,-1,21
 522 -281 522 -281 576 -281 c 0,22,23
 622 -281 622 -281 646 -266.5 c 128,-1,24
 670 -252 670 -252 670 -227 c 0,25,26
 670 -204 670 -204 648 -193 c 128,-1,27
 626 -182 626 -182 573 -182 c 2,28,-1
 473 -182 l 1,29,-1
 494 -32 l 1,30,31
 367 -15 367 -15 269 64 c 128,-1,32
 171 143 171 143 115 286.5 c 128,-1,33
 59 430 59 430 59 631 c 0,34,35
 59 868 59 868 135.5 1020 c 128,-1,36
 212 1172 212 1172 330.5 1240.5 c 128,-1,37
 449 1309 449 1309 582 1309 c 0,38,39
 727 1309 727 1309 833 1232 c 128,-1,40
 939 1155 939 1155 997 1018 c 1,41,-1
 831 937 l 1,42,-1
 829 936 l 1,43,-1
 829 937 l 1,44,45
 791 1042 791 1042 728 1083 c 128,-1,46
 665 1124 665 1124 588 1124 c 0,47,48
 440 1124 440 1124 368.5 996 c 128,-1,49
 297 868 297 868 297 641 c 0,50,51
 297 502 297 502 332.5 389.5 c 128,-1,52
 368 277 368 277 432.5 212 c 128,-1,53
 497 147 497 147 578 147 c 0,54,4
 708 147 708 147 809 326 c 1,5,-1
808 953 m 256,56,57
 811 953 811 953 817 944.5 c 128,-1,58
 823 936 823 936 825 934 c 1,59,-1
 815 929 l 1,60,-1
 805 950 l 1,61,55
 805 953 805 953 808 953 c 256,56,57
834 922 m 2,62,63
 834 920 834 920 831 924 c 128,-1,64
 828 928 828 928 825 934 c 1,65,-1
 829 936 l 1,66,-1
 834 922 l 2,62,63
EndSplineSet
EndChar

StartChar: D
Encoding: 68 68 39
Width: 1024
GlyphClass: 2
Flags: W
AnchorPoint: "Anchor-8" 0 0 basechar 0
AnchorPoint: "Anchor-7" 512 639 basechar 0
AnchorPoint: "Anchor-6" 451 1276 basechar 0
AnchorPoint: "Anchor-5" 0 0 basechar 0
AnchorPoint: "Anchor-4" 494 0 basechar 0
LayerCount: 2
Fore
SplineSet
90 1276 m 1,0,-1
 420 1276 l 2,1,2
 583 1276 583 1276 679.5 1232.5 c 128,-1,3
 776 1189 776 1189 844 1098 c 0,4,5
 975 920 975 920 975 629 c 0,6,7
 975 327 975 327 834.5 163.5 c 128,-1,8
 694 0 694 0 395 0 c 2,9,-1
 90 0 l 1,10,-1
 90 1276 l 1,0,-1
391 180 m 2,11,12
 570 180 570 180 657.5 293 c 128,-1,13
 745 406 745 406 745 623 c 0,14,15
 745 1085 745 1085 412 1085 c 2,16,-1
 313 1085 l 1,17,-1
 313 180 l 1,18,-1
 391 180 l 2,11,12
EndSplineSet
EndChar

StartChar: Eth
Encoding: 208 208 40
Width: 1024
GlyphClass: 2
Flags: W
LayerCount: 2
Fore
SplineSet
90 580 m 1,0,-1
 10 580 l 1,1,-1
 10 768 l 1,2,-1
 90 768 l 1,3,-1
 90 1276 l 1,4,-1
 420 1276 l 2,5,6
 583 1276 583 1276 679.5 1232.5 c 128,-1,7
 776 1189 776 1189 844 1098 c 0,8,9
 975 920 975 920 975 629 c 0,10,11
 975 327 975 327 834.5 163.5 c 128,-1,12
 694 0 694 0 395 0 c 2,13,-1
 90 0 l 1,14,-1
 90 580 l 1,0,-1
391 180 m 2,15,16
 570 180 570 180 657.5 293 c 128,-1,17
 745 406 745 406 745 623 c 0,18,19
 745 1085 745 1085 412 1085 c 2,20,-1
 313 1085 l 1,21,-1
 313 768 l 1,22,-1
 506 768 l 1,23,-1
 506 580 l 1,24,-1
 313 580 l 1,25,-1
 313 180 l 1,26,-1
 391 180 l 2,15,16
EndSplineSet
EndChar

StartChar: E
Encoding: 69 69 45
Width: 1024
GlyphClass: 2
Flags: W
AnchorPoint: "Anchor-8" 0 0 basechar 0
AnchorPoint: "Anchor-7" 0 0 basechar 0
AnchorPoint: "Anchor-6" 553 1276 basechar 0
AnchorPoint: "Anchor-5" 786 2 basechar 0
AnchorPoint: "Anchor-4" 512 0 basechar 0
LayerCount: 2
Fore
SplineSet
115 0 m 1,0,-1
 115 1276 l 1,1,-1
 946 1276 l 1,2,-1
 946 1079 l 1,3,-1
 338 1079 l 1,4,-1
 338 764 l 1,5,-1
 842 764 l 1,6,-1
 842 563 l 1,7,-1
 338 563 l 1,8,-1
 338 197 l 1,9,-1
 942 197 l 1,10,-1
 942 0 l 1,11,-1
 115 0 l 1,0,-1
EndSplineSet
EndChar

StartChar: uni01B8
Encoding: 440 440 68
Width: 1024
GlyphClass: 2
Flags: W
LayerCount: 2
Fore
SplineSet
928 127 m 1,0,1
 854 42 854 42 761 1.5 c 128,-1,2
 668 -39 668 -39 547 -39 c 0,3,4
 414 -39 414 -39 312 13.5 c 128,-1,5
 210 66 210 66 154 156 c 128,-1,6
 98 246 98 246 98 354 c 0,7,8
 98 463 98 463 142 549.5 c 128,-1,9
 186 636 186 636 267 693.5 c 128,-1,10
 348 751 348 751 458 775 c 1,11,-1
 137 1106 l 1,12,-1
 137 1276 l 1,13,-1
 850 1276 l 1,14,-1
 850 1077 l 1,15,-1
 416 1077 l 1,16,-1
 686 791 l 1,17,-1
 686 606 l 1,18,19
 493 612 493 612 410.5 548 c 128,-1,20
 328 484 328 484 328 367 c 0,21,22
 328 300 328 300 359 253.5 c 128,-1,23
 390 207 390 207 443 183.5 c 128,-1,24
 496 160 496 160 561 160 c 0,25,26
 621 160 621 160 668.5 170.5 c 128,-1,27
 716 181 716 181 745 195 c 128,-1,28
 774 209 774 209 781 220 c 0,29,30
 823 290 823 290 823 296 c 0,31,32
 823 297 823 297 822 297 c 0,33,34
 820 296 820 296 816 293 c 128,-1,35
 812 290 812 290 808.5 289.5 c 128,-1,36
 805 289 805 289 804 294 c 1,37,-1
 815 314 l 1,38,-1
 831 305 l 1,39,-1
 928 127 l 1,0,1
EndSplineSet
EndChar

StartChar: F
Encoding: 70 70 69
Width: 1024
GlyphClass: 2
Flags: W
AnchorPoint: "Anchor-8" 0 0 basechar 0
AnchorPoint: "Anchor-7" 0 0 basechar 0
AnchorPoint: "Anchor-6" 512 1276 basechar 0
AnchorPoint: "Anchor-5" 0 0 basechar 0
AnchorPoint: "Anchor-4" 512 0 basechar 0
LayerCount: 2
Fore
SplineSet
139 0 m 1,0,-1
 139 1276 l 1,1,-1
 932 1276 l 1,2,-1
 932 1081 l 1,3,-1
 369 1081 l 1,4,-1
 369 782 l 1,5,-1
 823 782 l 1,6,-1
 823 590 l 1,7,-1
 369 590 l 1,8,-1
 369 0 l 1,9,-1
 139 0 l 1,0,-1
EndSplineSet
EndChar

StartChar: G
Encoding: 71 71 70
Width: 1024
GlyphClass: 2
Flags: W
AnchorPoint: "Anchor-8" 0 0 basechar 0
AnchorPoint: "Anchor-7" 0 0 basechar 0
AnchorPoint: "Anchor-6" 547 1276 basechar 0
AnchorPoint: "Anchor-5" 0 0 basechar 0
AnchorPoint: "Anchor-4" 541 0 basechar 0
LayerCount: 2
Fore
SplineSet
518 645 m 1,0,-1
 952 645 l 1,1,-1
 952 109 l 1,2,3
 861 33 861 33 764 -2 c 128,-1,4
 667 -37 667 -37 553 -37 c 0,5,6
 389 -37 389 -37 272 48 c 128,-1,7
 155 133 155 133 94 285.5 c 128,-1,8
 33 438 33 438 33 639 c 0,9,10
 33 887 33 887 118 1037 c 128,-1,11
 203 1187 203 1187 321.5 1248 c 128,-1,12
 440 1309 440 1309 553 1309 c 0,13,14
 681 1309 681 1309 787 1241.5 c 128,-1,15
 893 1174 893 1174 956 1059 c 1,16,-1
 802 910 l 1,17,-1
 801 909 l 1,18,19
 790 922 790 922 770 957 c 0,20,21
 743 1003 743 1003 718 1035 c 128,-1,22
 693 1067 693 1067 651 1090.5 c 128,-1,23
 609 1114 609 1114 549 1114 c 0,24,25
 475 1114 475 1114 412 1067 c 128,-1,26
 349 1020 349 1020 309.5 916.5 c 128,-1,27
 270 813 270 813 270 653 c 0,28,29
 270 502 270 502 306 389.5 c 128,-1,30
 342 277 342 277 406.5 217.5 c 128,-1,31
 471 158 471 158 553 158 c 0,32,33
 666 158 666 158 735 211 c 1,34,-1
 735 451 l 1,35,-1
 518 451 l 1,36,-1
 518 645 l 1,0,-1
774 915 m 2,37,38
 774 919 774 919 777 919 c 0,39,40
 781 919 781 919 798 906 c 1,41,-1
 790 898 l 1,42,-1
 774 914 l 1,43,-1
 774 915 l 2,37,38
811 897 m 1,44,45
 811 897 811 897 798 906 c 1,46,-1
 801 909 l 1,47,-1
 811 897 l 1,44,45
EndSplineSet
EndChar

StartChar: H
Encoding: 72 72 77
Width: 1024
GlyphClass: 2
Flags: W
AnchorPoint: "Anchor-8" 0 0 basechar 0
AnchorPoint: "Anchor-7" 512 639 basechar 0
AnchorPoint: "Anchor-6" 512 1276 basechar 0
AnchorPoint: "Anchor-5" 0 0 basechar 0
AnchorPoint: "Anchor-4" 512 0 basechar 0
LayerCount: 2
Fore
SplineSet
88 1276 m 1,0,-1
 340 1276 l 1,1,-1
 340 1253 l 1,2,3
 329 1241 329 1241 326 1226.5 c 128,-1,4
 323 1212 323 1212 324 1178 c 1,5,-1
 324 758 l 1,6,-1
 700 758 l 1,7,-1
 700 1276 l 1,8,-1
 952 1276 l 1,9,-1
 952 1253 l 1,10,11
 941 1241 941 1241 938 1226.5 c 128,-1,12
 935 1212 935 1212 936 1178 c 1,13,-1
 936 0 l 1,14,-1
 700 0 l 1,15,-1
 700 567 l 1,16,-1
 324 567 l 1,17,-1
 324 0 l 1,18,-1
 88 0 l 1,19,-1
 88 1276 l 1,0,-1
EndSplineSet
EndChar

StartChar: Hbar
Encoding: 294 294 78
Width: 1024
GlyphClass: 2
Flags: W
AnchorPoint: "Anchor-8" 0 0 basechar 0
AnchorPoint: "Anchor-7" 512 639 basechar 0
AnchorPoint: "Anchor-6" 512 1276 basechar 0
AnchorPoint: "Anchor-5" 0 0 basechar 0
AnchorPoint: "Anchor-4" 512 0 basechar 0
LayerCount: 2
Fore
SplineSet
952 1253 m 1,0,1
 941 1241 941 1241 938 1226.5 c 128,-1,2
 935 1212 935 1212 936 1178 c 1,3,-1
 936 0 l 1,4,-1
 700 0 l 1,5,-1
 700 545 l 1,6,-1
 324 545 l 1,7,-1
 324 0 l 1,8,-1
 88 0 l 1,9,-1
 88 1276 l 1,10,-1
 340 1276 l 1,11,-1
 340 1253 l 1,12,13
 329 1241 329 1241 326 1226.5 c 128,-1,14
 323 1212 323 1212 324 1178 c 1,15,-1
 324 758 l 1,16,-1
 700 758 l 1,17,-1
 700 1276 l 1,18,-1
 952 1276 l 1,19,-1
 952 1253 l 1,0,1
EndSplineSet
EndChar

StartChar: I
Encoding: 73 73 82
Width: 1024
GlyphClass: 2
Flags: W
AnchorPoint: "Anchor-8" 0 0 basechar 0
AnchorPoint: "Anchor-7" 0 0 basechar 0
AnchorPoint: "Anchor-6" 512 1276 basechar 0
AnchorPoint: "Anchor-5" 729 0 basechar 0
AnchorPoint: "Anchor-4" 512 0 basechar 0
LayerCount: 2
Fore
SplineSet
150 0 m 1,0,-1
 150 190 l 1,1,-1
 397 190 l 1,2,-1
 397 1085 l 1,3,-1
 162 1085 l 1,4,-1
 162 1276 l 1,5,-1
 874 1276 l 1,6,-1
 874 1085 l 1,7,-1
 627 1085 l 1,8,-1
 627 188 l 1,9,-1
 885 188 l 1,10,-1
 885 0 l 1,11,-1
 150 0 l 1,0,-1
EndSplineSet
EndChar

StartChar: Iogonek
Encoding: 302 302 95
Width: 1024
GlyphClass: 2
Flags: W
AnchorPoint: "Anchor-8" 0 0 basechar 0
AnchorPoint: "Anchor-7" 0 0 basechar 0
AnchorPoint: "Anchor-6" 512 1276 basechar 0
AnchorPoint: "Anchor-5" 729 0 basechar 0
AnchorPoint: "Anchor-4" 512 0 basechar 0
LayerCount: 2
Fore
SplineSet
746 -197 m 0,1,2
 746 -236 746 -236 780.5 -264 c 128,-1,3
 815 -292 815 -292 883 -307 c 1,4,-1
 791 -487 l 1,5,6
 657 -453 657 -453 588.5 -392.5 c 128,-1,7
 520 -332 520 -332 520 -258 c 0,8,9
 520 -195 520 -195 568.5 -128 c 128,-1,10
 617 -61 617 -61 709 0 c 1,11,-1
 150 0 l 1,12,-1
 150 190 l 1,13,-1
 397 190 l 1,14,-1
 397 1085 l 1,15,-1
 162 1085 l 1,16,-1
 162 1276 l 1,17,-1
 874 1276 l 1,18,-1
 874 1085 l 1,19,-1
 627 1085 l 1,20,-1
 627 188 l 1,21,-1
 885 188 l 1,22,-1
 885 0 l 1,23,0
 746 -117 746 -117 746 -197 c 0,1,2
EndSplineSet
EndChar

StartChar: J
Encoding: 74 74 97
Width: 1024
GlyphClass: 2
Flags: W
AnchorPoint: "Anchor-8" 0 0 basechar 0
AnchorPoint: "Anchor-7" 0 0 basechar 0
AnchorPoint: "Anchor-6" 635 1276 basechar 0
AnchorPoint: "Anchor-5" 0 0 basechar 0
AnchorPoint: "Anchor-4" 395 0 basechar 0
LayerCount: 2
Fore
SplineSet
950 1276 m 1,0,-1
 950 1085 l 1,1,-1
 758 1085 l 1,2,-1
 758 412 l 2,3,4
 758 262 758 262 709.5 161.5 c 128,-1,5
 661 61 661 61 578.5 13 c 128,-1,6
 496 -35 496 -35 393 -35 c 0,7,8
 291 -35 291 -35 204 10.5 c 128,-1,9
 117 56 117 56 51 143 c 1,10,-1
 181 291 l 1,11,-1
 182 293 l 1,12,-1
 184 290 l 1,13,14
 225 221 225 221 268 191.5 c 128,-1,15
 311 162 311 162 369 162 c 0,16,17
 426 162 426 162 461 190 c 128,-1,18
 496 218 496 218 512 278.5 c 128,-1,19
 528 339 528 339 528 438 c 2,20,-1
 528 1085 l 1,21,-1
 291 1085 l 1,22,-1
 291 1276 l 1,23,-1
 950 1276 l 1,0,-1
177 304 m 0,25,26
 177 305 177 305 178 305 c 0,27,28
 180 305 180 305 182.5 303 c 128,-1,29
 185 301 185 301 188 299 c 1,30,-1
 182 293 l 1,31,24
 177 302 177 302 177 304 c 0,25,26
210 288 m 2,32,33
 210 286 210 286 208 286 c 0,34,35
 205 286 205 286 198 291.5 c 128,-1,36
 191 297 191 297 188 299 c 1,37,-1
 193 305 l 1,38,-1
 210 290 l 1,39,-1
 210 288 l 2,32,33
EndSplineSet
EndChar

StartChar: K
Encoding: 75 75 99
Width: 1024
GlyphClass: 2
Flags: W
LayerCount: 2
Fore
SplineSet
379 582 m 1,0,-1
 324 522 l 1,1,-1
 324 0 l 1,2,-1
 88 0 l 1,3,-1
 88 1276 l 1,4,-1
 340 1276 l 1,5,-1
 340 1253 l 1,6,7
 329 1241 329 1241 326 1226.5 c 128,-1,8
 323 1212 323 1212 324 1178 c 1,9,-1
 324 788 l 1,10,-1
 758 1292 l 1,11,12
 830 1276 830 1276 877 1276 c 2,13,-1
 1018 1276 l 1,14,-1
 543 733 l 1,15,-1
 1036 2 l 1,16,-1
 758 -10 l 1,17,-1
 379 582 l 1,0,-1
EndSplineSet
EndChar

StartChar: uni0198
Encoding: 408 408 101
Width: 1024
GlyphClass: 2
Flags: W
LayerCount: 2
Fore
SplineSet
758 -10 m 1,0,-1
 384 572 l 1,1,-1
 324 481 l 1,2,-1
 324 0 l 1,3,-1
 88 0 l 1,4,-1
 88 1276 l 1,5,-1
 340 1276 l 1,6,-1
 340 1253 l 1,7,8
 329 1241 329 1241 326 1226.5 c 128,-1,9
 323 1212 323 1212 324 1178 c 1,10,-1
 324 788 l 1,11,12
 471 989 471 989 553.5 1088 c 128,-1,13
 636 1187 636 1187 711.5 1237.5 c 128,-1,14
 787 1288 787 1288 872 1288 c 0,15,16
 944 1288 944 1288 983 1260 c 1,17,-1
 983 1040 l 1,18,19
 951 1060 951 1060 930 1065.5 c 128,-1,20
 909 1071 909 1071 868 1071 c 0,21,22
 801 1071 801 1071 721 1002.5 c 128,-1,23
 641 934 641 934 520 768 c 1,24,-1
 1036 2 l 1,25,-1
 758 -10 l 1,0,-1
996 1029 m 0,27,28
 996 1025 996 1025 983 1027 c 1,29,-1
 983 1040 l 1,30,26
 996 1031 996 1031 996 1029 c 0,27,28
958 1027 m 0,32,33
 958 1029 958 1029 963 1029 c 0,34,35
 969 1029 969 1029 983 1027 c 1,36,-1
 983 1024 l 1,37,-1
 960 1024 l 1,38,31
 958 1026 958 1026 958 1027 c 0,32,33
EndSplineSet
EndChar

StartChar: L
Encoding: 76 76 102
Width: 1024
GlyphClass: 2
Flags: W
AnchorPoint: "Anchor-8" 436 956 basechar 0
AnchorPoint: "Anchor-7" 264 639 basechar 0
AnchorPoint: "Anchor-6" 512 1276 basechar 0
AnchorPoint: "Anchor-5" 0 0 basechar 0
AnchorPoint: "Anchor-4" 512 0 basechar 0
LayerCount: 2
Fore
SplineSet
125 1276 m 1,0,-1
 376 1276 l 1,1,-1
 376 1253 l 1,2,3
 365 1241 365 1241 362 1226.5 c 128,-1,4
 359 1212 359 1212 360 1178 c 1,5,-1
 360 193 l 1,6,-1
 940 193 l 1,7,-1
 940 0 l 1,8,-1
 125 0 l 1,9,-1
 125 1276 l 1,0,-1
EndSplineSet
EndChar

StartChar: uni01C7
Encoding: 455 455 103
Width: 1024
GlyphClass: 2
Flags: W
LayerCount: 2
Fore
SplineSet
125 1276 m 1,0,-1
 375 1276 l 1,1,2
 375 1261 375 1261 370 1248 c 0,3,4
 363 1226 363 1226 360 1204 c 1,5,-1
 360 193 l 1,6,-1
 612 193 l 1,7,-1
 612 0 l 1,8,-1
 125 0 l 1,9,-1
 125 1276 l 1,0,-1
452.5 -332 m 128,-1,11
 381 -297 381 -297 328 -229 c 1,12,-1
 473 -53 l 1,13,14
 485 -62 485 -62 490 -71 c 128,-1,15
 495 -80 495 -80 500 -94 c 0,16,17
 508 -116 508 -116 518 -131 c 0,18,19
 544 -170 544 -170 598 -170 c 0,20,21
 674 -170 674 -170 708.5 -105 c 128,-1,22
 743 -40 743 -40 743 106 c 2,23,-1
 743 1085 l 1,24,-1
 539 1085 l 1,25,-1
 539 1276 l 1,26,-1
 973 1276 l 1,27,-1
 973 80 l 2,28,29
 973 -70 973 -70 924.5 -170 c 128,-1,30
 876 -270 876 -270 793.5 -318.5 c 128,-1,31
 711 -367 711 -367 608 -367 c 0,32,10
 524 -367 524 -367 452.5 -332 c 128,-1,11
EndSplineSet
EndChar

StartChar: Lcaron
Encoding: 317 317 105
Width: 1024
GlyphClass: 2
Flags: W
AnchorPoint: "Anchor-8" 436 956 basechar 0
AnchorPoint: "Anchor-7" 264 639 basechar 0
AnchorPoint: "Anchor-6" 512 1276 basechar 0
AnchorPoint: "Anchor-5" 0 0 basechar 0
AnchorPoint: "Anchor-4" 512 0 basechar 0
LayerCount: 2
Fore
SplineSet
582 918 m 1,0,1
 632 964 632 964 664.5 1009.5 c 128,-1,2
 697 1055 697 1055 697 1077 c 0,3,4
 697 1082 697 1082 687.5 1091.5 c 128,-1,5
 678 1101 678 1101 676 1103 c 0,6,7
 650 1125 650 1125 634.5 1146.5 c 128,-1,8
 619 1168 619 1168 619 1194 c 0,9,10
 619 1248 619 1248 657.5 1283.5 c 128,-1,11
 696 1319 696 1319 756 1319 c 0,12,13
 795 1319 795 1319 829.5 1298.5 c 128,-1,14
 864 1278 864 1278 885 1241 c 128,-1,15
 906 1204 906 1204 906 1157 c 0,16,17
 906 1020 906 1020 701 815 c 1,18,-1
 582 918 l 1,0,1
125 1276 m 1,19,-1
 376 1276 l 1,20,-1
 376 1253 l 1,21,22
 365 1241 365 1241 362 1226.5 c 128,-1,23
 359 1212 359 1212 360 1178 c 1,24,-1
 360 193 l 1,25,-1
 940 193 l 1,26,-1
 940 0 l 1,27,-1
 125 0 l 1,28,-1
 125 1276 l 1,19,-1
EndSplineSet
EndChar

StartChar: uni01C8
Encoding: 456 456 109
Width: 1024
GlyphClass: 2
Flags: W
LayerCount: 2
Fore
SplineSet
743 1140.5 m 128,-1,1
 710 1159 710 1159 691 1190 c 128,-1,2
 672 1221 672 1221 672 1257 c 0,3,4
 672 1316 672 1316 712 1354.5 c 128,-1,5
 752 1393 752 1393 815 1393 c 0,6,7
 852 1393 852 1393 885.5 1374.5 c 128,-1,8
 919 1356 919 1356 939 1324.5 c 128,-1,9
 959 1293 959 1293 959 1257 c 256,10,11
 959 1221 959 1221 939 1190 c 128,-1,12
 919 1159 919 1159 885.5 1140.5 c 128,-1,13
 852 1122 852 1122 815 1122 c 0,14,0
 776 1122 776 1122 743 1140.5 c 128,-1,1
125 1276 m 1,15,-1
 375 1276 l 1,16,17
 375 1261 375 1261 368 1245 c 0,18,19
 360 1225 360 1225 360 1204 c 2,20,-1
 360 193 l 1,21,-1
 571 193 l 1,22,-1
 571 0 l 1,23,-1
 125 0 l 1,24,-1
 125 1276 l 1,15,-1
301 -262 m 1,26,-1
 442 -76 l 1,27,28
 452 -80 452 -80 455.5 -85 c 128,-1,29
 459 -90 459 -90 463 -102 c 0,30,31
 471 -125 471 -125 481 -141 c 1,32,33
 495 -157 495 -157 508 -162.5 c 128,-1,34
 521 -168 521 -168 543 -168 c 0,35,36
 611 -168 611 -168 652.5 -117 c 128,-1,37
 694 -66 694 -66 694 39 c 2,38,-1
 694 770 l 1,39,-1
 485 770 l 1,40,-1
 485 956 l 1,41,-1
 926 956 l 1,42,-1
 926 47 l 2,43,44
 926 -92 926 -92 875.5 -184 c 128,-1,45
 825 -276 825 -276 737.5 -319 c 128,-1,46
 650 -362 650 -362 537 -362 c 0,47,25
 398 -362 398 -362 301 -262 c 1,26,-1
EndSplineSet
EndChar

StartChar: Lslash
Encoding: 321 321 111
Width: 1024
GlyphClass: 2
Flags: W
LayerCount: 2
Fore
SplineSet
125 453 m 1,0,-1
 10 416 l 1,1,-1
 10 610 l 1,2,-1
 125 647 l 1,3,-1
 125 1276 l 1,4,-1
 375 1276 l 1,5,6
 379 1272 379 1272 379 1266 c 0,7,8
 379 1262 379 1262 371 1246 c 128,-1,9
 363 1230 363 1230 360 1204 c 1,10,-1
 360 725 l 1,11,-1
 643 817 l 1,12,13
 675 831 675 831 717 864 c 1,14,-1
 717 645 l 1,15,-1
 360 528 l 1,16,-1
 360 195 l 1,17,-1
 940 195 l 1,18,-1
 940 2 l 1,19,-1
 125 2 l 1,20,-1
 125 453 l 1,0,-1
EndSplineSet
EndChar

StartChar: M
Encoding: 77 77 112
Width: 1024
GlyphClass: 2
Flags: W
AnchorPoint: "Anchor-8" 0 0 basechar 0
AnchorPoint: "Anchor-7" 0 0 basechar 0
AnchorPoint: "Anchor-6" 512 1276 basechar 0
AnchorPoint: "Anchor-5" 0 0 basechar 0
AnchorPoint: "Anchor-4" 512 0 basechar 0
LayerCount: 2
Fore
SplineSet
61 0 m 1,0,-1
 61 1276 l 1,1,-1
 303 1276 l 1,2,-1
 518 676 l 1,3,-1
 731 1278 l 1,4,-1
 975 1278 l 1,5,-1
 975 0 l 1,6,-1
 768 0 l 1,7,-1
 768 926 l 1,8,-1
 590 444 l 1,9,-1
 438 444 l 1,10,-1
 266 926 l 1,11,-1
 266 0 l 1,12,-1
 61 0 l 1,0,-1
EndSplineSet
EndChar

StartChar: N
Encoding: 78 78 114
Width: 1024
GlyphClass: 2
Flags: W
AnchorPoint: "Anchor-8" 0 0 basechar 0
AnchorPoint: "Anchor-7" 0 0 basechar 0
AnchorPoint: "Anchor-6" 512 1276 basechar 0
AnchorPoint: "Anchor-5" 0 0 basechar 0
AnchorPoint: "Anchor-4" 512 0 basechar 0
LayerCount: 2
Fore
SplineSet
66 1276 m 1,0,-1
 346 1276 l 1,1,-1
 752 362 l 1,2,-1
 752 1276 l 1,3,-1
 974 1276 l 1,4,-1
 974 1253 l 1,5,6
 963 1241 963 1241 960 1226.5 c 128,-1,7
 957 1212 957 1212 958 1178 c 1,8,-1
 958 0 l 1,9,-1
 705 0 l 1,10,-1
 272 965 l 1,11,-1
 272 0 l 1,12,-1
 66 0 l 1,13,-1
 66 1276 l 1,0,-1
EndSplineSet
EndChar

StartChar: Eng
Encoding: 330 330 120
Width: 1024
GlyphClass: 2
Flags: W
AnchorPoint: "Anchor-8" 0 0 basechar 0
AnchorPoint: "Anchor-7" 0 0 basechar 0
AnchorPoint: "Anchor-6" 532 1276 basechar 0
AnchorPoint: "Anchor-5" 0 0 basechar 0
AnchorPoint: "Anchor-4" 512 0 basechar 0
LayerCount: 2
Fore
SplineSet
973 1276 m 1,0,1
 973 1261 973 1261 970 1248 c 128,-1,2
 967 1235 967 1235 966 1232 c 0,3,4
 958 1206 958 1206 958 1188 c 2,5,-1
 958 0 l 2,6,7
 958 -123 958 -123 914.5 -215.5 c 128,-1,8
 871 -308 871 -308 796 -358 c 128,-1,9
 721 -408 721 -408 631 -408 c 0,10,11
 512 -408 512 -408 391 -322 c 1,12,-1
 498 -135 l 1,13,14
 511 -135 511 -135 519 -141 c 128,-1,15
 527 -147 527 -147 537 -160 c 0,16,17
 550 -178 550 -178 566.5 -188.5 c 128,-1,18
 583 -199 583 -199 616 -199 c 0,19,20
 679 -199 679 -199 714.5 -148.5 c 128,-1,21
 750 -98 750 -98 750 -2 c 1,22,-1
 272 965 l 1,23,-1
 272 0 l 1,24,-1
 66 0 l 1,25,-1
 66 1276 l 1,26,-1
 305 1276 l 1,27,-1
 752 377 l 1,28,-1
 752 1276 l 1,29,-1
 973 1276 l 1,0,1
EndSplineSet
EndChar

StartChar: O
Encoding: 79 79 123
Width: 1024
GlyphClass: 2
Flags: W
AnchorPoint: "Anchor-8" 868 1180 basechar 0
AnchorPoint: "Anchor-7" 512 639 basechar 0
AnchorPoint: "Anchor-6" 516 1276 basechar 0
AnchorPoint: "Anchor-5" 586 20 basechar 0
AnchorPoint: "Anchor-4" 518 0 basechar 0
LayerCount: 2
Fore
SplineSet
258.5 43.5 m 128,-1,1
 150 124 150 124 92.5 276.5 c 128,-1,2
 35 429 35 429 35 641 c 0,3,4
 35 850 35 850 92.5 1000 c 128,-1,5
 150 1150 150 1150 258.5 1229.5 c 128,-1,6
 367 1309 367 1309 518 1309 c 256,7,8
 669 1309 669 1309 777.5 1229.5 c 128,-1,9
 886 1150 886 1150 943.5 1000 c 128,-1,10
 1001 850 1001 850 1001 641 c 0,11,12
 1001 429 1001 429 943.5 276.5 c 128,-1,13
 886 124 886 124 777.5 43.5 c 128,-1,14
 669 -37 669 -37 518 -37 c 256,15,0
 367 -37 367 -37 258.5 43.5 c 128,-1,1
649.5 209.5 m 128,-1,17
 705 272 705 272 734.5 386.5 c 128,-1,18
 764 501 764 501 764 653 c 0,19,20
 764 794 764 794 734.5 900.5 c 128,-1,21
 705 1007 705 1007 649.5 1065.5 c 128,-1,22
 594 1124 594 1124 518 1124 c 0,23,24
 443 1124 443 1124 387 1065.5 c 128,-1,25
 331 1007 331 1007 301.5 900.5 c 128,-1,26
 272 794 272 794 272 653 c 0,27,28
 272 501 272 501 301.5 386.5 c 128,-1,29
 331 272 331 272 386.5 209.5 c 128,-1,30
 442 147 442 147 518 147 c 256,31,16
 594 147 594 147 649.5 209.5 c 128,-1,17
EndSplineSet
Substitution2: "Single Substitution lookup 28 subtable" ordmasculine
Substitution2: "'aalt' +MFkweTBmMG51cE9TW1cweDBuMKIwrzC7MLkA in +MOkwxjDzZYdbVwAA lookup 0 subtable" ordmasculine
EndChar

StartChar: Ohorn
Encoding: 416 416 139
Width: 1024
GlyphClass: 2
Flags: W
AnchorPoint: "Anchor-8" 868 1180 basechar 0
AnchorPoint: "Anchor-7" 512 639 basechar 0
AnchorPoint: "Anchor-6" 516 1276 basechar 0
AnchorPoint: "Anchor-5" 586 20 basechar 0
AnchorPoint: "Anchor-4" 518 0 basechar 0
LayerCount: 2
Fore
SplineSet
1012 1136.5 m 128,-1,1
 986 1061 986 1061 926 1042 c 1,2,3
 1001 880 1001 880 1001 641 c 0,4,5
 1001 429 1001 429 943.5 276.5 c 128,-1,6
 886 124 886 124 777.5 43.5 c 128,-1,7
 669 -37 669 -37 518 -37 c 256,8,9
 367 -37 367 -37 258.5 43.5 c 128,-1,10
 150 124 150 124 92.5 276.5 c 128,-1,11
 35 429 35 429 35 641 c 0,12,13
 35 850 35 850 92.5 1000 c 128,-1,14
 150 1150 150 1150 258.5 1229.5 c 128,-1,15
 367 1309 367 1309 518 1309 c 0,16,17
 612 1309 612 1309 691 1277.5 c 128,-1,18
 770 1246 770 1246 829 1185 c 1,19,20
 842 1197 842 1197 848 1242 c 128,-1,21
 854 1287 854 1287 854 1372 c 1,22,-1
 1038 1372 l 1,23,0
 1038 1212 1038 1212 1012 1136.5 c 128,-1,1
649.5 209.5 m 128,-1,25
 705 272 705 272 734.5 386.5 c 128,-1,26
 764 501 764 501 764 653 c 0,27,28
 764 794 764 794 734.5 900.5 c 128,-1,29
 705 1007 705 1007 649.5 1065.5 c 128,-1,30
 594 1124 594 1124 518 1124 c 0,31,32
 443 1124 443 1124 387 1065.5 c 128,-1,33
 331 1007 331 1007 301.5 900.5 c 128,-1,34
 272 794 272 794 272 653 c 0,35,36
 272 501 272 501 301.5 386.5 c 128,-1,37
 331 272 331 272 386.5 209.5 c 128,-1,38
 442 147 442 147 518 147 c 256,39,24
 594 147 594 147 649.5 209.5 c 128,-1,25
EndSplineSet
EndChar

StartChar: uni01EA
Encoding: 490 490 150
Width: 1024
GlyphClass: 2
Flags: W
AnchorPoint: "Anchor-8" 868 1180 basechar 0
AnchorPoint: "Anchor-7" 512 639 basechar 0
AnchorPoint: "Anchor-6" 516 1276 basechar 0
AnchorPoint: "Anchor-5" 586 20 basechar 0
AnchorPoint: "Anchor-4" 518 0 basechar 0
LayerCount: 2
Fore
SplineSet
934 252.5 m 128,-1,1
 867 93 867 93 742 20 c 1,2,3
 603 -97 603 -97 603 -177 c 0,4,5
 603 -216 603 -216 637.5 -244 c 128,-1,6
 672 -272 672 -272 740 -287 c 1,7,-1
 648 -467 l 1,8,9
 514 -433 514 -433 445.5 -372.5 c 128,-1,10
 377 -312 377 -312 377 -238 c 0,11,12
 377 -190 377 -190 406.5 -138 c 128,-1,13
 436 -86 436 -86 492 -36 c 1,14,15
 349 -29 349 -29 246.5 53.5 c 128,-1,16
 144 136 144 136 89.5 285.5 c 128,-1,17
 35 435 35 435 35 641 c 0,18,19
 35 850 35 850 92.5 1000 c 128,-1,20
 150 1150 150 1150 258.5 1229.5 c 128,-1,21
 367 1309 367 1309 518 1309 c 256,22,23
 669 1309 669 1309 777.5 1229.5 c 128,-1,24
 886 1150 886 1150 943.5 1000 c 128,-1,25
 1001 850 1001 850 1001 641 c 0,26,0
 1001 412 1001 412 934 252.5 c 128,-1,1
649.5 209.5 m 128,-1,28
 705 272 705 272 734.5 386.5 c 128,-1,29
 764 501 764 501 764 653 c 0,30,31
 764 794 764 794 734.5 900.5 c 128,-1,32
 705 1007 705 1007 649.5 1065.5 c 128,-1,33
 594 1124 594 1124 518 1124 c 0,34,35
 443 1124 443 1124 387 1065.5 c 128,-1,36
 331 1007 331 1007 301.5 900.5 c 128,-1,37
 272 794 272 794 272 653 c 0,38,39
 272 501 272 501 301.5 386.5 c 128,-1,40
 331 272 331 272 386.5 209.5 c 128,-1,41
 442 147 442 147 518 147 c 256,42,27
 594 147 594 147 649.5 209.5 c 128,-1,28
EndSplineSet
EndChar

StartChar: Oslash
Encoding: 216 216 151
Width: 1024
GlyphClass: 2
Flags: W
AnchorPoint: "Anchor-8" 868 1180 basechar 0
AnchorPoint: "Anchor-7" 512 639 basechar 0
AnchorPoint: "Anchor-6" 516 1276 basechar 0
AnchorPoint: "Anchor-5" 586 20 basechar 0
AnchorPoint: "Anchor-4" 518 0 basechar 0
LayerCount: 2
Fore
SplineSet
963 941 m 128,-1,1
 1001 810 1001 810 1001 641 c 0,2,3
 1001 429 1001 429 943.5 276.5 c 128,-1,4
 886 124 886 124 777.5 43.5 c 128,-1,5
 669 -37 669 -37 518 -37 c 0,6,7
 371 -37 371 -37 262 41 c 1,8,-1
 180 -115 l 1,9,-1
 66 -45 l 1,10,-1
 165 140 l 1,11,12
 102 228 102 228 68.5 355 c 128,-1,13
 35 482 35 482 35 641 c 0,14,15
 35 850 35 850 92.5 1000 c 128,-1,16
 150 1150 150 1150 258.5 1229.5 c 128,-1,17
 367 1309 367 1309 518 1309 c 0,18,19
 652 1309 652 1309 753 1246 c 1,20,-1
 834 1397 l 1,21,-1
 948 1339 l 1,22,-1
 853 1159 l 1,23,0
 925 1072 925 1072 963 941 c 128,-1,1
300 394 m 1,25,-1
 655 1060 l 1,26,27
 596 1124 596 1124 518 1124 c 0,28,29
 443 1124 443 1124 387 1065.5 c 128,-1,30
 331 1007 331 1007 301.5 900.5 c 128,-1,31
 272 794 272 794 272 653 c 0,32,24
 272 508 272 508 300 394 c 1,25,-1
649.5 209.5 m 128,-1,34
 705 272 705 272 734.5 386.5 c 128,-1,35
 764 501 764 501 764 653 c 0,36,37
 764 812 764 812 728 923 c 1,38,-1
 366 237 l 1,39,40
 428 147 428 147 518 147 c 0,41,33
 594 147 594 147 649.5 209.5 c 128,-1,34
EndSplineSet
EndChar

StartChar: OE
Encoding: 338 338 157
Width: 1024
GlyphClass: 2
Flags: W
LayerCount: 2
Fore
SplineSet
172.5 57 m 128,-1,1
 93 128 93 128 49.5 273.5 c 128,-1,2
 6 419 6 419 6 639 c 0,3,4
 6 962 6 962 99.5 1128 c 128,-1,5
 193 1294 193 1294 369 1294 c 0,6,7
 398 1294 398 1294 431.5 1281.5 c 128,-1,8
 465 1269 465 1269 489 1247 c 1,9,-1
 489 1278 l 1,10,-1
 1010 1278 l 1,11,-1
 1010 1081 l 1,12,-1
 692 1081 l 1,13,-1
 692 764 l 1,14,-1
 961 764 l 1,15,-1
 961 565 l 1,16,-1
 692 565 l 1,17,-1
 692 197 l 1,18,-1
 1006 197 l 1,19,-1
 1006 0 l 1,20,-1
 487 0 l 1,21,-1
 487 33 l 1,22,23
 460 12 460 12 426 -1 c 128,-1,24
 392 -14 392 -14 362 -14 c 0,25,0
 252 -14 252 -14 172.5 57 c 128,-1,1
447 212 m 128,-1,27
 471 242 471 242 477 295 c 1,28,-1
 477 977 l 1,29,30
 466 1034 466 1034 438.5 1069 c 128,-1,31
 411 1104 411 1104 369 1104 c 0,32,33
 302 1104 302 1104 263.5 998 c 128,-1,34
 225 892 225 892 225 641 c 0,35,36
 225 182 225 182 385 182 c 0,37,26
 423 182 423 182 447 212 c 128,-1,27
EndSplineSet
EndChar

StartChar: P
Encoding: 80 80 158
Width: 1024
GlyphClass: 2
Flags: W
AnchorPoint: "Anchor-8" 0 0 basechar 0
AnchorPoint: "Anchor-7" 0 0 basechar 0
AnchorPoint: "Anchor-6" 512 1276 basechar 0
AnchorPoint: "Anchor-5" 0 0 basechar 0
AnchorPoint: "Anchor-4" 512 0 basechar 0
LayerCount: 2
Fore
SplineSet
102 1276 m 1,0,-1
 535 1276 l 2,1,2
 681 1276 681 1276 777 1225 c 128,-1,3
 873 1174 873 1174 919 1087.5 c 128,-1,4
 965 1001 965 1001 965 893 c 256,5,6
 965 785 965 785 920 700 c 128,-1,7
 875 615 875 615 781 565.5 c 128,-1,8
 687 516 687 516 545 516 c 2,9,-1
 336 516 l 1,10,-1
 336 0 l 1,11,-1
 102 0 l 1,12,-1
 102 1276 l 1,0,-1
528 711 m 2,13,14
 630 711 630 711 679.5 759 c 128,-1,15
 729 807 729 807 729 887 c 0,16,17
 729 971 729 971 678.5 1022 c 128,-1,18
 628 1073 628 1073 530 1073 c 2,19,-1
 336 1073 l 1,20,-1
 336 711 l 1,21,-1
 528 711 l 2,13,14
EndSplineSet
EndChar

StartChar: Thorn
Encoding: 222 222 159
Width: 1024
GlyphClass: 2
Flags: W
LayerCount: 2
Fore
SplineSet
102 1276 m 1,0,-1
 352 1276 l 1,1,2
 356 1272 356 1272 356 1266 c 0,3,4
 356 1262 356 1262 348.5 1246 c 128,-1,5
 341 1230 341 1230 338 1204 c 1,6,-1
 338 1057 l 1,7,-1
 535 1057 l 2,8,9
 681 1057 681 1057 777 1006 c 128,-1,10
 873 955 873 955 919 868.5 c 128,-1,11
 965 782 965 782 965 674 c 256,12,13
 965 566 965 566 920 481 c 128,-1,14
 875 396 875 396 781 346.5 c 128,-1,15
 687 297 687 297 545 297 c 2,16,-1
 336 297 l 1,17,-1
 336 0 l 1,18,-1
 102 0 l 1,19,-1
 102 1276 l 1,0,-1
528 492 m 2,20,21
 630 492 630 492 679.5 540 c 128,-1,22
 729 588 729 588 729 668 c 0,23,24
 729 718 729 718 707 760.5 c 128,-1,25
 685 803 685 803 640 828.5 c 128,-1,26
 595 854 595 854 530 854 c 2,27,-1
 338 854 l 1,28,-1
 336 492 l 1,29,-1
 528 492 l 2,20,21
EndSplineSet
EndChar

StartChar: Q
Encoding: 81 81 160
Width: 1024
GlyphClass: 2
Flags: W
AnchorPoint: "Anchor-8" 0 0 basechar 0
AnchorPoint: "Anchor-7" 0 0 basechar 0
AnchorPoint: "Anchor-6" 512 1276 basechar 0
AnchorPoint: "Anchor-5" 0 0 basechar 0
AnchorPoint: "Anchor-4" 512 0 basechar 0
LayerCount: 2
Fore
SplineSet
487.5 -234 m 128,-1,1
 406 -169 406 -169 401 -23 c 1,2,3
 286 8 286 8 203.5 99.5 c 128,-1,4
 121 191 121 191 78 330.5 c 128,-1,5
 35 470 35 470 35 641 c 0,6,7
 35 838 35 838 94 989.5 c 128,-1,8
 153 1141 153 1141 262 1225 c 128,-1,9
 371 1309 371 1309 516 1309 c 0,10,11
 648 1309 648 1309 755 1234 c 128,-1,12
 862 1159 862 1159 925.5 1008 c 128,-1,13
 989 857 989 857 989 639 c 0,14,15
 989 439 989 439 939.5 299.5 c 128,-1,16
 890 160 890 160 807.5 82 c 128,-1,17
 725 4 725 4 621 -23 c 1,18,19
 624 -60 624 -60 646.5 -80.5 c 128,-1,20
 669 -101 669 -101 711 -100 c 2,21,-1
 913 -92 l 1,22,-1
 907 -299 l 1,23,-1
 743 -299 l 2,24,0
 569 -299 569 -299 487.5 -234 c 128,-1,1
684.5 282.5 m 128,-1,26
 750 393 750 393 750 643 c 0,27,28
 750 804 750 804 716.5 907.5 c 128,-1,29
 683 1011 683 1011 630 1057.5 c 128,-1,30
 577 1104 577 1104 518 1104 c 0,31,32
 408 1104 408 1104 340 999 c 128,-1,33
 272 894 272 894 272 653 c 0,34,35
 272 500 272 500 303 391.5 c 128,-1,36
 334 283 334 283 389 227.5 c 128,-1,37
 444 172 444 172 516 172 c 0,38,25
 619 172 619 172 684.5 282.5 c 128,-1,26
EndSplineSet
EndChar

StartChar: R
Encoding: 82 82 161
Width: 1024
GlyphClass: 2
Flags: W
AnchorPoint: "Anchor-8" 0 0 basechar 0
AnchorPoint: "Anchor-7" 0 0 basechar 0
AnchorPoint: "Anchor-6" 512 1276 basechar 0
AnchorPoint: "Anchor-5" 0 0 basechar 0
AnchorPoint: "Anchor-4" 512 0 basechar 0
LayerCount: 2
Fore
SplineSet
96 1276 m 1,0,-1
 500 1276 l 2,1,2
 729 1276 729 1276 837.5 1175.5 c 128,-1,3
 946 1075 946 1075 946 895 c 0,4,5
 946 825 946 825 915.5 755 c 128,-1,6
 885 685 885 685 829.5 631.5 c 128,-1,7
 774 578 774 578 702 555 c 1,8,-1
 1001 0 l 1,9,-1
 743 0 l 1,10,-1
 479 528 l 1,11,-1
 330 528 l 1,12,-1
 330 0 l 1,13,-1
 96 0 l 1,14,-1
 96 1276 l 1,0,-1
514 723 m 2,15,16
 613 723 613 723 662 769 c 128,-1,17
 711 815 711 815 711 895 c 0,18,19
 711 985 711 985 663.5 1029 c 128,-1,20
 616 1073 616 1073 514 1073 c 2,21,-1
 330 1073 l 1,22,-1
 330 723 l 1,23,-1
 514 723 l 2,15,16
EndSplineSet
EndChar

StartChar: S
Encoding: 83 83 169
Width: 1024
GlyphClass: 2
Flags: W
AnchorPoint: "Anchor-8" 0 0 basechar 0
AnchorPoint: "Anchor-7" 0 0 basechar 0
AnchorPoint: "Anchor-6" 512 1276 basechar 0
AnchorPoint: "Anchor-5" 0 0 basechar 0
AnchorPoint: "Anchor-4" 528 0 basechar 0
LayerCount: 2
Fore
SplineSet
810 619.5 m 128,-1,1
 882 562 882 562 912 499 c 128,-1,2
 942 436 942 436 942 352 c 0,3,4
 942 250 942 250 895 161.5 c 128,-1,5
 848 73 848 73 746.5 18 c 128,-1,6
 645 -37 645 -37 489 -37 c 0,7,8
 240 -37 240 -37 57 141 c 1,9,-1
 157 315 l 1,10,-1
 158 317 l 1,11,-1
 160 315 l 1,12,13
 309 160 309 160 508 160 c 0,14,15
 604 160 604 160 656.5 205 c 128,-1,16
 709 250 709 250 709 340 c 0,17,18
 709 385 709 385 686.5 421.5 c 128,-1,19
 664 458 664 458 609.5 495 c 128,-1,20
 555 532 555 532 459 575 c 1,21,22
 281 652 281 652 201 748 c 128,-1,23
 121 844 121 844 121 971 c 0,24,25
 121 1063 121 1063 172.5 1140.5 c 128,-1,26
 224 1218 224 1218 314.5 1263.5 c 128,-1,27
 405 1309 405 1309 518 1309 c 0,28,29
 645 1309 645 1309 737 1267 c 128,-1,30
 829 1225 829 1225 913 1137 c 1,31,-1
 798 977 l 1,32,-1
 797 975 l 2,33,34
 796 975 796 975 796 975.5 c 128,-1,35
 796 976 796 976 796 976 c 1,36,37
 749 1051 749 1051 676 1085.5 c 128,-1,38
 603 1120 603 1120 516 1120 c 0,39,40
 460 1120 460 1120 419.5 1100.5 c 128,-1,41
 379 1081 379 1081 358.5 1049 c 128,-1,42
 338 1017 338 1017 338 979 c 0,43,44
 338 934 338 934 361.5 899.5 c 128,-1,45
 385 865 385 865 442 828.5 c 128,-1,46
 499 792 499 792 608 739 c 0,47,0
 738 677 738 677 810 619.5 c 128,-1,1
769 978 m 2,48,49
 769 980 769 980 771 980 c 256,50,51
 773 980 773 980 779.5 975 c 128,-1,52
 786 970 786 970 791 967 c 1,53,-1
 788 962 l 1,54,-1
 769 975 l 1,55,-1
 769 978 l 2,48,49
804 961 m 0,57,58
 804 960 804 960 803 960 c 0,59,60
 800 960 800 960 791 967 c 1,61,-1
 797 975 l 1,62,56
 804 964 804 964 804 961 c 0,57,58
187 316 m 2,63,64
 187 314 187 314 185 314 c 0,65,66
 182 314 182 314 174.5 318 c 128,-1,67
 167 322 167 322 162 324 c 1,68,-1
 166 331 l 1,69,-1
 186 319 l 1,70,-1
 187 316 l 2,63,64
150 328 m 2,72,73
 150 328 150 328 150 328.5 c 128,-1,74
 150 329 150 329 151 329 c 2,75,-1
 162 324 l 1,76,-1
 158 317 l 1,77,71
 150 325 150 325 150 328 c 2,72,73
EndSplineSet
EndChar

StartChar: Scedilla
Encoding: 350 350 174
Width: 1024
GlyphClass: 2
Flags: W
AnchorPoint: "Anchor-8" 0 0 basechar 0
AnchorPoint: "Anchor-7" 0 0 basechar 0
AnchorPoint: "Anchor-6" 512 1276 basechar 0
AnchorPoint: "Anchor-5" 0 0 basechar 0
AnchorPoint: "Anchor-4" 528 -389 basechar 0
LayerCount: 2
Fore
SplineSet
910 191 m 128,-1,1
 878 115 878 115 809 58 c 128,-1,2
 740 1 740 1 634 -22 c 1,3,-1
 628 -63 l 1,4,5
 705 -71 705 -71 746.5 -109.5 c 128,-1,6
 788 -148 788 -148 788 -209 c 0,7,8
 788 -260 788 -260 758.5 -308.5 c 128,-1,9
 729 -357 729 -357 669.5 -388.5 c 128,-1,10
 610 -420 610 -420 526 -420 c 0,11,12
 383 -420 383 -420 268 -305 c 1,13,-1
 344 -172 l 1,14,15
 402 -233 402 -233 449.5 -257 c 128,-1,16
 497 -281 497 -281 551 -281 c 0,17,18
 597 -281 597 -281 621 -266.5 c 128,-1,19
 645 -252 645 -252 645 -227 c 0,20,21
 645 -204 645 -204 623 -193 c 128,-1,22
 601 -182 601 -182 548 -182 c 2,23,-1
 448 -182 l 1,24,-1
 468 -37 l 1,25,26
 232 -30 232 -30 57 141 c 1,27,-1
 157 315 l 1,28,-1
 158 317 l 1,29,-1
 160 315 l 1,30,31
 309 160 309 160 508 160 c 0,32,33
 604 160 604 160 656.5 205 c 128,-1,34
 709 250 709 250 709 340 c 0,35,36
 709 385 709 385 686.5 421.5 c 128,-1,37
 664 458 664 458 609.5 495 c 128,-1,38
 555 532 555 532 459 575 c 1,39,40
 281 652 281 652 201 748 c 128,-1,41
 121 844 121 844 121 971 c 0,42,43
 121 1063 121 1063 172.5 1140.5 c 128,-1,44
 224 1218 224 1218 314.5 1263.5 c 128,-1,45
 405 1309 405 1309 518 1309 c 0,46,47
 645 1309 645 1309 737 1267 c 128,-1,48
 829 1225 829 1225 913 1137 c 1,49,-1
 798 977 l 1,50,-1
 797 975 l 2,51,52
 796 975 796 975 796 975.5 c 128,-1,53
 796 976 796 976 796 976 c 1,54,55
 749 1051 749 1051 676 1085.5 c 128,-1,56
 603 1120 603 1120 516 1120 c 0,57,58
 460 1120 460 1120 419.5 1100.5 c 128,-1,59
 379 1081 379 1081 358.5 1049 c 128,-1,60
 338 1017 338 1017 338 979 c 0,61,62
 338 934 338 934 361.5 899.5 c 128,-1,63
 385 865 385 865 442 828.5 c 128,-1,64
 499 792 499 792 608 739 c 0,65,66
 738 677 738 677 810 619.5 c 128,-1,67
 882 562 882 562 912 499 c 128,-1,68
 942 436 942 436 942 352 c 0,69,0
 942 267 942 267 910 191 c 128,-1,1
769 978 m 2,70,71
 769 980 769 980 771 980 c 256,72,73
 773 980 773 980 779.5 975 c 128,-1,74
 786 970 786 970 791 967 c 1,75,-1
 788 962 l 1,76,-1
 769 975 l 1,77,-1
 769 978 l 2,70,71
804 961 m 0,79,80
 804 960 804 960 803 960 c 0,81,82
 800 960 800 960 791 967 c 1,83,-1
 797 975 l 1,84,78
 804 964 804 964 804 961 c 0,79,80
187 316 m 2,85,86
 187 314 187 314 185 314 c 0,87,88
 182 314 182 314 174.5 318 c 128,-1,89
 167 322 167 322 162 324 c 1,90,-1
 166 331 l 1,91,-1
 186 319 l 1,92,-1
 187 316 l 2,85,86
150 328 m 2,94,95
 150 328 150 328 150 328.5 c 128,-1,96
 150 329 150 329 151 329 c 2,97,-1
 162 324 l 1,98,-1
 158 317 l 1,99,93
 150 325 150 325 150 328 c 2,94,95
EndSplineSet
Substitution2: "'locl' +Vv0w+1cwV99W+mcJMG5bV19i in +MOkwxjDzZYdbVwAA lookup 7 subtable" Scommaaccent
Substitution2: "'locl' +Vv0w+1cwV99W+mcJMG5bV19i in +MOkwxjDzZYdbVwAA lookup 6 subtable" Scommaaccent
Substitution2: "'aalt' +MFkweTBmMG51cE9TW1cweDBuMKIwrzC7MLkA in +MOkwxjDzZYdbVwAA lookup 0 subtable" Scommaaccent
EndChar

StartChar: uni1E9E
Encoding: 7838 7838 180
Width: 1024
GlyphClass: 2
Flags: W
LayerCount: 2
Fore
SplineSet
788 710 m 128,-1,1
 871 652 871 652 910.5 564.5 c 128,-1,2
 950 477 950 477 950 373 c 0,3,4
 950 262 950 262 905.5 170 c 128,-1,5
 861 78 861 78 774.5 23.5 c 128,-1,6
 688 -31 688 -31 567 -31 c 0,7,8
 504 -31 504 -31 452.5 -15.5 c 128,-1,9
 401 0 401 0 342 33 c 1,10,-1
 457 213 l 1,11,12
 484 188 484 188 510.5 176 c 128,-1,13
 537 164 537 164 567 164 c 0,14,15
 613 164 613 164 650.5 190 c 128,-1,16
 688 216 688 216 709.5 264.5 c 128,-1,17
 731 313 731 313 731 377 c 0,18,19
 731 449 731 449 702.5 505.5 c 128,-1,20
 674 562 674 562 617.5 594.5 c 128,-1,21
 561 627 561 627 479 627 c 2,22,-1
 377 627 l 1,23,-1
 377 809 l 1,24,-1
 643 1010 l 1,25,26
 643 1060 643 1060 624.5 1102.5 c 128,-1,27
 606 1145 606 1145 569 1171.5 c 128,-1,28
 532 1198 532 1198 481 1198 c 0,29,30
 390 1198 390 1198 344.5 1120.5 c 128,-1,31
 299 1043 299 1043 299 930 c 2,32,-1
 299 0 l 1,33,-1
 78 0 l 1,34,-1
 78 895 l 2,35,36
 78 1054 78 1054 129 1163.5 c 128,-1,37
 180 1273 180 1273 272 1327.5 c 128,-1,38
 364 1382 364 1382 487 1382 c 0,39,40
 605 1382 605 1382 690.5 1327.5 c 128,-1,41
 776 1273 776 1273 820 1184 c 128,-1,42
 864 1095 864 1095 864 995 c 1,43,-1
 580 783 l 1,44,0
 705 768 705 768 788 710 c 128,-1,1
EndSplineSet
EndChar

StartChar: T
Encoding: 84 84 182
Width: 1024
GlyphClass: 2
Flags: W
AnchorPoint: "Anchor-8" 0 0 basechar 0
AnchorPoint: "Anchor-7" 502 639 basechar 0
AnchorPoint: "Anchor-6" 512 1276 basechar 0
AnchorPoint: "Anchor-5" 0 0 basechar 0
AnchorPoint: "Anchor-4" 512 0 basechar 0
LayerCount: 2
Fore
SplineSet
387 0 m 1,0,-1
 387 1077 l 1,1,-1
 41 1077 l 1,2,-1
 41 1276 l 1,3,-1
 981 1276 l 1,4,-1
 981 1077 l 1,5,-1
 621 1077 l 1,6,-1
 621 0 l 1,7,-1
 387 0 l 1,0,-1
EndSplineSet
EndChar

StartChar: Tbar
Encoding: 358 358 183
Width: 1024
GlyphClass: 2
Flags: W
AnchorPoint: "Anchor-8" 0 0 basechar 0
AnchorPoint: "Anchor-7" 502 639 basechar 0
AnchorPoint: "Anchor-6" 512 1276 basechar 0
AnchorPoint: "Anchor-5" 0 0 basechar 0
AnchorPoint: "Anchor-4" 512 0 basechar 0
LayerCount: 2
Fore
SplineSet
981 1077 m 1,0,-1
 621 1077 l 1,1,-1
 621 711 l 1,2,-1
 867 711 l 1,3,-1
 867 566 l 1,4,-1
 621 566 l 1,5,-1
 621 0 l 1,6,-1
 387 0 l 1,7,-1
 387 566 l 1,8,-1
 134 566 l 1,9,-1
 134 711 l 1,10,-1
 387 711 l 1,11,-1
 387 1077 l 1,12,-1
 41 1077 l 1,13,-1
 41 1276 l 1,14,-1
 981 1276 l 1,15,-1
 981 1077 l 1,0,-1
EndSplineSet
EndChar

StartChar: U
Encoding: 85 85 189
Width: 1024
GlyphClass: 2
Flags: W
AnchorPoint: "Anchor-8" 948 1276 basechar 0
AnchorPoint: "Anchor-7" 0 0 basechar 0
AnchorPoint: "Anchor-6" 512 1276 basechar 0
AnchorPoint: "Anchor-5" 578 20 basechar 0
AnchorPoint: "Anchor-4" 512 0 basechar 0
LayerCount: 2
Fore
SplineSet
187.5 97.5 m 128,-1,1
 76 224 76 224 76 451 c 2,2,-1
 76 1276 l 1,3,-1
 321 1276 l 1,4,-1
 321 1253 l 1,5,6
 310 1241 310 1241 307 1226.5 c 128,-1,7
 304 1212 304 1212 305 1178 c 1,8,-1
 305 449 l 2,9,10
 305 308 305 308 352 235 c 128,-1,11
 399 162 399 162 512 162 c 0,12,13
 628 162 628 162 675.5 236 c 128,-1,14
 723 310 723 310 723 455 c 2,15,-1
 723 1276 l 1,16,-1
 948 1276 l 1,17,-1
 948 457 l 2,18,19
 948 215 948 215 832 93 c 128,-1,20
 716 -29 716 -29 510 -29 c 0,21,0
 299 -29 299 -29 187.5 97.5 c 128,-1,1
EndSplineSet
EndChar

StartChar: Uhorn
Encoding: 431 431 198
Width: 1024
GlyphClass: 2
Flags: W
AnchorPoint: "Anchor-8" 854 1276 basechar 0
AnchorPoint: "Anchor-7" 0 0 basechar 0
AnchorPoint: "Anchor-6" 471 1276 basechar 0
AnchorPoint: "Anchor-5" 571 70 basechar 0
AnchorPoint: "Anchor-4" 471 0 basechar 0
LayerCount: 2
Fore
SplineSet
1024 1468 m 1,0,1
 1024 1338 1024 1338 1007 1265 c 128,-1,2
 990 1192 990 1192 953.5 1161 c 128,-1,3
 917 1130 917 1130 854 1130 c 1,4,-1
 853 1133 l 1,5,-1
 853 457 l 2,6,7
 853 215 853 215 748.5 93 c 128,-1,8
 644 -29 644 -29 459 -29 c 0,9,10
 269 -29 269 -29 168.5 97.5 c 128,-1,11
 68 224 68 224 68 451 c 2,12,-1
 68 1276 l 1,13,-1
 290 1276 l 1,14,-1
 290 1253 l 1,15,16
 280 1241 280 1241 277 1227 c 128,-1,17
 274 1213 274 1213 274 1178 c 2,18,-1
 274 449 l 2,19,20
 274 308 274 308 316.5 235 c 128,-1,21
 359 162 359 162 461 162 c 0,22,23
 565 162 565 162 608 236 c 128,-1,24
 651 310 651 310 651 455 c 2,25,-1
 651 1276 l 1,26,-1
 803 1276 l 2,27,28
 823 1276 823 1276 831.5 1321 c 128,-1,29
 840 1366 840 1366 840 1468 c 1,30,-1
 1024 1468 l 1,0,1
EndSplineSet
EndChar

StartChar: Uogonek
Encoding: 370 370 208
Width: 1024
GlyphClass: 2
Flags: W
AnchorPoint: "Anchor-8" 948 1276 basechar 0
AnchorPoint: "Anchor-7" 0 0 basechar 0
AnchorPoint: "Anchor-6" 512 1276 basechar 0
AnchorPoint: "Anchor-5" 578 20 basechar 0
AnchorPoint: "Anchor-4" 512 0 basechar 0
LayerCount: 2
Fore
SplineSet
948 1276 m 1,0,-1
 948 457 l 2,1,2
 948 290 948 290 891.5 180 c 128,-1,3
 835 70 835 70 731 18 c 1,4,5
 595 -98 595 -98 595 -177 c 0,6,7
 595 -216 595 -216 629.5 -244 c 128,-1,8
 664 -272 664 -272 732 -287 c 1,9,-1
 640 -467 l 1,10,11
 506 -433 506 -433 437.5 -372.5 c 128,-1,12
 369 -312 369 -312 369 -238 c 0,13,14
 369 -188 369 -188 400.5 -134.5 c 128,-1,15
 432 -81 432 -81 493 -29 c 1,16,17
 290 -24 290 -24 183 102 c 128,-1,18
 76 228 76 228 76 451 c 2,19,-1
 76 1276 l 1,20,-1
 321 1276 l 1,21,-1
 321 1253 l 1,22,23
 310 1241 310 1241 307 1226.5 c 128,-1,24
 304 1212 304 1212 305 1178 c 1,25,-1
 305 449 l 2,26,27
 305 308 305 308 352 235 c 128,-1,28
 399 162 399 162 512 162 c 0,29,30
 628 162 628 162 675.5 236 c 128,-1,31
 723 310 723 310 723 455 c 2,32,-1
 723 1276 l 1,33,-1
 948 1276 l 1,0,-1
EndSplineSet
EndChar

StartChar: V
Encoding: 86 86 212
Width: 1024
GlyphClass: 2
Flags: W
AnchorPoint: "Anchor-8" 0 0 basechar 0
AnchorPoint: "Anchor-7" 0 0 basechar 0
AnchorPoint: "Anchor-6" 512 1276 basechar 0
AnchorPoint: "Anchor-5" 0 0 basechar 0
AnchorPoint: "Anchor-4" 512 0 basechar 0
LayerCount: 2
Fore
SplineSet
434 0 m 1,0,-1
 20 1276 l 1,1,-1
 262 1276 l 1,2,-1
 530 371 l 1,3,-1
 784 1276 l 1,4,-1
 1020 1276 l 1,5,-1
 610 0 l 1,6,-1
 434 0 l 1,0,-1
EndSplineSet
EndChar

StartChar: W
Encoding: 87 87 213
Width: 1024
GlyphClass: 2
Flags: W
AnchorPoint: "Anchor-8" 0 0 basechar 0
AnchorPoint: "Anchor-7" 0 0 basechar 0
AnchorPoint: "Anchor-6" 522 1276 basechar 0
AnchorPoint: "Anchor-5" 0 0 basechar 0
AnchorPoint: "Anchor-4" 512 0 basechar 0
LayerCount: 2
Fore
SplineSet
168 0 m 1,0,-1
 12 1276 l 1,1,-1
 236 1276 l 1,2,-1
 309 434 l 1,3,-1
 459 1171 l 1,4,-1
 606 1171 l 1,5,-1
 756 440 l 1,6,-1
 809 1276 l 1,7,-1
 1022 1276 l 1,8,-1
 870 0 l 1,9,-1
 690 0 l 1,10,-1
 522 776 l 1,11,-1
 352 0 l 1,12,-1
 168 0 l 1,0,-1
EndSplineSet
EndChar

StartChar: X
Encoding: 88 88 218
Width: 1024
GlyphClass: 2
Flags: W
AnchorPoint: "Anchor-8" 0 0 basechar 0
AnchorPoint: "Anchor-7" 0 0 basechar 0
AnchorPoint: "Anchor-6" 512 1276 basechar 0
AnchorPoint: "Anchor-5" 0 0 basechar 0
AnchorPoint: "Anchor-4" 512 0 basechar 0
LayerCount: 2
Fore
SplineSet
43 0 m 1,0,-1
 387 651 l 1,1,-1
 47 1276 l 1,2,-1
 297 1276 l 1,3,-1
 518 858 l 1,4,-1
 733 1276 l 1,5,-1
 971 1276 l 1,6,-1
 653 653 l 1,7,-1
 1012 0 l 1,8,-1
 754 0 l 1,9,-1
 520 438 l 1,10,-1
 293 0 l 1,11,-1
 43 0 l 1,0,-1
EndSplineSet
EndChar

StartChar: Y
Encoding: 89 89 219
Width: 1024
GlyphClass: 2
Flags: W
AnchorPoint: "Anchor-8" 0 0 basechar 0
AnchorPoint: "Anchor-7" 0 0 basechar 0
AnchorPoint: "Anchor-6" 512 1276 basechar 0
AnchorPoint: "Anchor-5" 0 0 basechar 0
AnchorPoint: "Anchor-4" 537 0 basechar 0
LayerCount: 2
Fore
SplineSet
412 0 m 1,0,-1
 412 504 l 1,1,-1
 18 1276 l 1,2,-1
 274 1276 l 1,3,-1
 537 760 l 1,4,-1
 770 1276 l 1,5,-1
 1018 1276 l 1,6,-1
 653 502 l 1,7,-1
 653 0 l 1,8,-1
 412 0 l 1,0,-1
EndSplineSet
EndChar

StartChar: Z
Encoding: 90 90 229
Width: 1024
GlyphClass: 2
Flags: W
AnchorPoint: "Anchor-8" 0 0 basechar 0
AnchorPoint: "Anchor-7" 0 0 basechar 0
AnchorPoint: "Anchor-6" 532 1276 basechar 0
AnchorPoint: "Anchor-5" 0 0 basechar 0
AnchorPoint: "Anchor-4" 545 0 basechar 0
LayerCount: 2
Fore
SplineSet
84 139 m 1,0,-1
 662 1077 l 1,1,-1
 106 1077 l 1,2,-1
 106 1276 l 1,3,-1
 944 1276 l 1,4,-1
 944 1137 l 1,5,-1
 377 197 l 1,6,-1
 876 197 l 2,7,8
 909 197 909 197 924.5 200.5 c 128,-1,9
 940 204 940 204 952 215 c 1,10,-1
 975 215 l 1,11,-1
 975 0 l 1,12,-1
 84 0 l 1,13,-1
 84 139 l 1,0,-1
EndSplineSet
EndChar

StartChar: U.i
Encoding: 65537 -1 234
Width: 1024
GlyphClass: 2
Flags: W
AnchorPoint: "Anchor-8" 854 1276 basechar 0
AnchorPoint: "Anchor-7" 0 0 basechar 0
AnchorPoint: "Anchor-6" 471 1276 basechar 0
AnchorPoint: "Anchor-5" 571 70 basechar 0
AnchorPoint: "Anchor-4" 459 0 basechar 0
LayerCount: 2
Fore
SplineSet
168.5 97.5 m 128,-1,1
 68 224 68 224 68 451 c 2,2,-1
 68 1276 l 1,3,-1
 290 1276 l 1,4,-1
 290 1253 l 1,5,6
 280 1241 280 1241 277 1227 c 128,-1,7
 274 1213 274 1213 274 1178 c 2,8,-1
 274 449 l 2,9,10
 274 308 274 308 316.5 235 c 128,-1,11
 359 162 359 162 461 162 c 0,12,13
 565 162 565 162 608 236 c 128,-1,14
 651 310 651 310 651 455 c 2,15,-1
 651 1276 l 1,16,-1
 853 1276 l 1,17,-1
 853 457 l 2,18,19
 853 215 853 215 748.5 93 c 128,-1,20
 644 -29 644 -29 459 -29 c 0,21,0
 269 -29 269 -29 168.5 97.5 c 128,-1,1
EndSplineSet
EndChar

StartChar: a
Encoding: 97 97 235
Width: 1024
GlyphClass: 2
Flags: W
AnchorPoint: "Anchor-8" 0 0 basechar 0
AnchorPoint: "Anchor-7" 0 0 basechar 0
AnchorPoint: "Anchor-6" 492 956 basechar 0
AnchorPoint: "Anchor-5" 750 0 basechar 0
AnchorPoint: "Anchor-4" 512 0 basechar 0
LayerCount: 2
Fore
SplineSet
791.5 893 m 128,-1,1
 905 799 905 799 905 582 c 2,2,-1
 905 0 l 1,3,-1
 686 0 l 1,4,-1
 686 86 l 1,5,6
 631 34 631 34 553.5 4.5 c 128,-1,7
 476 -25 476 -25 387 -25 c 0,8,9
 238 -25 238 -25 160 48.5 c 128,-1,10
 82 122 82 122 82 248 c 0,11,12
 82 350 82 350 146.5 422 c 128,-1,13
 211 494 211 494 332.5 531.5 c 128,-1,14
 454 569 454 569 623 569 c 2,15,-1
 693 569 l 1,16,17
 683 694 683 694 632 747.5 c 128,-1,18
 581 801 581 801 477 801 c 0,19,20
 411 801 411 801 340 766.5 c 128,-1,21
 269 732 269 732 209 670 c 1,22,-1
 92 821 l 1,23,24
 182 903 182 903 285.5 945 c 128,-1,25
 389 987 389 987 489 987 c 0,26,0
 678 987 678 987 791.5 893 c 128,-1,1
622 214 m 128,-1,28
 681 278 681 278 693 416 c 1,29,-1
 647 416 l 2,30,31
 471 416 471 416 390 378 c 128,-1,32
 309 340 309 340 309 258 c 0,33,34
 309 202 309 202 349.5 176 c 128,-1,35
 390 150 390 150 461 150 c 0,36,27
 563 150 563 150 622 214 c 128,-1,28
EndSplineSet
Substitution2: "Single Substitution lookup 28 subtable" ordfeminine
Substitution2: "'aalt' +MFkweTBmMG51cE9TW1cweDBuMKIwrzC7MLkA in +MOkwxjDzZYdbVwAA lookup 0 subtable" ordfeminine
EndChar

StartChar: aogonek
Encoding: 261 261 256
Width: 1024
GlyphClass: 2
Flags: W
AnchorPoint: "Anchor-8" 0 0 basechar 0
AnchorPoint: "Anchor-7" 0 0 basechar 0
AnchorPoint: "Anchor-6" 492 956 basechar 0
AnchorPoint: "Anchor-5" 750 0 basechar 0
AnchorPoint: "Anchor-4" 512 0 basechar 0
LayerCount: 2
Fore
SplineSet
847 -54 m 2,0,1
 782 -115 782 -115 763.5 -136 c 128,-1,2
 745 -157 745 -157 745 -176 c 0,3,4
 745 -191 745 -191 753 -200 c 128,-1,5
 761 -209 761 -209 776 -209 c 0,6,7
 800 -209 800 -209 825 -193.5 c 128,-1,8
 850 -178 850 -178 905 -129 c 1,9,-1
 905 -307 l 1,10,11
 863 -340 863 -340 820.5 -356.5 c 128,-1,12
 778 -373 778 -373 731 -373 c 0,13,14
 638 -373 638 -373 590.5 -332.5 c 128,-1,15
 543 -292 543 -292 543 -223 c 0,16,17
 543 -172 543 -172 573 -123.5 c 128,-1,18
 603 -75 603 -75 686 0 c 1,19,-1
 686 86 l 1,20,21
 631 34 631 34 553.5 4.5 c 128,-1,22
 476 -25 476 -25 387 -25 c 0,23,24
 238 -25 238 -25 160 48.5 c 128,-1,25
 82 122 82 122 82 248 c 0,26,27
 82 350 82 350 146.5 422 c 128,-1,28
 211 494 211 494 332.5 531.5 c 128,-1,29
 454 569 454 569 623 569 c 2,30,-1
 693 569 l 1,31,32
 683 694 683 694 632 747.5 c 128,-1,33
 581 801 581 801 477 801 c 0,34,35
 411 801 411 801 340 766.5 c 128,-1,36
 269 732 269 732 209 670 c 1,37,-1
 92 821 l 1,38,39
 182 903 182 903 285.5 945 c 128,-1,40
 389 987 389 987 489 987 c 0,41,42
 678 987 678 987 791.5 893 c 128,-1,43
 905 799 905 799 905 582 c 2,44,-1
 905 0 l 1,45,-1
 847 -54 l 2,0,1
622 214 m 128,-1,47
 681 278 681 278 693 416 c 1,48,-1
 647 416 l 2,49,50
 471 416 471 416 390 378 c 128,-1,51
 309 340 309 340 309 258 c 0,52,53
 309 202 309 202 349.5 176 c 128,-1,54
 390 150 390 150 461 150 c 0,55,46
 563 150 563 150 622 214 c 128,-1,47
EndSplineSet
EndChar

StartChar: ae
Encoding: 230 230 260
Width: 1024
GlyphClass: 2
Flags: W
LayerCount: 2
Fore
SplineSet
150 8.5 m 128,-1,1
 83 42 83 42 43.5 107.5 c 128,-1,2
 4 173 4 173 4 264 c 0,3,4
 4 361 4 361 55 436 c 128,-1,5
 106 511 106 511 199.5 554.5 c 128,-1,6
 293 598 293 598 418 602 c 1,7,8
 418 700 418 700 386.5 755.5 c 128,-1,9
 355 811 355 811 299 811 c 0,10,11
 216 811 216 811 147 698 c 1,12,-1
 35 842 l 1,13,14
 86 908 86 908 156 941.5 c 128,-1,15
 226 975 226 975 309 975 c 0,16,17
 369 975 369 975 432 940.5 c 128,-1,18
 495 906 495 906 530 858 c 1,19,20
 564 909 564 909 616 942 c 128,-1,21
 668 975 668 975 723 975 c 0,22,23
 869 975 869 975 940.5 864 c 128,-1,24
 1012 753 1012 753 1012 555 c 2,25,-1
 1012 455 l 1,26,-1
 606 438 l 1,27,-1
 606 365 l 2,28,29
 606 265 606 265 650 204 c 128,-1,30
 694 143 694 143 768 143 c 0,31,32
 850 143 850 143 911 248 c 1,33,-1
 1024 109 l 1,34,35
 970 44 970 44 902 9.5 c 128,-1,36
 834 -25 834 -25 758 -25 c 0,37,38
 689 -25 689 -25 628 8 c 128,-1,39
 567 41 567 41 524 100 c 1,40,41
 489 44 489 44 427 9.5 c 128,-1,42
 365 -25 365 -25 299 -25 c 0,43,0
 217 -25 217 -25 150 8.5 c 128,-1,1
848 614 m 1,44,45
 848 677 848 677 831.5 721.5 c 128,-1,46
 815 766 815 766 788 788.5 c 128,-1,47
 761 811 761 811 729 811 c 0,48,49
 692 811 692 811 664 783.5 c 128,-1,50
 636 756 636 756 621 709.5 c 128,-1,51
 606 663 606 663 606 608 c 1,52,-1
 848 614 l 1,44,45
382.5 175.5 m 128,-1,54
 408 201 408 201 416 258 c 128,-1,55
 424 315 424 315 424 430 c 1,56,57
 308 424 308 424 255.5 379.5 c 128,-1,58
 203 335 203 335 203 264 c 0,59,60
 203 208 203 208 231.5 179 c 128,-1,61
 260 150 260 150 303 150 c 0,62,53
 357 150 357 150 382.5 175.5 c 128,-1,54
EndSplineSet
EndChar

StartChar: b
Encoding: 98 98 262
Width: 1024
GlyphClass: 2
Flags: W
AnchorPoint: "Anchor-8" 0 0 basechar 0
AnchorPoint: "Anchor-7" 0 0 basechar 0
AnchorPoint: "Anchor-6" 553 956 basechar 0
AnchorPoint: "Anchor-5" 0 0 basechar 0
AnchorPoint: "Anchor-4" 553 0 basechar 0
LayerCount: 2
Fore
SplineSet
406 1 m 128,-1,1
 340 33 340 33 293 92 c 1,2,-1
 262 0 l 1,3,-1
 102 0 l 1,4,-1
 102 1382 l 1,5,-1
 348 1382 l 1,6,-1
 348 1359 l 1,7,8
 337 1347 337 1347 334 1332.5 c 128,-1,9
 331 1318 331 1318 332 1284 c 1,10,-1
 332 874 l 1,11,12
 376 923 376 923 434.5 950 c 128,-1,13
 493 977 493 977 553 977 c 0,14,15
 663 977 663 977 755 922.5 c 128,-1,16
 847 868 847 868 901.5 760 c 128,-1,17
 956 652 956 652 956 498 c 0,18,19
 956 330 956 330 897.5 210 c 128,-1,20
 839 90 839 90 744.5 29.5 c 128,-1,21
 650 -31 650 -31 545 -31 c 0,22,0
 472 -31 472 -31 406 1 c 128,-1,1
614.5 191 m 128,-1,24
 662 222 662 222 693.5 291 c 128,-1,25
 725 360 725 360 725 467 c 0,26,27
 725 613 725 613 671 702 c 128,-1,28
 617 791 617 791 510 791 c 0,29,30
 408 791 408 791 369 709.5 c 128,-1,31
 330 628 330 628 330 489 c 0,32,33
 330 317 330 317 378 238.5 c 128,-1,34
 426 160 426 160 516 160 c 0,35,23
 567 160 567 160 614.5 191 c 128,-1,24
EndSplineSet
EndChar

StartChar: uni0298
Encoding: 664 664 263
Width: 1024
GlyphClass: 2
Flags: W
AnchorPoint: "Anchor-8" 868 1180 basechar 0
AnchorPoint: "Anchor-7" 512 639 basechar 0
AnchorPoint: "Anchor-6" 515 659 basechar 0
AnchorPoint: "Anchor-5" 586 20 basechar 0
AnchorPoint: "Anchor-4" 518 0 basechar 0
LayerCount: 2
Fore
SplineSet
258.5 43.5 m 128,-1,1
 150 124 150 124 92.5 276.5 c 128,-1,2
 35 429 35 429 35 641 c 0,3,4
 35 850 35 850 92.5 1000 c 128,-1,5
 150 1150 150 1150 258.5 1229.5 c 128,-1,6
 367 1309 367 1309 518 1309 c 256,7,8
 669 1309 669 1309 777.5 1229.5 c 128,-1,9
 886 1150 886 1150 943.5 1000 c 128,-1,10
 1001 850 1001 850 1001 641 c 0,11,12
 1001 429 1001 429 943.5 276.5 c 128,-1,13
 886 124 886 124 777.5 43.5 c 128,-1,14
 669 -37 669 -37 518 -37 c 256,15,0
 367 -37 367 -37 258.5 43.5 c 128,-1,1
649.5 209.5 m 128,-1,17
 705 272 705 272 734.5 386.5 c 128,-1,18
 764 501 764 501 764 653 c 0,19,20
 764 794 764 794 734.5 900.5 c 128,-1,21
 705 1007 705 1007 649.5 1065.5 c 128,-1,22
 594 1124 594 1124 518 1124 c 0,23,24
 443 1124 443 1124 387 1065.5 c 128,-1,25
 331 1007 331 1007 301.5 900.5 c 128,-1,26
 272 794 272 794 272 653 c 0,27,28
 272 501 272 501 301.5 386.5 c 128,-1,29
 331 272 331 272 386.5 209.5 c 128,-1,30
 442 147 442 147 518 147 c 256,31,16
 594 147 594 147 649.5 209.5 c 128,-1,17
439 578 m 128,-1,33
 408 608 408 608 408 649 c 0,34,35
 408 693 408 693 438 721.5 c 128,-1,36
 468 750 468 750 515 750 c 0,37,38
 558 750 558 750 590 720 c 128,-1,39
 622 690 622 690 622 649 c 0,40,41
 622 609 622 609 590 578.5 c 128,-1,42
 558 548 558 548 515 548 c 0,43,32
 470 548 470 548 439 578 c 128,-1,33
EndSplineSet
EndChar

StartChar: c
Encoding: 99 99 264
Width: 1024
GlyphClass: 2
Flags: W
AnchorPoint: "Anchor-8" 0 0 basechar 0
AnchorPoint: "Anchor-7" 0 0 basechar 0
AnchorPoint: "Anchor-6" 553 956 basechar 0
AnchorPoint: "Anchor-5" 0 0 basechar 0
AnchorPoint: "Anchor-4" 553 0 basechar 0
LayerCount: 2
Fore
SplineSet
688.5 194 m 128,-1,1
 751 224 751 224 805 291 c 1,2,-1
 938 137 l 1,3,4
 861 50 861 50 764.5 8.5 c 128,-1,5
 668 -33 668 -33 561 -33 c 0,6,7
 421 -33 421 -33 311 32 c 128,-1,8
 201 97 201 97 139.5 211.5 c 128,-1,9
 78 326 78 326 78 469 c 0,10,11
 78 611 78 611 139.5 727 c 128,-1,12
 201 843 201 843 311.5 910 c 128,-1,13
 422 977 422 977 563 977 c 0,14,15
 681 977 681 977 784 929 c 128,-1,16
 887 881 887 881 946 793 c 1,17,-1
 818 643 l 1,18,-1
 817 641 l 2,19,20
 816 641 816 641 816 641.5 c 128,-1,21
 816 642 816 642 816 642 c 1,22,23
 774 715 774 715 714 750.5 c 128,-1,24
 654 786 654 786 563 786 c 0,25,26
 493 786 493 786 435.5 746 c 128,-1,27
 378 706 378 706 344.5 633 c 128,-1,28
 311 560 311 560 311 465 c 0,29,30
 311 374 311 374 342.5 306 c 128,-1,31
 374 238 374 238 431 201 c 128,-1,32
 488 164 488 164 561 164 c 0,33,0
 626 164 626 164 688.5 194 c 128,-1,1
789 645 m 2,34,35
 789 648 789 648 791 648 c 0,36,37
 797 648 797 648 811 634 c 1,38,-1
 807 629 l 1,39,-1
 789 644 l 1,40,-1
 789 645 l 2,34,35
823 627 m 0,42,43
 823 626 823 626 822 626 c 0,44,45
 819 626 819 626 811 634 c 1,46,-1
 817 641 l 1,47,41
 823 629 823 629 823 627 c 0,42,43
EndSplineSet
EndChar

StartChar: ccedilla
Encoding: 231 231 267
Width: 1024
GlyphClass: 2
Flags: W
AnchorPoint: "Anchor-8" 0 0 basechar 0
AnchorPoint: "Anchor-7" 0 0 basechar 0
AnchorPoint: "Anchor-6" 553 956 basechar 0
AnchorPoint: "Anchor-5" 0 0 basechar 0
AnchorPoint: "Anchor-4" 553 -389 basechar 0
LayerCount: 2
Fore
SplineSet
688.5 194 m 128,-1,1
 751 224 751 224 805 291 c 1,2,-1
 938 137 l 1,3,4
 823 7 823 7 659 -24 c 1,5,-1
 653 -63 l 1,6,7
 730 -71 730 -71 771.5 -109.5 c 128,-1,8
 813 -148 813 -148 813 -209 c 0,9,10
 813 -260 813 -260 783.5 -308.5 c 128,-1,11
 754 -357 754 -357 694.5 -388.5 c 128,-1,12
 635 -420 635 -420 551 -420 c 0,13,14
 408 -420 408 -420 293 -305 c 1,15,-1
 369 -172 l 1,16,17
 427 -233 427 -233 474.5 -257 c 128,-1,18
 522 -281 522 -281 576 -281 c 0,19,20
 622 -281 622 -281 646 -266.5 c 128,-1,21
 670 -252 670 -252 670 -227 c 0,22,23
 670 -204 670 -204 648 -193 c 128,-1,24
 626 -182 626 -182 573 -182 c 2,25,-1
 473 -182 l 1,26,-1
 494 -29 l 1,27,28
 371 -14 371 -14 276.5 54 c 128,-1,29
 182 122 182 122 130 229.5 c 128,-1,30
 78 337 78 337 78 469 c 0,31,32
 78 611 78 611 139.5 727 c 128,-1,33
 201 843 201 843 311.5 910 c 128,-1,34
 422 977 422 977 563 977 c 0,35,36
 681 977 681 977 784 929 c 128,-1,37
 887 881 887 881 946 793 c 1,38,-1
 818 643 l 1,39,-1
 817 641 l 2,40,41
 816 641 816 641 816 641.5 c 128,-1,42
 816 642 816 642 816 642 c 1,43,44
 774 715 774 715 714 750.5 c 128,-1,45
 654 786 654 786 563 786 c 0,46,47
 493 786 493 786 435.5 746 c 128,-1,48
 378 706 378 706 344.5 633 c 128,-1,49
 311 560 311 560 311 465 c 0,50,51
 311 374 311 374 342.5 306 c 128,-1,52
 374 238 374 238 431 201 c 128,-1,53
 488 164 488 164 561 164 c 0,54,0
 626 164 626 164 688.5 194 c 128,-1,1
789 645 m 2,55,56
 789 648 789 648 791 648 c 0,57,58
 797 648 797 648 811 634 c 1,59,-1
 807 629 l 1,60,-1
 789 644 l 1,61,-1
 789 645 l 2,55,56
823 627 m 0,63,64
 823 626 823 626 822 626 c 0,65,66
 819 626 819 626 811 634 c 1,67,-1
 817 641 l 1,68,62
 823 629 823 629 823 627 c 0,63,64
EndSplineSet
EndChar

StartChar: uni1E09
Encoding: 7689 7689 268
Width: 1024
GlyphClass: 2
Flags: W
AnchorPoint: "Anchor-8" 0 0 basechar 0
AnchorPoint: "Anchor-7" 0 0 basechar 0
AnchorPoint: "Anchor-6" 553 1339 basechar 0
AnchorPoint: "Anchor-5" 0 0 basechar 0
AnchorPoint: "Anchor-4" 553 -389 basechar 0
LayerCount: 2
Fore
SplineSet
717 1348 m 1,0,-1
 502 1059 l 1,1,-1
 414 1110 l 1,2,-1
 578 1448 l 1,3,-1
 717 1348 l 1,0,-1
688.5 194 m 128,-1,5
 751 224 751 224 805 291 c 1,6,-1
 938 137 l 1,7,8
 823 7 823 7 659 -24 c 1,9,-1
 653 -63 l 1,10,11
 730 -71 730 -71 771.5 -109.5 c 128,-1,12
 813 -148 813 -148 813 -209 c 0,13,14
 813 -260 813 -260 783.5 -308.5 c 128,-1,15
 754 -357 754 -357 694.5 -388.5 c 128,-1,16
 635 -420 635 -420 551 -420 c 0,17,18
 408 -420 408 -420 293 -305 c 1,19,-1
 369 -172 l 1,20,21
 427 -233 427 -233 474.5 -257 c 128,-1,22
 522 -281 522 -281 576 -281 c 0,23,24
 622 -281 622 -281 646 -266.5 c 128,-1,25
 670 -252 670 -252 670 -227 c 0,26,27
 670 -204 670 -204 648 -193 c 128,-1,28
 626 -182 626 -182 573 -182 c 2,29,-1
 473 -182 l 1,30,-1
 494 -29 l 1,31,32
 371 -14 371 -14 276.5 54 c 128,-1,33
 182 122 182 122 130 229.5 c 128,-1,34
 78 337 78 337 78 469 c 0,35,36
 78 611 78 611 139.5 727 c 128,-1,37
 201 843 201 843 311.5 910 c 128,-1,38
 422 977 422 977 563 977 c 0,39,40
 681 977 681 977 784 929 c 128,-1,41
 887 881 887 881 946 793 c 1,42,-1
 818 643 l 1,43,-1
 817 641 l 2,44,45
 816 641 816 641 816 641.5 c 128,-1,46
 816 642 816 642 816 642 c 1,47,48
 774 715 774 715 714 750.5 c 128,-1,49
 654 786 654 786 563 786 c 0,50,51
 493 786 493 786 435.5 746 c 128,-1,52
 378 706 378 706 344.5 633 c 128,-1,53
 311 560 311 560 311 465 c 0,54,55
 311 374 311 374 342.5 306 c 128,-1,56
 374 238 374 238 431 201 c 128,-1,57
 488 164 488 164 561 164 c 0,58,4
 626 164 626 164 688.5 194 c 128,-1,5
789 645 m 2,59,60
 789 648 789 648 791 648 c 0,61,62
 797 648 797 648 811 634 c 1,63,-1
 807 629 l 1,64,-1
 789 644 l 1,65,-1
 789 645 l 2,59,60
823 627 m 0,67,68
 823 626 823 626 822 626 c 0,69,70
 819 626 819 626 811 634 c 1,71,-1
 817 641 l 1,72,66
 823 629 823 629 823 627 c 0,67,68
EndSplineSet
EndChar

StartChar: d
Encoding: 100 100 271
Width: 1024
GlyphClass: 2
Flags: W
AnchorPoint: "Anchor-8" 967 956 basechar 0
AnchorPoint: "Anchor-7" 741 1155 basechar 0
AnchorPoint: "Anchor-6" 512 956 basechar 0
AnchorPoint: "Anchor-5" 0 0 basechar 0
AnchorPoint: "Anchor-4" 512 0 basechar 0
LayerCount: 2
Fore
SplineSet
262 24.5 m 128,-1,1
 169 80 169 80 115 191.5 c 128,-1,2
 61 303 61 303 61 463 c 0,3,4
 61 619 61 619 116.5 736 c 128,-1,5
 172 853 172 853 265 915 c 128,-1,6
 358 977 358 977 467 977 c 0,7,8
 523 977 523 977 585 950 c 128,-1,9
 647 923 647 923 688 881 c 1,10,-1
 688 1382 l 1,11,-1
 938 1382 l 1,12,-1
 938 1359 l 1,13,14
 927 1347 927 1347 924 1332.5 c 128,-1,15
 921 1318 921 1318 922 1284 c 1,16,-1
 918 115 l 2,17,18
 918 80 918 80 922 53.5 c 128,-1,19
 926 27 926 27 940 0 c 1,20,-1
 717 0 l 1,21,22
 703 26 703 26 700.5 49 c 128,-1,23
 698 72 698 72 698 115 c 1,24,25
 668 43 668 43 603 6 c 128,-1,26
 538 -31 538 -31 469 -31 c 0,27,0
 355 -31 355 -31 262 24.5 c 128,-1,1
690 489 m 0,29,30
 690 627 690 627 650 709 c 128,-1,31
 610 791 610 791 508 791 c 0,32,33
 400 791 400 791 346.5 701 c 128,-1,34
 293 611 293 611 293 467 c 0,35,36
 293 360 293 360 324.5 291 c 128,-1,37
 356 222 356 222 403.5 191 c 128,-1,38
 451 160 451 160 502 160 c 0,39,28
 690 160 690 160 690 489 c 0,29,30
EndSplineSet
EndChar

StartChar: eth
Encoding: 240 240 272
Width: 1024
GlyphClass: 2
Flags: W
LayerCount: 2
Fore
SplineSet
294 31 m 128,-1,1
 192 95 192 95 134 207 c 128,-1,2
 76 319 76 319 76 457 c 0,3,4
 76 593 76 593 129.5 709.5 c 128,-1,5
 183 826 183 826 279 895.5 c 128,-1,6
 375 965 375 965 496 965 c 0,7,8
 546 965 546 965 601.5 944.5 c 128,-1,9
 657 924 657 924 694 889 c 1,10,11
 667 945 667 945 640 991 c 128,-1,12
 613 1037 613 1037 569 1087 c 1,13,-1
 315 1016 l 1,14,-1
 254 1178 l 1,15,-1
 424 1221 l 1,16,17
 340 1284 340 1284 227 1346 c 1,18,-1
 473 1401 l 1,19,20
 567 1340 567 1340 633 1282 c 1,21,-1
 868 1343 l 1,22,-1
 926 1190 l 1,23,-1
 762 1147 l 1,24,25
 963 882 963 882 963 514 c 0,26,27
 963 350 963 350 913 227 c 128,-1,28
 863 104 863 104 764 35.5 c 128,-1,29
 665 -33 665 -33 522 -33 c 0,30,0
 396 -33 396 -33 294 31 c 128,-1,1
632 195 m 128,-1,32
 677 230 677 230 703 301 c 128,-1,33
 729 372 729 372 729 475 c 256,34,35
 729 578 729 578 701 645 c 128,-1,36
 673 712 673 712 626.5 743 c 128,-1,37
 580 774 580 774 524 774 c 0,38,39
 464 774 464 774 416.5 739 c 128,-1,40
 369 704 369 704 342 636.5 c 128,-1,41
 315 569 315 569 315 475 c 0,42,43
 315 384 315 384 341 312.5 c 128,-1,44
 367 241 367 241 415.5 200.5 c 128,-1,45
 464 160 464 160 528 160 c 0,46,31
 587 160 587 160 632 195 c 128,-1,32
EndSplineSet
EndChar

StartChar: dcaron
Encoding: 271 271 273
Width: 1024
GlyphClass: 2
Flags: W
LayerCount: 2
Fore
SplineSet
998 1356.5 m 128,-1,1
 1024 1329 1024 1329 1024 1288 c 0,2,3
 1024 1262 1024 1262 1012 1233 c 2,4,-1
 883 938 l 1,5,-1
 786 989 l 1,6,-1
 811 1063 l 2,7,8
 823 1098 823 1098 823 1129 c 0,9,10
 823 1146 823 1146 817 1182 c 0,11,12
 809 1224 809 1224 809 1253 c 0,13,14
 809 1314 809 1314 842 1349 c 128,-1,15
 875 1384 875 1384 926 1384 c 0,16,0
 972 1384 972 1384 998 1356.5 c 128,-1,1
181 24.5 m 128,-1,18
 107 80 107 80 63.5 191.5 c 128,-1,19
 20 303 20 303 20 463 c 0,20,21
 20 619 20 619 64.5 735.5 c 128,-1,22
 109 852 109 852 183.5 914.5 c 128,-1,23
 258 977 258 977 344 977 c 0,24,25
 397 977 397 977 443 951.5 c 128,-1,26
 489 926 489 926 524 881 c 1,27,-1
 524 1382 l 1,28,-1
 741 1382 l 1,29,30
 741 1370 741 1370 732 1348 c 0,31,32
 725 1330 725 1330 721 1313.5 c 128,-1,33
 717 1297 717 1297 717 1272 c 2,34,-1
 713 115 l 2,35,36
 713 74 713 74 731 0 c 1,37,-1
 555 0 l 1,38,39
 544 8 544 8 539.5 25 c 128,-1,40
 535 42 535 42 535 59 c 2,41,-1
 535 88 l 1,42,43
 509 32 509 32 458.5 0.5 c 128,-1,44
 408 -31 408 -31 346 -31 c 0,45,17
 255 -31 255 -31 181 24.5 c 128,-1,18
526 489 m 0,47,48
 526 627 526 627 495 709 c 128,-1,49
 464 791 464 791 385 791 c 0,50,51
 300 791 300 791 255.5 705.5 c 128,-1,52
 211 620 211 620 211 467 c 0,53,54
 211 359 211 359 236 290.5 c 128,-1,55
 261 222 261 222 299 191 c 128,-1,56
 337 160 337 160 379 160 c 0,57,46
 526 160 526 160 526 489 c 0,47,48
EndSplineSet
EndChar

StartChar: dcroat
Encoding: 273 273 274
Width: 1024
GlyphClass: 2
Flags: W
AnchorPoint: "Anchor-8" 967 956 basechar 0
AnchorPoint: "Anchor-7" 741 1155 basechar 0
AnchorPoint: "Anchor-6" 512 956 basechar 0
AnchorPoint: "Anchor-5" 0 0 basechar 0
AnchorPoint: "Anchor-4" 512 0 basechar 0
LayerCount: 2
Fore
SplineSet
921 1082 m 1,0,-1
 918 115 l 2,1,2
 918 80 918 80 922 53.5 c 128,-1,3
 926 27 926 27 940 0 c 1,4,-1
 717 0 l 1,5,6
 703 26 703 26 700.5 49 c 128,-1,7
 698 72 698 72 698 115 c 1,8,9
 668 43 668 43 603 6 c 128,-1,10
 538 -31 538 -31 469 -31 c 0,11,12
 355 -31 355 -31 262 24.5 c 128,-1,13
 169 80 169 80 115 191.5 c 128,-1,14
 61 303 61 303 61 463 c 0,15,16
 61 619 61 619 116.5 736 c 128,-1,17
 172 853 172 853 265 915 c 128,-1,18
 358 977 358 977 467 977 c 0,19,20
 523 977 523 977 585 950 c 128,-1,21
 647 923 647 923 688 881 c 1,22,-1
 688 1082 l 1,23,-1
 458 1082 l 1,24,-1
 458 1227 l 1,25,-1
 688 1227 l 1,26,-1
 688 1382 l 1,27,-1
 938 1382 l 1,28,-1
 938 1359 l 1,29,30
 927 1347 927 1347 924 1332.5 c 128,-1,31
 921 1318 921 1318 922 1284 c 1,32,-1
 922 1227 l 1,33,-1
 1022 1227 l 1,34,-1
 1022 1082 l 1,35,-1
 921 1082 l 1,0,-1
690 489 m 0,37,38
 690 627 690 627 650 709 c 128,-1,39
 610 791 610 791 508 791 c 0,40,41
 400 791 400 791 346.5 701 c 128,-1,42
 293 611 293 611 293 467 c 0,43,44
 293 360 293 360 324.5 291 c 128,-1,45
 356 222 356 222 403.5 191 c 128,-1,46
 451 160 451 160 502 160 c 0,47,36
 690 160 690 160 690 489 c 0,37,38
EndSplineSet
EndChar

StartChar: e
Encoding: 101 101 277
Width: 1024
GlyphClass: 2
Flags: W
AnchorPoint: "Anchor-8" 0 0 basechar 0
AnchorPoint: "Anchor-7" 0 0 basechar 0
AnchorPoint: "Anchor-6" 528 956 basechar 0
AnchorPoint: "Anchor-5" 616 20 basechar 0
AnchorPoint: "Anchor-4" 532 0 basechar 0
LayerCount: 2
Fore
SplineSet
307 27 m 128,-1,1
 199 87 199 87 137.5 199.5 c 128,-1,2
 76 312 76 312 76 465 c 0,3,4
 76 620 76 620 134 736 c 128,-1,5
 192 852 192 852 295 914.5 c 128,-1,6
 398 977 398 977 528 977 c 0,7,8
 643 977 643 977 735.5 923.5 c 128,-1,9
 828 870 828 870 882 764.5 c 128,-1,10
 936 659 936 659 936 510 c 0,11,12
 936 486 936 486 932 442 c 2,13,-1
 930 414 l 1,14,-1
 303 414 l 1,15,16
 318 283 318 283 385 216.5 c 128,-1,17
 452 150 452 150 545 150 c 0,18,19
 611 150 611 150 678 180.5 c 128,-1,20
 745 211 745 211 788 266 c 1,21,-1
 915 139 l 1,22,23
 770 -33 770 -33 553 -33 c 0,24,0
 415 -33 415 -33 307 27 c 128,-1,1
707 582 m 1,25,26
 707 642 707 642 683.5 693 c 128,-1,27
 660 744 660 744 616.5 774.5 c 128,-1,28
 573 805 573 805 516 805 c 0,29,30
 432 805 432 805 377 744.5 c 128,-1,31
 322 684 322 684 311 582 c 1,32,-1
 707 582 l 1,25,26
EndSplineSet
EndChar

StartChar: uni1E1D
Encoding: 7709 7709 281
Width: 1024
GlyphClass: 2
Flags: W
AnchorPoint: "Anchor-8" 0 0 basechar 0
AnchorPoint: "Anchor-7" 0 0 basechar 0
AnchorPoint: "Anchor-6" 528 1225 basechar 0
AnchorPoint: "Anchor-5" 616 20 basechar 0
AnchorPoint: "Anchor-4" 532 -389 basechar 0
LayerCount: 2
Fore
SplineSet
348 1141 m 128,-1,1
 269 1197 269 1197 219 1303 c 1,2,-1
 362 1368 l 1,3,4
 392 1289 392 1289 432.5 1253 c 128,-1,5
 473 1217 473 1217 528 1217 c 0,6,7
 584 1217 584 1217 623.5 1253 c 128,-1,8
 663 1289 663 1289 694 1368 c 1,9,-1
 838 1303 l 1,10,11
 788 1197 788 1197 708.5 1141 c 128,-1,12
 629 1085 629 1085 528 1085 c 256,13,0
 427 1085 427 1085 348 1141 c 128,-1,1
932 442 m 2,15,-1
 930 414 l 1,16,-1
 303 414 l 1,17,18
 318 283 318 283 385 216.5 c 128,-1,19
 452 150 452 150 545 150 c 0,20,21
 611 150 611 150 678 180.5 c 128,-1,22
 745 211 745 211 788 266 c 1,23,-1
 915 139 l 1,24,25
 798 1 798 1 637 -26 c 1,26,-1
 632 -63 l 1,27,28
 709 -71 709 -71 750.5 -109.5 c 128,-1,29
 792 -148 792 -148 792 -209 c 0,30,31
 792 -260 792 -260 762.5 -308.5 c 128,-1,32
 733 -357 733 -357 673.5 -388.5 c 128,-1,33
 614 -420 614 -420 530 -420 c 0,34,35
 387 -420 387 -420 272 -305 c 1,36,-1
 348 -172 l 1,37,38
 406 -233 406 -233 453.5 -257 c 128,-1,39
 501 -281 501 -281 555 -281 c 0,40,41
 601 -281 601 -281 625 -266.5 c 128,-1,42
 649 -252 649 -252 649 -227 c 0,43,44
 649 -204 649 -204 627 -193 c 128,-1,45
 605 -182 605 -182 552 -182 c 2,46,-1
 452 -182 l 1,47,-1
 473 -28 l 1,48,49
 356 -11 356 -11 266.5 52.5 c 128,-1,50
 177 116 177 116 126.5 221.5 c 128,-1,51
 76 327 76 327 76 465 c 0,52,53
 76 620 76 620 134 736 c 128,-1,54
 192 852 192 852 295 914.5 c 128,-1,55
 398 977 398 977 528 977 c 0,56,57
 643 977 643 977 735.5 923.5 c 128,-1,58
 828 870 828 870 882 764.5 c 128,-1,59
 936 659 936 659 936 510 c 0,60,14
 936 486 936 486 932 442 c 2,15,-1
707 582 m 1,61,62
 707 642 707 642 683.5 693 c 128,-1,63
 660 744 660 744 616.5 774.5 c 128,-1,64
 573 805 573 805 516 805 c 0,65,66
 432 805 432 805 377 744.5 c 128,-1,67
 322 684 322 684 311 582 c 1,68,-1
 707 582 l 1,61,62
EndSplineSet
EndChar

StartChar: eogonek
Encoding: 281 281 298
Width: 1024
GlyphClass: 2
Flags: W
AnchorPoint: "Anchor-8" 0 0 basechar 0
AnchorPoint: "Anchor-7" 0 0 basechar 0
AnchorPoint: "Anchor-6" 528 956 basechar 0
AnchorPoint: "Anchor-5" 616 20 basechar 0
AnchorPoint: "Anchor-4" 532 0 basechar 0
LayerCount: 2
Fore
SplineSet
932 442 m 2,1,-1
 930 414 l 1,2,-1
 303 414 l 1,3,4
 318 283 318 283 385 216.5 c 128,-1,5
 452 150 452 150 545 150 c 0,6,7
 611 150 611 150 678 180.5 c 128,-1,8
 745 211 745 211 788 266 c 1,9,-1
 915 139 l 1,10,11
 833 42 833 42 729 0 c 1,12,-1
 905 0 l 1,13,-1
 847 -54 l 2,14,15
 782 -115 782 -115 763.5 -136 c 128,-1,16
 745 -157 745 -157 745 -176 c 0,17,18
 745 -191 745 -191 753 -200 c 128,-1,19
 761 -209 761 -209 776 -209 c 0,20,21
 800 -209 800 -209 825 -193.5 c 128,-1,22
 850 -178 850 -178 905 -129 c 1,23,-1
 905 -307 l 1,24,25
 863 -340 863 -340 820.5 -356.5 c 128,-1,26
 778 -373 778 -373 731 -373 c 0,27,28
 638 -373 638 -373 590.5 -332.5 c 128,-1,29
 543 -292 543 -292 543 -223 c 0,30,31
 543 -175 543 -175 568.5 -130.5 c 128,-1,32
 594 -86 594 -86 663 -21 c 1,33,34
 611 -33 611 -33 553 -33 c 0,35,36
 415 -33 415 -33 307 27 c 128,-1,37
 199 87 199 87 137.5 199.5 c 128,-1,38
 76 312 76 312 76 465 c 0,39,40
 76 620 76 620 134 736 c 128,-1,41
 192 852 192 852 295 914.5 c 128,-1,42
 398 977 398 977 528 977 c 0,43,44
 643 977 643 977 735.5 923.5 c 128,-1,45
 828 870 828 870 882 764.5 c 128,-1,46
 936 659 936 659 936 510 c 0,47,0
 936 486 936 486 932 442 c 2,1,-1
707 582 m 1,48,49
 707 642 707 642 683.5 693 c 128,-1,50
 660 744 660 744 616.5 774.5 c 128,-1,51
 573 805 573 805 516 805 c 0,52,53
 432 805 432 805 377 744.5 c 128,-1,54
 322 684 322 684 311 582 c 1,55,-1
 707 582 l 1,48,49
EndSplineSet
EndChar

StartChar: uni029A
Encoding: 666 666 299
Width: 1024
GlyphClass: 2
Flags: W
LayerCount: 2
Fore
SplineSet
243.5 3 m 128,-1,1
 151 41 151 41 105 108.5 c 128,-1,2
 59 176 59 176 59 264 c 0,3,4
 59 349 59 349 105.5 409 c 128,-1,5
 152 469 152 469 236 506 c 1,6,7
 167 542 167 542 132.5 599 c 128,-1,8
 98 656 98 656 98 727 c 0,9,10
 98 792 98 792 143.5 850.5 c 128,-1,11
 189 909 189 909 273.5 945 c 128,-1,12
 358 981 358 981 469 981 c 0,13,14
 613 981 613 981 725 918 c 128,-1,15
 837 855 837 855 899 741 c 128,-1,16
 961 627 961 627 961 477 c 0,17,18
 961 322 961 322 900.5 206 c 128,-1,19
 840 90 840 90 728.5 27.5 c 128,-1,20
 617 -35 617 -35 469 -35 c 0,21,0
 336 -35 336 -35 243.5 3 c 128,-1,1
683 231 m 128,-1,23
 750 310 750 310 750 477 c 0,24,25
 750 633 750 633 685.5 713 c 128,-1,26
 621 793 621 793 467 793 c 0,27,28
 422 793 422 793 390 775.5 c 128,-1,29
 358 758 358 758 342 731 c 128,-1,30
 326 704 326 704 326 674 c 0,31,32
 326 631 326 631 356.5 600 c 128,-1,33
 387 569 387 569 440 569 c 0,34,35
 512 569 512 569 559 575 c 1,36,-1
 559 403 l 1,37,38
 498 408 498 408 442 408 c 0,39,40
 390 408 390 408 354 391.5 c 128,-1,41
 318 375 318 375 299.5 348 c 128,-1,42
 281 321 281 321 281 289 c 0,43,44
 281 254 281 254 303.5 222.5 c 128,-1,45
 326 191 326 191 369.5 171.5 c 128,-1,46
 413 152 413 152 475 152 c 0,47,22
 616 152 616 152 683 231 c 128,-1,23
EndSplineSet
EndChar

StartChar: uni0259
Encoding: 601 601 301
Width: 1024
GlyphClass: 2
Flags: W
AnchorPoint: "Anchor-8" 0 0 basechar 0
AnchorPoint: "Anchor-7" 0 0 basechar 0
AnchorPoint: "Anchor-6" 492 956 basechar 0
AnchorPoint: "Anchor-5" 408 936 basechar 0
AnchorPoint: "Anchor-4" 496 0 basechar 0
LayerCount: 2
Fore
SplineSet
717 929 m 128,-1,1
 825 869 825 869 886.5 756.5 c 128,-1,2
 948 644 948 644 948 491 c 0,3,4
 948 336 948 336 890 220 c 128,-1,5
 832 104 832 104 729 41.5 c 128,-1,6
 626 -21 626 -21 496 -21 c 0,7,8
 381 -21 381 -21 288.5 32.5 c 128,-1,9
 196 86 196 86 142 191.5 c 128,-1,10
 88 297 88 297 88 446 c 0,11,12
 88 470 88 470 92 514 c 2,13,-1
 94 542 l 1,14,-1
 721 542 l 1,15,16
 706 673 706 673 639 739.5 c 128,-1,17
 572 806 572 806 479 806 c 0,18,19
 413 806 413 806 346 775.5 c 128,-1,20
 279 745 279 745 236 690 c 1,21,-1
 109 817 l 1,22,23
 254 989 254 989 471 989 c 0,24,0
 609 989 609 989 717 929 c 128,-1,1
317 374 m 1,25,26
 317 314 317 314 340.5 263 c 128,-1,27
 364 212 364 212 407.5 181.5 c 128,-1,28
 451 151 451 151 508 151 c 0,29,30
 592 151 592 151 647 211.5 c 128,-1,31
 702 272 702 272 713 374 c 1,32,-1
 317 374 l 1,25,26
EndSplineSet
EndChar

StartChar: f
Encoding: 102 102 303
Width: 1024
GlyphClass: 2
Flags: W
LayerCount: 2
Fore
SplineSet
904 1120 m 1,0,-1
 903 1118 l 1,1,-1
 902 1119 l 1,2,3
 839 1176 839 1176 796 1196.5 c 128,-1,4
 753 1217 753 1217 698 1217 c 0,5,6
 604 1217 604 1217 556 1161 c 128,-1,7
 508 1105 508 1105 508 995 c 2,8,-1
 508 956 l 1,9,-1
 801 956 l 1,10,-1
 801 774 l 1,11,-1
 508 774 l 1,12,-1
 508 0 l 1,13,-1
 285 0 l 1,14,-1
 285 774 l 1,15,-1
 78 774 l 1,16,-1
 78 956 l 1,17,-1
 285 956 l 1,18,-1
 285 993 l 2,19,20
 285 1121 285 1121 338 1212.5 c 128,-1,21
 391 1304 391 1304 481 1351.5 c 128,-1,22
 571 1399 571 1399 680 1399 c 0,23,24
 864 1399 864 1399 997 1266 c 1,25,-1
 904 1120 l 1,0,-1
875 1119 m 2,26,27
 875 1122 875 1122 878 1122 c 256,28,29
 881 1122 881 1122 899 1113 c 1,30,-1
 894 1104 l 1,31,-1
 875 1117 l 1,32,-1
 875 1119 l 2,26,27
914 1106 m 1,34,35
 914 1106 914 1106 899 1113 c 1,36,-1
 903 1118 l 1,37,33
 914 1108 914 1108 914 1106 c 1,34,35
EndSplineSet
EndChar

StartChar: g
Encoding: 103 103 304
Width: 1024
GlyphClass: 2
Flags: W
AnchorPoint: "Anchor-8" 0 0 basechar 0
AnchorPoint: "Anchor-7" 0 0 basechar 0
AnchorPoint: "Anchor-6" 481 956 basechar 0
AnchorPoint: "Anchor-5" 0 0 basechar 0
AnchorPoint: "Anchor-4" 492 -340 basechar 0
LayerCount: 2
Fore
SplineSet
928 -37 m 0,1,2
 928 -124 928 -124 878.5 -196 c 128,-1,3
 829 -268 829 -268 727.5 -311 c 128,-1,4
 626 -354 626 -354 477 -354 c 0,5,6
 292 -354 292 -354 199 -292 c 128,-1,7
 106 -230 106 -230 106 -119 c 0,8,9
 106 -62 106 -62 134.5 -11 c 128,-1,10
 163 40 163 40 217 74 c 1,11,12
 129 124 129 124 129 221 c 0,13,14
 129 277 129 277 158 319.5 c 128,-1,15
 187 362 187 362 240 398 c 1,16,17
 186 446 186 446 155.5 512 c 128,-1,18
 125 578 125 578 125 651 c 0,19,20
 125 744 125 744 172.5 822.5 c 128,-1,21
 220 901 220 901 300 947 c 128,-1,22
 380 993 380 993 475 993 c 0,23,24
 536 993 536 993 591.5 973.5 c 128,-1,25
 647 954 647 954 693 918 c 1,26,27
 744 947 744 947 807.5 963.5 c 128,-1,28
 871 980 871 980 937 980 c 0,29,30
 958 980 958 980 969 979 c 1,31,-1
 993 805 l 1,32,33
 946 816 946 816 892 816 c 0,34,35
 831 816 831 816 789 803 c 1,36,37
 825 731 825 731 825 651 c 0,38,39
 825 559 825 559 778 480 c 128,-1,40
 731 401 731 401 650.5 355 c 128,-1,41
 570 309 570 309 475 309 c 0,42,43
 402 309 402 309 333 339 c 1,44,45
 321 325 321 325 316 313 c 128,-1,46
 311 301 311 301 311 285 c 0,47,48
 311 248 311 248 380.5 228.5 c 128,-1,49
 450 209 450 209 618 209 c 0,50,0
 928 209 928 209 928 -37 c 0,1,2
402.5 786 m 128,-1,52
 369 765 369 765 349.5 729 c 128,-1,53
 330 693 330 693 330 651 c 256,54,55
 330 609 330 609 349.5 573.5 c 128,-1,56
 369 538 369 538 402.5 517 c 128,-1,57
 436 496 436 496 475 496 c 0,58,59
 515 496 515 496 548.5 516.5 c 128,-1,60
 582 537 582 537 601.5 573 c 128,-1,61
 621 609 621 609 621 651 c 256,62,63
 621 693 621 693 601.5 729 c 128,-1,64
 582 765 582 765 548.5 786 c 128,-1,65
 515 807 515 807 475 807 c 0,66,51
 436 807 436 807 402.5 786 c 128,-1,52
661.5 -152 m 128,-1,68
 717 -120 717 -120 717 -66 c 0,69,70
 717 -35 717 -35 703 -16.5 c 128,-1,71
 689 2 689 2 654 11 c 128,-1,72
 619 20 619 20 555 20 c 0,73,74
 419 20 419 20 340 34 c 1,75,76
 314 10 314 10 302.5 -13.5 c 128,-1,77
 291 -37 291 -37 291 -70 c 0,78,79
 291 -128 291 -128 348.5 -156 c 128,-1,80
 406 -184 406 -184 508 -184 c 0,81,67
 606 -184 606 -184 661.5 -152 c 128,-1,68
EndSplineSet
EndChar

StartChar: h
Encoding: 104 104 311
Width: 1024
GlyphClass: 2
Flags: W
AnchorPoint: "Anchor-8" 0 0 basechar 0
AnchorPoint: "Anchor-7" 283 1135 basechar 0
AnchorPoint: "Anchor-6" 242 1382 basechar 0
AnchorPoint: "Anchor-5" 0 0 basechar 0
AnchorPoint: "Anchor-4" 512 0 basechar 0
LayerCount: 2
Fore
SplineSet
123 1382 m 1,0,-1
 370 1382 l 1,1,-1
 370 1359 l 1,2,3
 359 1347 359 1347 356 1332.5 c 128,-1,4
 353 1318 353 1318 354 1284 c 1,5,-1
 354 858 l 1,6,7
 404 913 404 913 470.5 945 c 128,-1,8
 537 977 537 977 604 977 c 0,9,10
 758 977 758 977 843 881.5 c 128,-1,11
 928 786 928 786 928 580 c 2,12,-1
 928 0 l 1,13,-1
 696 0 l 1,14,-1
 696 578 l 2,15,16
 696 684 696 684 659.5 736 c 128,-1,17
 623 788 623 788 559 788 c 0,18,19
 502 788 502 788 455 758 c 128,-1,20
 408 728 408 728 381 674.5 c 128,-1,21
 354 621 354 621 354 553 c 2,22,-1
 354 0 l 1,23,-1
 123 0 l 1,24,-1
 123 1382 l 1,0,-1
EndSplineSet
EndChar

StartChar: hbar
Encoding: 295 295 312
Width: 1024
GlyphClass: 2
Flags: W
AnchorPoint: "Anchor-8" 0 0 basechar 0
AnchorPoint: "Anchor-7" 283 1135 basechar 0
AnchorPoint: "Anchor-6" 242 1382 basechar 0
AnchorPoint: "Anchor-5" 0 0 basechar 0
AnchorPoint: "Anchor-4" 512 0 basechar 0
LayerCount: 2
Fore
SplineSet
843 881.5 m 128,-1,1
 928 786 928 786 928 580 c 2,2,-1
 928 0 l 1,3,-1
 696 0 l 1,4,-1
 696 578 l 2,5,6
 696 684 696 684 659.5 736 c 128,-1,7
 623 788 623 788 559 788 c 0,8,9
 502 788 502 788 455 758 c 128,-1,10
 408 728 408 728 381 674.5 c 128,-1,11
 354 621 354 621 354 553 c 2,12,-1
 354 0 l 1,13,-1
 123 0 l 1,14,-1
 123 1062 l 1,15,-1
 0 1062 l 1,16,-1
 0 1207 l 1,17,-1
 123 1207 l 1,18,-1
 123 1382 l 1,19,-1
 370 1382 l 1,20,-1
 370 1359 l 1,21,22
 359 1347 359 1347 356 1332.5 c 128,-1,23
 353 1318 353 1318 354 1284 c 1,24,-1
 354 1207 l 1,25,-1
 564 1207 l 1,26,-1
 564 1062 l 1,27,-1
 354 1062 l 1,28,-1
 354 858 l 1,29,30
 404 913 404 913 470.5 945 c 128,-1,31
 537 977 537 977 604 977 c 0,32,0
 758 977 758 977 843 881.5 c 128,-1,1
EndSplineSet
EndChar

StartChar: dotlessi
Encoding: 305 305 317
Width: 1024
GlyphClass: 2
Flags: W
AnchorPoint: "Anchor-8" 0 0 basechar 0
AnchorPoint: "Anchor-7" 0 0 basechar 0
AnchorPoint: "Anchor-6" 512 956 basechar 0
AnchorPoint: "Anchor-5" 694 0 basechar 0
AnchorPoint: "Anchor-4" 512 0 basechar 0
LayerCount: 2
Fore
SplineSet
182 0 m 1,0,-1
 182 184 l 1,1,-1
 412 184 l 1,2,-1
 412 772 l 1,3,-1
 193 772 l 1,4,-1
 193 956 l 1,5,-1
 641 956 l 1,6,-1
 641 184 l 1,7,-1
 850 184 l 1,8,-1
 850 0 l 1,9,-1
 182 0 l 1,0,-1
EndSplineSet
EndChar

StartChar: iogonek
Encoding: 303 303 330
Width: 1024
GlyphClass: 2
Flags: W
AnchorPoint: "Anchor-8" 0 0 basechar 0
AnchorPoint: "Anchor-7" 0 0 basechar 0
AnchorPoint: "Anchor-6" 512 1270 basechar 0
AnchorPoint: "Anchor-5" 694 0 basechar 0
AnchorPoint: "Anchor-4" 512 0 basechar 0
LayerCount: 2
Fore
SplineSet
440 1140.5 m 128,-1,1
 407 1159 407 1159 388 1190 c 128,-1,2
 369 1221 369 1221 369 1257 c 0,3,4
 369 1316 369 1316 409 1354.5 c 128,-1,5
 449 1393 449 1393 512 1393 c 0,6,7
 549 1393 549 1393 582.5 1374.5 c 128,-1,8
 616 1356 616 1356 636 1324.5 c 128,-1,9
 656 1293 656 1293 656 1257 c 256,10,11
 656 1221 656 1221 636 1190 c 128,-1,12
 616 1159 616 1159 582.5 1140.5 c 128,-1,13
 549 1122 549 1122 512 1122 c 0,14,0
 473 1122 473 1122 440 1140.5 c 128,-1,1
711 -197 m 0,16,17
 711 -236 711 -236 745.5 -264 c 128,-1,18
 780 -292 780 -292 848 -307 c 1,19,-1
 756 -487 l 1,20,21
 622 -453 622 -453 553.5 -392.5 c 128,-1,22
 485 -332 485 -332 485 -258 c 0,23,24
 485 -195 485 -195 533.5 -128 c 128,-1,25
 582 -61 582 -61 674 0 c 1,26,-1
 182 0 l 1,27,-1
 182 184 l 1,28,-1
 412 184 l 1,29,-1
 412 772 l 1,30,-1
 193 772 l 1,31,-1
 193 956 l 1,32,-1
 641 956 l 1,33,-1
 641 184 l 1,34,-1
 850 184 l 1,35,-1
 850 0 l 1,36,15
 711 -117 711 -117 711 -197 c 0,16,17
EndSplineSet
EndChar

StartChar: uni0237
Encoding: 567 567 333
Width: 1024
GlyphClass: 2
Flags: W
AnchorPoint: "Anchor-8" 0 0 basechar 0
AnchorPoint: "Anchor-7" 0 0 basechar 0
AnchorPoint: "Anchor-6" 631 956 basechar 0
AnchorPoint: "Anchor-5" 0 0 basechar 0
AnchorPoint: "Anchor-4" 512 -389 basechar 0
LayerCount: 2
Fore
SplineSet
766 956 m 1,0,-1
 766 68 l 2,1,2
 766 -81 766 -81 716 -177 c 128,-1,3
 666 -273 666 -273 581 -317.5 c 128,-1,4
 496 -362 496 -362 387 -362 c 0,5,6
 287 -362 287 -362 205.5 -323 c 128,-1,7
 124 -284 124 -284 53 -207 c 1,8,-1
 179 -43 l 1,9,-1
 180 -41 l 1,10,-1
 182 -44 l 1,11,12
 266 -168 266 -168 387 -168 c 0,13,14
 460 -168 460 -168 497.5 -118.5 c 128,-1,15
 535 -69 535 -69 535 39 c 2,16,-1
 535 770 l 1,17,-1
 203 770 l 1,18,-1
 203 956 l 1,19,-1
 766 956 l 1,0,-1
208 -44 m 2,20,21
 208 -47 208 -47 206 -47 c 0,22,23
 202 -47 202 -47 185 -35 c 1,24,-1
 190 -28 l 1,25,-1
 208 -42 l 1,26,-1
 208 -44 l 2,20,21
175 -30 m 2,28,29
 175 -30 175 -30 175 -29.5 c 128,-1,30
 175 -29 175 -29 176 -29 c 256,31,32
 177 -29 177 -29 179.5 -31 c 128,-1,33
 182 -33 182 -33 185 -35 c 1,34,-1
 180 -41 l 1,35,27
 175 -34 175 -34 175 -30 c 2,28,29
EndSplineSet
EndChar

StartChar: k
Encoding: 107 107 335
Width: 1024
GlyphClass: 2
Flags: W
AnchorPoint: "Anchor-8" 0 0 basechar 0
AnchorPoint: "Anchor-7" 0 0 basechar 0
AnchorPoint: "Anchor-6" 225 1382 basechar 0
AnchorPoint: "Anchor-5" 0 0 basechar 0
AnchorPoint: "Anchor-4" 512 0 basechar 0
LayerCount: 2
Fore
SplineSet
432 432 m 1,0,-1
 354 358 l 1,1,-1
 354 0 l 1,2,-1
 123 0 l 1,3,-1
 123 1382 l 1,4,-1
 370 1382 l 1,5,-1
 370 1359 l 1,6,7
 359 1347 359 1347 356 1332.5 c 128,-1,8
 353 1318 353 1318 354 1284 c 1,9,-1
 354 604 l 1,10,-1
 721 967 l 1,11,12
 794 950 794 950 838 950 c 2,13,-1
 987 950 l 1,14,-1
 596 573 l 1,15,-1
 1028 2 l 1,16,-1
 748 -8 l 1,17,-1
 432 432 l 1,0,-1
EndSplineSet
EndChar

StartChar: kgreenlandic
Encoding: 312 312 337
Width: 1024
GlyphClass: 2
Flags: W
AnchorPoint: "Anchor-8" 0 0 basechar 0
AnchorPoint: "Anchor-7" 0 0 basechar 0
AnchorPoint: "Anchor-6" 246 956 basechar 0
AnchorPoint: "Anchor-5" 0 0 basechar 0
AnchorPoint: "Anchor-4" 512 0 basechar 0
LayerCount: 2
Fore
SplineSet
432 432 m 1,0,-1
 354 358 l 1,1,-1
 354 0 l 1,2,-1
 123 0 l 1,3,-1
 123 956 l 1,4,-1
 383 956 l 1,5,6
 383 944 383 944 379 937 c 128,-1,7
 375 930 375 930 368 923 c 0,8,9
 363 918 363 918 359 912 c 128,-1,10
 355 906 355 906 354 899 c 1,11,-1
 354 604 l 1,12,-1
 723 973 l 1,13,14
 803 956 803 956 840 956 c 2,15,-1
 989 956 l 1,16,-1
 596 573 l 1,17,-1
 1028 2 l 1,18,-1
 748 -8 l 1,19,-1
 432 432 l 1,0,-1
EndSplineSet
EndChar

StartChar: l
Encoding: 108 108 338
Width: 1024
GlyphClass: 2
Flags: W
AnchorPoint: "Anchor-8" 983 956 basechar 0
AnchorPoint: "Anchor-7" 512 479 basechar 0
AnchorPoint: "Anchor-6" 512 1382 basechar 0
AnchorPoint: "Anchor-5" 0 0 basechar 0
AnchorPoint: "Anchor-4" 512 0 basechar 0
LayerCount: 2
Fore
SplineSet
137 0 m 1,0,-1
 137 178 l 1,1,-1
 399 178 l 1,2,-1
 399 1204 l 1,3,-1
 150 1204 l 1,4,-1
 150 1382 l 1,5,-1
 631 1382 l 1,6,-1
 631 178 l 1,7,-1
 891 178 l 1,8,-1
 891 0 l 1,9,-1
 137 0 l 1,0,-1
EndSplineSet
EndChar

StartChar: ldot
Encoding: 320 320 342
Width: 1024
GlyphClass: 2
Flags: W
LayerCount: 2
Fore
SplineSet
117 0 m 1,0,-1
 117 178 l 1,1,-1
 338 178 l 1,2,-1
 338 1204 l 1,3,-1
 129 1204 l 1,4,-1
 129 1382 l 1,5,-1
 567 1382 l 1,6,-1
 567 178 l 1,7,-1
 870 178 l 1,8,-1
 870 0 l 1,9,-1
 117 0 l 1,0,-1
736 556 m 128,-1,11
 700 575 700 575 679 608.5 c 128,-1,12
 658 642 658 642 658 682 c 0,13,14
 658 721 658 721 680 754.5 c 128,-1,15
 702 788 702 788 738.5 807.5 c 128,-1,16
 775 827 775 827 815 827 c 0,17,18
 856 827 856 827 893.5 806.5 c 128,-1,19
 931 786 931 786 954 752 c 128,-1,20
 977 718 977 718 977 682 c 0,21,22
 977 643 977 643 955.5 609.5 c 128,-1,23
 934 576 934 576 897 556.5 c 128,-1,24
 860 537 860 537 815 537 c 0,25,10
 772 537 772 537 736 556 c 128,-1,11
EndSplineSet
EndChar

StartChar: uni01C9
Encoding: 457 457 344
Width: 1024
GlyphClass: 2
Flags: W
LayerCount: 2
Fore
SplineSet
743 1140.5 m 128,-1,1
 710 1159 710 1159 691 1190 c 128,-1,2
 672 1221 672 1221 672 1257 c 0,3,4
 672 1316 672 1316 712 1354.5 c 128,-1,5
 752 1393 752 1393 815 1393 c 0,6,7
 852 1393 852 1393 885.5 1374.5 c 128,-1,8
 919 1356 919 1356 939 1324.5 c 128,-1,9
 959 1293 959 1293 959 1257 c 256,10,11
 959 1221 959 1221 939 1190 c 128,-1,12
 919 1159 919 1159 885.5 1140.5 c 128,-1,13
 852 1122 852 1122 815 1122 c 0,14,0
 776 1122 776 1122 743 1140.5 c 128,-1,1
51 0 m 1,15,-1
 51 178 l 1,16,-1
 127 178 l 1,17,-1
 127 1204 l 1,18,-1
 63 1204 l 1,19,-1
 63 1382 l 1,20,-1
 356 1382 l 1,21,-1
 356 178 l 1,22,-1
 578 178 l 1,23,-1
 578 0 l 1,24,-1
 51 0 l 1,15,-1
301 -262 m 1,26,-1
 442 -76 l 1,27,28
 452 -80 452 -80 455.5 -85 c 128,-1,29
 459 -90 459 -90 463 -102 c 0,30,31
 471 -125 471 -125 481 -141 c 1,32,33
 495 -157 495 -157 508 -162.5 c 128,-1,34
 521 -168 521 -168 543 -168 c 0,35,36
 611 -168 611 -168 652.5 -117 c 128,-1,37
 694 -66 694 -66 694 39 c 2,38,-1
 694 770 l 1,39,-1
 485 770 l 1,40,-1
 485 956 l 1,41,-1
 926 956 l 1,42,-1
 926 47 l 2,43,44
 926 -92 926 -92 875.5 -184 c 128,-1,45
 825 -276 825 -276 737.5 -319 c 128,-1,46
 650 -362 650 -362 537 -362 c 0,47,25
 398 -362 398 -362 301 -262 c 1,26,-1
EndSplineSet
EndChar

StartChar: lslash
Encoding: 322 322 346
Width: 1024
GlyphClass: 2
Flags: W
LayerCount: 2
Fore
SplineSet
137 0 m 1,0,-1
 137 178 l 1,1,-1
 399 178 l 1,2,-1
 399 524 l 1,3,-1
 248 473 l 1,4,-1
 248 672 l 1,5,-1
 399 723 l 1,6,-1
 399 1204 l 1,7,-1
 150 1204 l 1,8,-1
 150 1382 l 1,9,-1
 629 1382 l 1,10,-1
 629 803 l 1,11,-1
 801 860 l 1,12,-1
 801 659 l 1,13,-1
 629 600 l 1,14,-1
 629 178 l 1,15,-1
 891 178 l 1,16,-1
 891 0 l 1,17,-1
 137 0 l 1,0,-1
EndSplineSet
EndChar

StartChar: m
Encoding: 109 109 347
Width: 1024
GlyphClass: 2
Flags: W
AnchorPoint: "Anchor-8" 0 0 basechar 0
AnchorPoint: "Anchor-7" 0 0 basechar 0
AnchorPoint: "Anchor-6" 512 956 basechar 0
AnchorPoint: "Anchor-5" 0 0 basechar 0
AnchorPoint: "Anchor-4" 512 0 basechar 0
LayerCount: 2
Fore
SplineSet
66 967 m 1,0,-1
 262 967 l 1,1,-1
 262 907 l 1,2,3
 296 952 296 952 339.5 974.5 c 128,-1,4
 383 997 383 997 430 997 c 0,5,6
 479 997 479 997 523 970 c 128,-1,7
 567 943 567 943 594 883 c 1,8,9
 631 941 631 941 676 969 c 128,-1,10
 721 997 721 997 788 997 c 0,11,12
 894 997 894 997 936.5 926.5 c 128,-1,13
 979 856 979 856 979 707 c 2,14,-1
 979 0 l 1,15,-1
 766 0 l 1,16,-1
 766 668 l 2,17,18
 766 748 766 748 752 782.5 c 128,-1,19
 738 817 738 817 705 817 c 0,20,21
 627 817 627 817 627 629 c 2,22,-1
 627 0 l 1,23,-1
 416 0 l 1,24,-1
 416 657 l 2,25,26
 416 749 416 749 399.5 783 c 128,-1,27
 383 817 383 817 356 817 c 0,28,29
 315 817 315 817 293.5 776.5 c 128,-1,30
 272 736 272 736 272 635 c 2,31,-1
 272 0 l 1,32,-1
 66 0 l 1,33,-1
 66 967 l 1,0,-1
EndSplineSet
EndChar

StartChar: n
Encoding: 110 110 349
Width: 1024
GlyphClass: 2
Flags: W
AnchorPoint: "Anchor-8" 0 0 basechar 0
AnchorPoint: "Anchor-7" 0 0 basechar 0
AnchorPoint: "Anchor-6" 532 956 basechar 0
AnchorPoint: "Anchor-5" 0 0 basechar 0
AnchorPoint: "Anchor-4" 532 0 basechar 0
LayerCount: 2
Fore
SplineSet
123 956 m 1,0,-1
 354 956 l 1,1,-1
 354 858 l 1,2,3
 405 914 405 914 475 945.5 c 128,-1,4
 545 977 545 977 627 977 c 0,5,6
 763 977 763 977 844.5 880.5 c 128,-1,7
 926 784 926 784 926 580 c 2,8,-1
 926 0 l 1,9,-1
 696 0 l 1,10,-1
 696 578 l 2,11,12
 696 686 696 686 656.5 737 c 128,-1,13
 617 788 617 788 539 788 c 0,14,15
 490 788 490 788 447.5 768.5 c 128,-1,16
 405 749 405 749 379.5 710 c 128,-1,17
 354 671 354 671 354 614 c 2,18,-1
 354 0 l 1,19,-1
 123 0 l 1,20,-1
 123 956 l 1,0,-1
EndSplineSet
EndChar

StartChar: eng
Encoding: 331 331 355
Width: 1024
GlyphClass: 2
Flags: W
LayerCount: 2
Fore
SplineSet
319 -274 m 1,1,-1
 422 -74 l 1,2,3
 434 -77 434 -77 443 -85.5 c 128,-1,4
 452 -94 452 -94 465 -110 c 0,5,6
 485 -136 485 -136 505 -150 c 128,-1,7
 525 -164 525 -164 561 -164 c 0,8,9
 696 -164 696 -164 696 88 c 2,10,-1
 696 578 l 2,11,12
 696 684 696 684 659.5 736 c 128,-1,13
 623 788 623 788 559 788 c 0,14,15
 502 788 502 788 455 758 c 128,-1,16
 408 728 408 728 381 674.5 c 128,-1,17
 354 621 354 621 354 553 c 2,18,-1
 354 0 l 1,19,-1
 123 0 l 1,20,-1
 123 956 l 1,21,-1
 354 956 l 1,22,-1
 354 858 l 1,23,24
 404 913 404 913 470.5 945 c 128,-1,25
 537 977 537 977 604 977 c 0,26,27
 922 977 922 977 922 580 c 2,28,-1
 922 109 l 2,29,30
 922 -53 922 -53 875.5 -159.5 c 128,-1,31
 829 -266 829 -266 747 -316.5 c 128,-1,32
 665 -367 665 -367 557 -367 c 0,33,0
 439 -367 439 -367 319 -274 c 1,1,-1
EndSplineSet
EndChar

StartChar: o
Encoding: 111 111 358
Width: 1024
GlyphClass: 2
Flags: W
AnchorPoint: "Anchor-8" 741 915 basechar 0
AnchorPoint: "Anchor-7" 512 479 basechar 0
AnchorPoint: "Anchor-6" 514 956 basechar 0
AnchorPoint: "Anchor-5" 625 51 basechar 0
AnchorPoint: "Anchor-4" 512 0 basechar 0
LayerCount: 2
Fore
SplineSet
283 32 m 128,-1,1
 179 97 179 97 119 213 c 128,-1,2
 59 329 59 329 59 477 c 0,3,4
 59 616 59 616 120 730.5 c 128,-1,5
 181 845 181 845 285.5 911 c 128,-1,6
 390 977 390 977 514 977 c 256,7,8
 638 977 638 977 742.5 911 c 128,-1,9
 847 845 847 845 908 730.5 c 128,-1,10
 969 616 969 616 969 477 c 0,11,12
 969 329 969 329 909 213 c 128,-1,13
 849 97 849 97 745 32 c 128,-1,14
 641 -33 641 -33 514 -33 c 256,15,0
 387 -33 387 -33 283 32 c 128,-1,1
632.5 192.5 m 128,-1,17
 683 233 683 233 710 306.5 c 128,-1,18
 737 380 737 380 737 477 c 0,19,20
 737 575 737 575 710 646 c 128,-1,21
 683 717 683 717 632.5 755 c 128,-1,22
 582 793 582 793 514 793 c 0,23,24
 449 793 449 793 399.5 755 c 128,-1,25
 350 717 350 717 322.5 645.5 c 128,-1,26
 295 574 295 574 295 477 c 0,27,28
 295 379 295 379 321.5 305.5 c 128,-1,29
 348 232 348 232 397 192 c 128,-1,30
 446 152 446 152 514 152 c 256,31,16
 582 152 582 152 632.5 192.5 c 128,-1,17
EndSplineSet
Substitution2: "Single Substitution lookup 28 subtable" ordmasculine
Substitution2: "'aalt' +MFkweTBmMG51cE9TW1cweDBuMKIwrzC7MLkA in +MOkwxjDzZYdbVwAA lookup 0 subtable" ordmasculine
EndChar

StartChar: ohorn
Encoding: 417 417 374
Width: 1024
GlyphClass: 2
Flags: W
AnchorPoint: "Anchor-8" 741 915 basechar 0
AnchorPoint: "Anchor-7" 512 479 basechar 0
AnchorPoint: "Anchor-6" 514 956 basechar 0
AnchorPoint: "Anchor-5" 625 51 basechar 0
AnchorPoint: "Anchor-4" 512 0 basechar 0
LayerCount: 2
Fore
SplineSet
940 655.5 m 128,-1,1
 969 571 969 571 969 477 c 0,2,3
 969 329 969 329 909 213 c 128,-1,4
 849 97 849 97 745 32 c 128,-1,5
 641 -33 641 -33 514 -33 c 256,6,7
 387 -33 387 -33 283 32 c 128,-1,8
 179 97 179 97 119 213 c 128,-1,9
 59 329 59 329 59 477 c 0,10,11
 59 616 59 616 120 730.5 c 128,-1,12
 181 845 181 845 285.5 911 c 128,-1,13
 390 977 390 977 514 977 c 0,14,15
 637 977 637 977 741 912 c 1,16,-1
 741 915 l 1,17,18
 766 915 766 915 777 960.5 c 128,-1,19
 788 1006 788 1006 788 1108 c 1,20,-1
 964 1108 l 1,21,22
 964 887 964 887 858 807 c 1,23,0
 911 740 911 740 940 655.5 c 128,-1,1
632.5 192.5 m 128,-1,25
 683 233 683 233 710 306.5 c 128,-1,26
 737 380 737 380 737 477 c 0,27,28
 737 575 737 575 710 646 c 128,-1,29
 683 717 683 717 632.5 755 c 128,-1,30
 582 793 582 793 514 793 c 0,31,32
 449 793 449 793 399.5 755 c 128,-1,33
 350 717 350 717 322.5 645.5 c 128,-1,34
 295 574 295 574 295 477 c 0,35,36
 295 379 295 379 321.5 305.5 c 128,-1,37
 348 232 348 232 397 192 c 128,-1,38
 446 152 446 152 514 152 c 256,39,24
 582 152 582 152 632.5 192.5 c 128,-1,25
EndSplineSet
EndChar

StartChar: uni01EB
Encoding: 491 491 385
Width: 1024
GlyphClass: 2
Flags: W
AnchorPoint: "Anchor-8" 741 915 basechar 0
AnchorPoint: "Anchor-7" 512 479 basechar 0
AnchorPoint: "Anchor-6" 514 956 basechar 0
AnchorPoint: "Anchor-5" 625 51 basechar 0
AnchorPoint: "Anchor-4" 512 0 basechar 0
LayerCount: 2
Fore
SplineSet
918 231 m 128,-1,1
 867 121 867 121 777 54 c 1,2,-1
 781 51 l 1,3,4
 642 -66 642 -66 642 -146 c 0,5,6
 642 -185 642 -185 676.5 -213 c 128,-1,7
 711 -241 711 -241 779 -256 c 1,8,-1
 687 -436 l 1,9,10
 553 -402 553 -402 484.5 -341.5 c 128,-1,11
 416 -281 416 -281 416 -207 c 0,12,13
 416 -121 416 -121 502 -33 c 1,14,15
 378 -30 378 -30 276.5 36 c 128,-1,16
 175 102 175 102 117 217 c 128,-1,17
 59 332 59 332 59 477 c 0,18,19
 59 616 59 616 120 730.5 c 128,-1,20
 181 845 181 845 285.5 911 c 128,-1,21
 390 977 390 977 514 977 c 256,22,23
 638 977 638 977 742.5 911 c 128,-1,24
 847 845 847 845 908 730.5 c 128,-1,25
 969 616 969 616 969 477 c 0,26,0
 969 341 969 341 918 231 c 128,-1,1
321.5 305.5 m 128,-1,28
 348 232 348 232 397 192 c 128,-1,29
 446 152 446 152 514 152 c 256,30,31
 582 152 582 152 632.5 192.5 c 128,-1,32
 683 233 683 233 710 306.5 c 128,-1,33
 737 380 737 380 737 477 c 0,34,35
 737 575 737 575 710 646 c 128,-1,36
 683 717 683 717 632.5 755 c 128,-1,37
 582 793 582 793 514 793 c 0,38,39
 449 793 449 793 399.5 755 c 128,-1,40
 350 717 350 717 322.5 645.5 c 128,-1,41
 295 574 295 574 295 477 c 0,42,27
 295 379 295 379 321.5 305.5 c 128,-1,28
EndSplineSet
EndChar

StartChar: oslash
Encoding: 248 248 386
Width: 1024
GlyphClass: 2
Flags: W
LayerCount: 2
Fore
SplineSet
115 -47 m 1,0,-1
 197 104 l 1,1,2
 131 172 131 172 95 265.5 c 128,-1,3
 59 359 59 359 59 469 c 0,4,5
 59 611 59 611 121.5 727.5 c 128,-1,6
 184 844 184 844 289.5 910.5 c 128,-1,7
 395 977 395 977 520 977 c 0,8,9
 588 977 588 977 657 956 c 1,10,-1
 721 1071 l 1,11,-1
 899 975 l 1,12,-1
 829 848 l 1,13,14
 894 782 894 782 929.5 687 c 128,-1,15
 965 592 965 592 965 473 c 0,16,17
 965 318 965 318 907.5 203.5 c 128,-1,18
 850 89 850 89 748 28 c 128,-1,19
 646 -33 646 -33 518 -33 c 0,20,21
 438 -33 438 -33 362 -4 c 1,22,-1
 291 -139 l 1,23,-1
 115 -47 l 1,0,-1
565 786 m 1,24,25
 543 793 543 793 514 793 c 0,26,27
 449 793 449 793 399.5 755 c 128,-1,28
 350 717 350 717 322.5 645.5 c 128,-1,29
 295 574 295 574 295 477 c 0,30,31
 295 388 295 388 315 324 c 1,32,-1
 565 786 l 1,24,25
678 236.5 m 128,-1,34
 737 319 737 319 737 469 c 0,35,36
 737 563 737 563 713 633 c 1,37,-1
 455 162 l 1,38,39
 482 154 482 154 518 154 c 0,40,33
 619 154 619 154 678 236.5 c 128,-1,34
EndSplineSet
EndChar

StartChar: oe
Encoding: 339 339 392
Width: 1024
GlyphClass: 2
Flags: W
LayerCount: 2
Fore
SplineSet
618 -6 m 128,-1,1
 552 19 552 19 518 53 c 1,2,3
 481 16 481 16 432 -6.5 c 128,-1,4
 383 -29 383 -29 332 -29 c 0,5,6
 246 -29 246 -29 172.5 18.5 c 128,-1,7
 99 66 99 66 52.5 178.5 c 128,-1,8
 6 291 6 291 6 475 c 0,9,10
 6 647 6 647 52.5 758.5 c 128,-1,11
 99 870 99 870 175.5 921.5 c 128,-1,12
 252 973 252 973 344 973 c 0,13,14
 394 973 394 973 442 947.5 c 128,-1,15
 490 922 490 922 524 885 c 1,16,17
 560 921 560 921 610.5 947 c 128,-1,18
 661 973 661 973 711 973 c 0,19,20
 805 973 805 973 872.5 927 c 128,-1,21
 940 881 940 881 976 792.5 c 128,-1,22
 1012 704 1012 704 1012 580 c 2,23,-1
 1012 424 l 1,24,-1
 582 424 l 1,25,26
 585 277 585 277 623.5 217.5 c 128,-1,27
 662 158 662 158 735 158 c 0,28,29
 785 158 785 158 821.5 182 c 128,-1,30
 858 206 858 206 913 264 c 1,31,-1
 1032 115 l 1,32,33
 962 44 962 44 891.5 6.5 c 128,-1,34
 821 -31 821 -31 741 -31 c 0,35,0
 684 -31 684 -31 618 -6 c 128,-1,1
805 606 m 1,36,37
 804 706 804 706 777 750.5 c 128,-1,38
 750 795 750 795 698 795 c 0,39,40
 638 795 638 795 612.5 747 c 128,-1,41
 587 699 587 699 584 606 c 1,42,-1
 805 606 l 1,36,37
385.5 174.5 m 128,-1,44
 396 185 396 185 396 205 c 0,45,46
 396 221 396 221 391 244 c 1,47,48
 373 355 373 355 373 494 c 256,49,50
 373 633 373 633 387 715 c 0,51,52
 389 727 389 727 389 733 c 0,53,54
 389 754 389 754 377 769 c 128,-1,55
 365 784 365 784 342 784 c 0,56,57
 306 784 306 784 277 753 c 128,-1,58
 248 722 248 722 230.5 657.5 c 128,-1,59
 213 593 213 593 213 496 c 0,60,61
 213 335 213 335 248 249.5 c 128,-1,62
 283 164 283 164 348 164 c 0,63,43
 375 164 375 164 385.5 174.5 c 128,-1,44
EndSplineSet
EndChar

StartChar: p
Encoding: 112 112 393
Width: 1024
GlyphClass: 2
Flags: W
AnchorPoint: "Anchor-8" 0 0 basechar 0
AnchorPoint: "Anchor-7" 0 0 basechar 0
AnchorPoint: "Anchor-6" 553 956 basechar 0
AnchorPoint: "Anchor-5" 0 0 basechar 0
AnchorPoint: "Anchor-4" 553 0 basechar 0
LayerCount: 2
Fore
SplineSet
111 956 m 1,0,-1
 332 956 l 1,1,-1
 332 838 l 1,2,3
 376 911 376 911 437.5 944 c 128,-1,4
 499 977 499 977 578 977 c 0,5,6
 684 977 684 977 772.5 919 c 128,-1,7
 861 861 861 861 914 747 c 128,-1,8
 967 633 967 633 967 473 c 0,9,10
 967 310 967 310 913 196.5 c 128,-1,11
 859 83 859 83 771 26 c 128,-1,12
 683 -31 683 -31 580 -31 c 0,13,14
 504 -31 504 -31 442.5 1.5 c 128,-1,15
 381 34 381 34 342 104 c 1,16,-1
 342 -342 l 1,17,-1
 113 -342 l 1,18,-1
 111 956 l 1,0,-1
634 193 m 128,-1,20
 681 228 681 228 709 301.5 c 128,-1,21
 737 375 737 375 737 485 c 0,22,23
 737 622 737 622 690.5 705 c 128,-1,24
 644 788 644 788 543 788 c 0,25,26
 438 788 438 788 390 700.5 c 128,-1,27
 342 613 342 613 342 465 c 0,28,29
 342 310 342 310 392 234 c 128,-1,30
 442 158 442 158 528 158 c 0,31,19
 587 158 587 158 634 193 c 128,-1,20
EndSplineSet
EndChar

StartChar: thorn
Encoding: 254 254 394
Width: 1024
GlyphClass: 2
Flags: W
LayerCount: 2
Fore
SplineSet
102 1382 m 1,0,-1
 360 1382 l 1,1,2
 360 1371 360 1371 357 1362.5 c 128,-1,3
 354 1354 354 1354 347 1344 c 1,4,5
 340 1331 340 1331 336 1321 c 128,-1,6
 332 1311 332 1311 332 1294 c 2,7,-1
 332 868 l 1,8,9
 377 918 377 918 435.5 947.5 c 128,-1,10
 494 977 494 977 553 977 c 0,11,12
 663 977 663 977 755 922.5 c 128,-1,13
 847 868 847 868 901.5 760 c 128,-1,14
 956 652 956 652 956 498 c 0,15,16
 956 329 956 329 900.5 209.5 c 128,-1,17
 845 90 845 90 753.5 29.5 c 128,-1,18
 662 -31 662 -31 555 -31 c 0,19,20
 499 -31 499 -31 437 -6 c 128,-1,21
 375 19 375 19 334 63 c 1,22,-1
 334 -342 l 1,23,-1
 102 -342 l 1,24,-1
 102 1382 l 1,0,-1
614.5 191 m 128,-1,26
 662 222 662 222 693.5 291 c 128,-1,27
 725 360 725 360 725 467 c 0,28,29
 725 613 725 613 671 702 c 128,-1,30
 617 791 617 791 510 791 c 0,31,32
 408 791 408 791 369 709.5 c 128,-1,33
 330 628 330 628 330 489 c 0,34,35
 330 317 330 317 378 238.5 c 128,-1,36
 426 160 426 160 516 160 c 0,37,25
 567 160 567 160 614.5 191 c 128,-1,26
EndSplineSet
EndChar

StartChar: q
Encoding: 113 113 395
Width: 1024
GlyphClass: 2
Flags: W
LayerCount: 2
Fore
SplineSet
686 66 m 1,0,1
 647 21 647 21 585 -6 c 128,-1,2
 523 -33 523 -33 463 -33 c 0,3,4
 352 -33 352 -33 259.5 32.5 c 128,-1,5
 167 98 167 98 113 215 c 128,-1,6
 59 332 59 332 59 479 c 0,7,8
 59 627 59 627 111.5 740 c 128,-1,9
 164 853 164 853 256.5 915 c 128,-1,10
 349 977 349 977 465 977 c 0,11,12
 525 977 525 977 591.5 949.5 c 128,-1,13
 658 922 658 922 694 879 c 1,14,-1
 694 956 l 1,15,-1
 915 956 l 1,16,-1
 915 -342 l 1,17,-1
 686 -342 l 1,18,-1
 686 66 l 1,0,1
633.5 243 m 128,-1,20
 682 324 682 324 682 481 c 0,21,22
 682 640 682 640 631 715.5 c 128,-1,23
 580 791 580 791 487 791 c 0,24,25
 433 791 433 791 388.5 754.5 c 128,-1,26
 344 718 344 718 317.5 649 c 128,-1,27
 291 580 291 580 291 487 c 0,28,29
 291 392 291 392 318.5 318 c 128,-1,30
 346 244 346 244 393 203 c 128,-1,31
 440 162 440 162 496 162 c 0,32,19
 585 162 585 162 633.5 243 c 128,-1,20
EndSplineSet
EndChar

StartChar: r
Encoding: 114 114 396
Width: 1024
GlyphClass: 2
Flags: W
AnchorPoint: "Anchor-8" 0 0 basechar 0
AnchorPoint: "Anchor-7" 0 0 basechar 0
AnchorPoint: "Anchor-6" 594 956 basechar 0
AnchorPoint: "Anchor-5" 0 0 basechar 0
AnchorPoint: "Anchor-4" 614 0 basechar 0
LayerCount: 2
Fore
SplineSet
858 666 m 1,0,-1
 857 667 l 1,1,2
 819 729 819 729 775 755.5 c 128,-1,3
 731 782 731 782 672 782 c 0,4,5
 599 782 599 782 540 747.5 c 128,-1,6
 481 713 481 713 447.5 649 c 128,-1,7
 414 585 414 585 414 500 c 2,8,-1
 414 0 l 1,9,-1
 182 0 l 1,10,-1
 182 956 l 1,11,-1
 418 956 l 1,12,-1
 418 819 l 1,13,14
 456 893 456 893 529.5 935 c 128,-1,15
 603 977 603 977 694 977 c 0,16,17
 765 977 765 977 835.5 950.5 c 128,-1,18
 906 924 906 924 961 872 c 1,19,-1
 858 666 l 1,0,-1
829 665 m 2,20,21
 829 666 829 666 830 666 c 0,22,23
 833 666 833 666 840.5 661.5 c 128,-1,24
 848 657 848 657 852 655 c 1,25,-1
 851 652 l 1,26,-1
 830 662 l 1,27,-1
 829 665 l 2,20,21
858 666 m 1,28,29
 864 656 864 656 864 652 c 0,30,31
 864 651 864 651 862 651 c 0,32,33
 859 651 859 651 852 655 c 1,34,-1
 858 666 l 1,28,29
EndSplineSet
EndChar

StartChar: uni027B
Encoding: 635 635 402
Width: 1024
GlyphClass: 2
Flags: W
LayerCount: 2
Fore
SplineSet
1047 -305 m 1,0,1
 969 -362 969 -362 870 -362 c 0,2,3
 727 -362 727 -362 648 -268 c 128,-1,4
 569 -174 569 -174 569 18 c 2,5,-1
 569 145 l 1,6,7
 532 68 532 68 457.5 24 c 128,-1,8
 383 -20 383 -20 289 -20 c 0,9,10
 218 -20 218 -20 147.5 6 c 128,-1,11
 77 32 77 32 23 84 c 1,12,-1
 113 264 l 1,13,-1
 115 262 l 1,14,15
 166 216 166 216 209.5 195 c 128,-1,16
 253 174 253 174 311 174 c 0,17,18
 384 174 384 174 443 208.5 c 128,-1,19
 502 243 502 243 535.5 307.5 c 128,-1,20
 569 372 569 372 569 457 c 2,21,-1
 569 956 l 1,22,-1
 801 956 l 1,23,-1
 801 16 l 2,24,25
 801 -87 801 -87 823.5 -135.5 c 128,-1,26
 846 -184 846 -184 909 -184 c 0,27,28
 921 -184 921 -184 930 -183 c 128,-1,29
 939 -182 939 -182 945 -182 c 0,30,31
 956 -182 956 -182 956 -186 c 0,32,33
 956 -193 956 -193 931 -215 c 1,34,35
 994 -161 994 -161 994 -156 c 1,36,-1
 993 -156 l 2,37,38
 991 -156 991 -156 986 -157.5 c 128,-1,39
 981 -159 981 -159 977.5 -158.5 c 128,-1,40
 974 -158 974 -158 975 -153 c 1,41,-1
 992 -138 l 1,42,-1
 1004 -152 l 1,43,-1
 1047 -305 l 1,0,1
142 265 m 2,44,45
 142 263 142 263 139 263 c 0,46,47
 135 263 135 263 116 270 c 1,48,-1
 120 278 l 1,49,-1
 141 268 l 1,50,-1
 142 265 l 2,44,45
104 274 m 0,52,53
 104 276 104 276 116 270 c 1,54,-1
 113 264 l 1,55,51
 104 273 104 273 104 274 c 0,52,53
EndSplineSet
EndChar

StartChar: uni024D
Encoding: 589 589 405
Width: 1024
GlyphClass: 2
Flags: W
AnchorPoint: "Anchor-8" 0 0 basechar 0
AnchorPoint: "Anchor-7" 0 0 basechar 0
AnchorPoint: "Anchor-6" 594 956 basechar 0
AnchorPoint: "Anchor-5" 0 0 basechar 0
AnchorPoint: "Anchor-4" 614 0 basechar 0
LayerCount: 2
Fore
SplineSet
858 666 m 1,0,-1
 857 667 l 1,1,2
 819 729 819 729 775 755.5 c 128,-1,3
 731 782 731 782 672 782 c 0,4,5
 599 782 599 782 540 747.5 c 128,-1,6
 481 713 481 713 447.5 649 c 128,-1,7
 414 585 414 585 414 500 c 2,8,-1
 414 496 l 1,9,-1
 662 496 l 1,10,-1
 662 350 l 1,11,-1
 414 350 l 1,12,-1
 414 0 l 1,13,-1
 182 0 l 1,14,-1
 182 350 l 1,15,-1
 57 350 l 1,16,-1
 57 496 l 1,17,-1
 182 496 l 1,18,-1
 182 956 l 1,19,-1
 418 956 l 1,20,-1
 418 819 l 1,21,22
 456 893 456 893 529.5 935 c 128,-1,23
 603 977 603 977 694 977 c 0,24,25
 765 977 765 977 835.5 950.5 c 128,-1,26
 906 924 906 924 961 872 c 1,27,-1
 858 666 l 1,0,-1
829 665 m 2,28,29
 829 666 829 666 830 666 c 0,30,31
 833 666 833 666 840.5 661.5 c 128,-1,32
 848 657 848 657 852 655 c 1,33,-1
 851 652 l 1,34,-1
 830 662 l 1,35,-1
 829 665 l 2,28,29
858 666 m 1,36,37
 864 656 864 656 864 652 c 0,38,39
 864 651 864 651 862 651 c 0,40,41
 859 651 859 651 852 655 c 1,42,-1
 858 666 l 1,36,37
EndSplineSet
EndChar

StartChar: s
Encoding: 115 115 406
Width: 1024
GlyphClass: 2
Flags: W
LayerCount: 2
Fore
SplineSet
791 498.5 m 128,-1,1
 858 462 858 462 889 411 c 128,-1,2
 920 360 920 360 920 283 c 0,3,4
 920 200 920 200 870.5 127.5 c 128,-1,5
 821 55 821 55 735 11 c 128,-1,6
 649 -33 649 -33 543 -33 c 0,7,8
 399 -33 399 -33 292 5.5 c 128,-1,9
 185 44 185 44 96 129 c 1,10,-1
 192 297 l 1,11,-1
 193 299 l 1,12,-1
 195 297 l 1,13,14
 265 221 265 221 346.5 186.5 c 128,-1,15
 428 152 428 152 545 152 c 0,16,17
 709 152 709 152 709 260 c 0,18,19
 709 293 709 293 689 317 c 128,-1,20
 669 341 669 341 625 361 c 128,-1,21
 581 381 581 381 504 403 c 1,22,23
 339 446 339 446 247.5 511.5 c 128,-1,24
 156 577 156 577 156 692 c 0,25,26
 156 775 156 775 200.5 839.5 c 128,-1,27
 245 904 245 904 328.5 940.5 c 128,-1,28
 412 977 412 977 524 977 c 256,29,30
 636 977 636 977 728.5 940.5 c 128,-1,31
 821 904 821 904 899 829 c 1,32,-1
 783 668 l 1,33,-1
 782 666 l 2,34,35
 781 666 781 666 781 666.5 c 128,-1,36
 781 667 781 667 781 667 c 1,37,38
 739 727 739 727 672.5 760 c 128,-1,39
 606 793 606 793 528 793 c 0,40,41
 467 793 467 793 426 772 c 128,-1,42
 385 751 385 751 385 715 c 0,43,44
 385 682 385 682 407.5 658.5 c 128,-1,45
 430 635 430 635 475.5 616 c 128,-1,46
 521 597 521 597 606 571 c 0,47,0
 724 535 724 535 791 498.5 c 128,-1,1
754 668 m 2,48,49
 754 670 754 670 756 670 c 0,50,51
 759 670 759 670 766.5 665 c 128,-1,52
 774 660 774 660 777 658 c 1,53,-1
 773 653 l 1,54,-1
 754 666 l 1,55,-1
 754 668 l 2,48,49
789 652 m 0,57,58
 789 651 789 651 784.5 653.5 c 128,-1,59
 780 656 780 656 777 658 c 1,60,-1
 782 666 l 1,61,56
 789 655 789 655 789 652 c 0,57,58
222 298 m 2,62,63
 222 296 222 296 220 296 c 0,64,65
 217 296 217 296 209.5 300 c 128,-1,66
 202 304 202 304 197 306 c 1,67,-1
 201 313 l 1,68,-1
 221 301 l 1,69,-1
 222 298 l 2,62,63
185 310 m 2,71,72
 185 310 185 310 185 310.5 c 128,-1,73
 185 311 185 311 186 311 c 2,74,-1
 197 306 l 1,75,-1
 193 299 l 1,76,70
 185 307 185 307 185 310 c 2,71,72
EndSplineSet
EndChar

StartChar: scedilla
Encoding: 351 351 411
Width: 1024
GlyphClass: 2
Flags: W
AnchorPoint: "Anchor-8" 0 0 basechar 0
AnchorPoint: "Anchor-7" 0 0 basechar 0
AnchorPoint: "Anchor-6" 0 0 basechar 0
AnchorPoint: "Anchor-5" 0 0 basechar 0
AnchorPoint: "Anchor-4" 555 -389 basechar 0
LayerCount: 2
Fore
SplineSet
887.5 156 m 128,-1,1
 855 95 855 95 796.5 49.5 c 128,-1,2
 738 4 738 4 662 -17 c 1,3,-1
 655 -63 l 1,4,5
 732 -71 732 -71 773.5 -109.5 c 128,-1,6
 815 -148 815 -148 815 -209 c 0,7,8
 815 -260 815 -260 785.5 -308.5 c 128,-1,9
 756 -357 756 -357 696.5 -388.5 c 128,-1,10
 637 -420 637 -420 553 -420 c 0,11,12
 410 -420 410 -420 295 -305 c 1,13,-1
 371 -172 l 1,14,15
 429 -233 429 -233 476.5 -257 c 128,-1,16
 524 -281 524 -281 578 -281 c 0,17,18
 624 -281 624 -281 648 -266.5 c 128,-1,19
 672 -252 672 -252 672 -227 c 0,20,21
 672 -204 672 -204 650 -193 c 128,-1,22
 628 -182 628 -182 575 -182 c 2,23,-1
 475 -182 l 1,24,-1
 496 -32 l 1,25,26
 371 -26 371 -26 274.5 13 c 128,-1,27
 178 52 178 52 96 129 c 1,28,-1
 192 297 l 1,29,-1
 193 299 l 1,30,-1
 195 297 l 1,31,32
 265 221 265 221 346.5 186.5 c 128,-1,33
 428 152 428 152 545 152 c 0,34,35
 709 152 709 152 709 260 c 0,36,37
 709 293 709 293 689 317 c 128,-1,38
 669 341 669 341 625 361 c 128,-1,39
 581 381 581 381 504 403 c 1,40,41
 339 446 339 446 247.5 511.5 c 128,-1,42
 156 577 156 577 156 692 c 0,43,44
 156 775 156 775 200.5 839.5 c 128,-1,45
 245 904 245 904 328.5 940.5 c 128,-1,46
 412 977 412 977 524 977 c 256,47,48
 636 977 636 977 728.5 940.5 c 128,-1,49
 821 904 821 904 899 829 c 1,50,-1
 783 668 l 1,51,-1
 782 666 l 2,52,53
 781 666 781 666 781 666.5 c 128,-1,54
 781 667 781 667 781 667 c 1,55,56
 739 727 739 727 672.5 760 c 128,-1,57
 606 793 606 793 528 793 c 0,58,59
 467 793 467 793 426 772 c 128,-1,60
 385 751 385 751 385 715 c 0,61,62
 385 682 385 682 407.5 658.5 c 128,-1,63
 430 635 430 635 475.5 616 c 128,-1,64
 521 597 521 597 606 571 c 0,65,66
 724 535 724 535 791 498.5 c 128,-1,67
 858 462 858 462 889 411 c 128,-1,68
 920 360 920 360 920 283 c 0,69,0
 920 217 920 217 887.5 156 c 128,-1,1
754 668 m 2,70,71
 754 670 754 670 756 670 c 0,72,73
 759 670 759 670 766.5 665 c 128,-1,74
 774 660 774 660 777 658 c 1,75,-1
 773 653 l 1,76,-1
 754 666 l 1,77,-1
 754 668 l 2,70,71
789 652 m 0,79,80
 789 651 789 651 784.5 653.5 c 128,-1,81
 780 656 780 656 777 658 c 1,82,-1
 782 666 l 1,83,78
 789 655 789 655 789 652 c 0,79,80
222 298 m 2,84,85
 222 296 222 296 220 296 c 0,86,87
 217 296 217 296 209.5 300 c 128,-1,88
 202 304 202 304 197 306 c 1,89,-1
 201 313 l 1,90,-1
 221 301 l 1,91,-1
 222 298 l 2,84,85
185 310 m 2,93,94
 185 310 185 310 185 310.5 c 128,-1,95
 185 311 185 311 186 311 c 2,96,-1
 197 306 l 1,97,-1
 193 299 l 1,98,92
 185 307 185 307 185 310 c 2,93,94
EndSplineSet
Substitution2: "'locl' +Vv0w+1cwV99W+mcJMG5bV19i in +MOkwxjDzZYdbVwAA lookup 7 subtable" scommaaccent
Substitution2: "'locl' +Vv0w+1cwV99W+mcJMG5bV19i in +MOkwxjDzZYdbVwAA lookup 6 subtable" scommaaccent
Substitution2: "'aalt' +MFkweTBmMG51cE9TW1cweDBuMKIwrzC7MLkA in +MOkwxjDzZYdbVwAA lookup 0 subtable" scommaaccent
EndChar

StartChar: germandbls
Encoding: 223 223 417
Width: 1024
GlyphClass: 2
Flags: W
LayerCount: 2
Fore
SplineSet
454 -15.5 m 128,-1,1
 402 0 402 0 342 33 c 1,2,-1
 457 213 l 1,3,4
 484 188 484 188 510.5 176 c 128,-1,5
 537 164 537 164 567 164 c 0,6,7
 607 164 607 164 640 190 c 128,-1,8
 673 216 673 216 692 264.5 c 128,-1,9
 711 313 711 313 711 377 c 0,10,11
 711 449 711 449 684.5 505.5 c 128,-1,12
 658 562 658 562 606 594.5 c 128,-1,13
 554 627 554 627 479 627 c 2,14,-1
 377 627 l 1,15,-1
 377 809 l 1,16,-1
 492 809 l 2,17,18
 569 809 569 809 616.5 858 c 128,-1,19
 664 907 664 907 664 997 c 256,20,21
 664 1087 664 1087 616.5 1142.5 c 128,-1,22
 569 1198 569 1198 483 1198 c 0,23,24
 299 1198 299 1198 299 920 c 2,25,-1
 299 0 l 1,26,-1
 78 0 l 1,27,-1
 78 895 l 2,28,29
 78 1139 78 1139 186.5 1260.5 c 128,-1,30
 295 1382 295 1382 483 1382 c 0,31,32
 602 1382 602 1382 686.5 1334 c 128,-1,33
 771 1286 771 1286 814.5 1208 c 128,-1,34
 858 1130 858 1130 858 1042 c 0,35,36
 858 948 858 948 808 864.5 c 128,-1,37
 758 781 758 781 664 739 c 1,38,39
 797 698 797 698 863.5 601.5 c 128,-1,40
 930 505 930 505 930 360 c 0,41,42
 930 246 930 246 888.5 157.5 c 128,-1,43
 847 69 847 69 766.5 19 c 128,-1,44
 686 -31 686 -31 573 -31 c 0,45,0
 506 -31 506 -31 454 -15.5 c 128,-1,1
EndSplineSet
EndChar

StartChar: t
Encoding: 116 116 418
Width: 1024
GlyphClass: 2
Flags: W
AnchorPoint: "Anchor-8" 614 956 basechar 0
AnchorPoint: "Anchor-7" 430 600 basechar 0
AnchorPoint: "Anchor-6" 492 1202 basechar 0
AnchorPoint: "Anchor-5" 0 0 basechar 0
AnchorPoint: "Anchor-4" 594 0 basechar 0
LayerCount: 2
Fore
SplineSet
932 86 m 1,0,1
 857 30 857 30 776.5 0.5 c 128,-1,2
 696 -29 696 -29 602 -29 c 0,3,4
 453 -29 453 -29 374 59 c 128,-1,5
 295 147 295 147 295 362 c 0,6,7
 295 417 295 417 301 483 c 1,8,-1
 318 770 l 1,9,-1
 111 770 l 1,10,-1
 115 956 l 1,11,-1
 329 956 l 1,12,-1
 342 1180 l 1,13,-1
 594 1222 l 1,14,-1
 598 1199 l 1,15,16
 596 1196 596 1196 588 1184.5 c 128,-1,17
 580 1173 580 1173 575 1157.5 c 128,-1,18
 570 1142 570 1142 569 1121 c 2,19,-1
 554 956 l 1,20,-1
 848 956 l 1,21,-1
 844 770 l 1,22,-1
 550 770 l 1,23,-1
 528 498 l 2,24,25
 523 428 523 428 523 386 c 0,26,27
 523 259 523 259 554 208.5 c 128,-1,28
 585 158 585 158 651 158 c 0,29,30
 713 158 713 158 766 182 c 128,-1,31
 819 206 819 206 883 262 c 1,32,-1
 932 86 l 1,0,1
EndSplineSet
EndChar

StartChar: tbar
Encoding: 359 359 419
Width: 1024
GlyphClass: 2
Flags: W
AnchorPoint: "Anchor-8" 614 956 basechar 0
AnchorPoint: "Anchor-7" 430 600 basechar 0
AnchorPoint: "Anchor-6" 492 1202 basechar 0
AnchorPoint: "Anchor-5" 0 0 basechar 0
AnchorPoint: "Anchor-4" 594 0 basechar 0
LayerCount: 2
Fore
SplineSet
932 86 m 1,0,1
 857 30 857 30 776.5 0.5 c 128,-1,2
 696 -29 696 -29 602 -29 c 0,3,4
 453 -29 453 -29 374 58.5 c 128,-1,5
 295 146 295 146 295 361 c 0,6,7
 295 401 295 401 298 446 c 1,8,-1
 117 446 l 1,9,-1
 117 592 l 1,10,-1
 307 592 l 1,11,-1
 318 770 l 1,12,-1
 111 770 l 1,13,-1
 115 956 l 1,14,-1
 329 956 l 1,15,-1
 342 1180 l 1,16,-1
 594 1222 l 1,17,-1
 598 1199 l 1,18,19
 596 1196 596 1196 588 1184.5 c 128,-1,20
 580 1173 580 1173 575 1157.5 c 128,-1,21
 570 1142 570 1142 569 1121 c 2,22,-1
 554 956 l 1,23,-1
 848 956 l 1,24,-1
 844 770 l 1,25,-1
 550 770 l 1,26,-1
 536 592 l 1,27,-1
 844 592 l 1,28,-1
 844 446 l 1,29,-1
 525 446 l 1,30,31
 523 402 523 402 523 384 c 0,32,33
 523 258 523 258 554.5 208 c 128,-1,34
 586 158 586 158 651 158 c 0,35,36
 713 158 713 158 766 182 c 128,-1,37
 819 206 819 206 883 262 c 1,38,-1
 932 86 l 1,0,1
EndSplineSet
EndChar

StartChar: uni0163
Encoding: 355 355 421
Width: 1024
GlyphClass: 2
Flags: W
AnchorPoint: "Anchor-8" 614 956 basechar 0
AnchorPoint: "Anchor-7" 430 600 basechar 0
AnchorPoint: "Anchor-6" 492 1202 basechar 0
AnchorPoint: "Anchor-5" 0 0 basechar 0
AnchorPoint: "Anchor-4" 594 -389 basechar 0
LayerCount: 2
Fore
SplineSet
812.5 -109.5 m 128,-1,1
 854 -148 854 -148 854 -209 c 0,2,3
 854 -260 854 -260 824.5 -308.5 c 128,-1,4
 795 -357 795 -357 735.5 -388.5 c 128,-1,5
 676 -420 676 -420 592 -420 c 0,6,7
 449 -420 449 -420 334 -305 c 1,8,-1
 410 -172 l 1,9,10
 468 -233 468 -233 515.5 -257 c 128,-1,11
 563 -281 563 -281 617 -281 c 0,12,13
 663 -281 663 -281 687 -266.5 c 128,-1,14
 711 -252 711 -252 711 -227 c 0,15,16
 711 -204 711 -204 689 -193 c 128,-1,17
 667 -182 667 -182 614 -182 c 2,18,-1
 514 -182 l 1,19,-1
 536 -25 l 1,20,21
 419 -8 419 -8 357 82 c 128,-1,22
 295 172 295 172 295 362 c 0,23,24
 295 417 295 417 301 483 c 1,25,-1
 318 770 l 1,26,-1
 111 770 l 1,27,-1
 115 956 l 1,28,-1
 329 956 l 1,29,-1
 342 1180 l 1,30,-1
 594 1222 l 1,31,-1
 598 1199 l 1,32,33
 596 1196 596 1196 588 1184.5 c 128,-1,34
 580 1173 580 1173 575 1157.5 c 128,-1,35
 570 1142 570 1142 569 1121 c 2,36,-1
 554 956 l 1,37,-1
 848 956 l 1,38,-1
 844 770 l 1,39,-1
 550 770 l 1,40,-1
 528 498 l 2,41,42
 523 428 523 428 523 386 c 0,43,44
 523 259 523 259 554 208.5 c 128,-1,45
 585 158 585 158 651 158 c 0,46,47
 713 158 713 158 766 182 c 128,-1,48
 819 206 819 206 883 262 c 1,49,-1
 932 86 l 1,50,51
 821 2 821 2 700 -20 c 1,52,-1
 694 -63 l 1,53,0
 771 -71 771 -71 812.5 -109.5 c 128,-1,1
EndSplineSet
Substitution2: "'locl' +Vv0w+1cwV99W+mcJMG5bV19i in +MOkwxjDzZYdbVwAA lookup 7 subtable" uni021B
Substitution2: "'locl' +Vv0w+1cwV99W+mcJMG5bV19i in +MOkwxjDzZYdbVwAA lookup 6 subtable" uni021B
Substitution2: "'aalt' +MFkweTBmMG51cE9TW1cweDBuMKIwrzC7MLkA in +MOkwxjDzZYdbVwAA lookup 0 subtable" uni021B
EndChar

StartChar: u
Encoding: 117 117 426
Width: 1024
GlyphClass: 2
Flags: W
AnchorPoint: "Anchor-8" 903 956 basechar 0
AnchorPoint: "Anchor-7" 0 0 basechar 0
AnchorPoint: "Anchor-6" 512 956 basechar 0
AnchorPoint: "Anchor-5" 770 0 basechar 0
AnchorPoint: "Anchor-4" 451 0 basechar 0
LayerCount: 2
Fore
SplineSet
185.5 54.5 m 128,-1,1
 104 150 104 150 104 358 c 2,2,-1
 104 956 l 1,3,-1
 330 956 l 1,4,-1
 330 358 l 2,5,6
 330 251 330 251 366.5 199 c 128,-1,7
 403 147 403 147 467 147 c 0,8,9
 524 147 524 147 571 177 c 128,-1,10
 618 207 618 207 645 261 c 128,-1,11
 672 315 672 315 672 383 c 2,12,-1
 672 956 l 1,13,-1
 903 956 l 1,14,-1
 903 156 l 2,15,16
 903 95 903 95 906.5 63 c 128,-1,17
 910 31 910 31 924 0 c 1,18,-1
 700 0 l 1,19,20
 687 25 687 25 683.5 49.5 c 128,-1,21
 680 74 680 74 680 111 c 1,22,23
 640 42 640 42 566 0.5 c 128,-1,24
 492 -41 492 -41 422 -41 c 0,25,0
 267 -41 267 -41 185.5 54.5 c 128,-1,1
EndSplineSet
EndChar

StartChar: uhorn
Encoding: 432 432 435
Width: 1024
GlyphClass: 2
Flags: W
AnchorPoint: "Anchor-8" 770 956 basechar 0
AnchorPoint: "Anchor-7" 0 0 basechar 0
AnchorPoint: "Anchor-6" 492 956 basechar 0
AnchorPoint: "Anchor-5" 631 0 basechar 0
AnchorPoint: "Anchor-4" 389 0 basechar 0
LayerCount: 2
Fore
SplineSet
961.5 950.5 m 128,-1,1
 930 875 930 875 880 843 c 128,-1,2
 830 811 830 811 770 811 c 1,3,-1
 770 156 l 2,4,5
 770 95 770 95 773 63 c 128,-1,6
 776 31 776 31 789 0 c 1,7,-1
 587 0 l 1,8,9
 575 25 575 25 572 49.5 c 128,-1,10
 569 74 569 74 569 111 c 1,11,12
 533 42 533 42 466.5 0.5 c 128,-1,13
 400 -41 400 -41 337 -41 c 0,14,15
 198 -41 198 -41 124.5 54.5 c 128,-1,16
 51 150 51 150 51 358 c 2,17,-1
 51 956 l 1,18,-1
 254 956 l 1,19,-1
 254 358 l 2,20,21
 254 251 254 251 286.5 199 c 128,-1,22
 319 147 319 147 377 147 c 0,23,24
 429 147 429 147 471 177 c 128,-1,25
 513 207 513 207 537.5 261 c 128,-1,26
 562 315 562 315 562 383 c 2,27,-1
 562 956 l 1,28,-1
 770 956 l 2,29,30
 795 956 795 956 806 1001.5 c 128,-1,31
 817 1047 817 1047 817 1149 c 1,32,-1
 993 1149 l 1,33,0
 993 1026 993 1026 961.5 950.5 c 128,-1,1
EndSplineSet
EndChar

StartChar: uogonek
Encoding: 371 371 445
Width: 1024
GlyphClass: 2
Flags: W
AnchorPoint: "Anchor-8" 903 956 basechar 0
AnchorPoint: "Anchor-7" 0 0 basechar 0
AnchorPoint: "Anchor-6" 512 956 basechar 0
AnchorPoint: "Anchor-5" 770 0 basechar 0
AnchorPoint: "Anchor-4" 451 0 basechar 0
LayerCount: 2
Fore
SplineSet
821.5 -264 m 128,-1,1
 856 -292 856 -292 924 -307 c 1,2,-1
 832 -487 l 1,3,4
 698 -453 698 -453 629.5 -392.5 c 128,-1,5
 561 -332 561 -332 561 -258 c 0,6,7
 561 -195 561 -195 609.5 -128 c 128,-1,8
 658 -61 658 -61 750 0 c 1,9,-1
 700 0 l 1,10,11
 687 25 687 25 683.5 49.5 c 128,-1,12
 680 74 680 74 680 111 c 1,13,14
 640 42 640 42 566 0.5 c 128,-1,15
 492 -41 492 -41 422 -41 c 0,16,17
 267 -41 267 -41 185.5 54.5 c 128,-1,18
 104 150 104 150 104 358 c 2,19,-1
 104 956 l 1,20,-1
 330 956 l 1,21,-1
 330 358 l 2,22,23
 330 251 330 251 366.5 199 c 128,-1,24
 403 147 403 147 467 147 c 0,25,26
 524 147 524 147 571 177 c 128,-1,27
 618 207 618 207 645 261 c 128,-1,28
 672 315 672 315 672 383 c 2,29,-1
 672 956 l 1,30,-1
 903 956 l 1,31,-1
 903 156 l 2,32,33
 903 96 903 96 906 64 c 128,-1,34
 909 32 909 32 923 2 c 1,35,-1
 926 0 l 1,36,37
 787 -117 787 -117 787 -197 c 0,38,0
 787 -236 787 -236 821.5 -264 c 128,-1,1
EndSplineSet
EndChar

StartChar: v
Encoding: 118 118 449
Width: 1024
GlyphClass: 2
Flags: W
AnchorPoint: "Anchor-8" 0 0 basechar 0
AnchorPoint: "Anchor-7" 0 0 basechar 0
AnchorPoint: "Anchor-6" 508 956 basechar 0
AnchorPoint: "Anchor-5" 0 0 basechar 0
AnchorPoint: "Anchor-4" 512 0 basechar 0
LayerCount: 2
Fore
SplineSet
938 956 m 1,0,1
 933 872 933 872 906.5 788.5 c 128,-1,2
 880 705 880 705 829 575 c 2,3,-1
 602 0 l 1,4,-1
 414 0 l 1,5,-1
 51 956 l 1,6,-1
 279 956 l 1,7,-1
 518 255 l 1,8,-1
 655 602 l 1,9,10
 695 717 695 717 715 797 c 128,-1,11
 735 877 735 877 735 956 c 1,12,-1
 938 956 l 1,0,1
EndSplineSet
EndChar

StartChar: w
Encoding: 119 119 450
Width: 1024
GlyphClass: 2
Flags: W
AnchorPoint: "Anchor-8" 0 0 basechar 0
AnchorPoint: "Anchor-7" 0 0 basechar 0
AnchorPoint: "Anchor-6" 512 956 basechar 0
AnchorPoint: "Anchor-5" 0 0 basechar 0
AnchorPoint: "Anchor-4" 512 0 basechar 0
LayerCount: 2
Fore
SplineSet
16 956 m 1,0,-1
 242 956 l 1,1,-1
 338 281 l 1,2,-1
 457 846 l 1,3,-1
 598 846 l 1,4,-1
 733 283 l 1,5,6
 761 466 761 466 771.5 625 c 128,-1,7
 782 784 782 784 782 893 c 2,8,-1
 782 956 l 1,9,-1
 999 956 l 1,10,11
 972 719 972 719 933 462 c 128,-1,12
 894 205 894 205 852 0 c 1,13,-1
 649 0 l 1,14,-1
 524 532 l 1,15,-1
 406 0 l 1,16,-1
 197 0 l 1,17,-1
 16 956 l 1,0,-1
EndSplineSet
EndChar

StartChar: x
Encoding: 120 120 455
Width: 1024
GlyphClass: 2
Flags: W
AnchorPoint: "Anchor-8" 0 0 basechar 0
AnchorPoint: "Anchor-7" 0 0 basechar 0
AnchorPoint: "Anchor-6" 512 956 basechar 0
AnchorPoint: "Anchor-5" 0 0 basechar 0
AnchorPoint: "Anchor-4" 512 0 basechar 0
LayerCount: 2
Fore
SplineSet
51 0 m 1,0,-1
 381 485 l 1,1,-1
 55 956 l 1,2,-1
 313 956 l 1,3,-1
 508 647 l 1,4,-1
 694 956 l 1,5,-1
 942 956 l 1,6,-1
 637 492 l 1,7,-1
 981 0 l 1,8,-1
 719 0 l 1,9,-1
 510 324 l 1,10,-1
 313 0 l 1,11,-1
 51 0 l 1,0,-1
EndSplineSet
EndChar

StartChar: y
Encoding: 121 121 456
Width: 1024
GlyphClass: 2
Flags: W
AnchorPoint: "Anchor-8" 0 0 basechar 0
AnchorPoint: "Anchor-7" 0 0 basechar 0
AnchorPoint: "Anchor-6" 532 956 basechar 0
AnchorPoint: "Anchor-5" 0 0 basechar 0
AnchorPoint: "Anchor-4" 813 0 basechar 0
LayerCount: 2
Fore
SplineSet
930 956 m 1,0,1
 927 874 927 874 904 789.5 c 128,-1,2
 881 705 881 705 838 588 c 2,3,-1
 600 -68 l 2,4,5
 542 -227 542 -227 458.5 -294.5 c 128,-1,6
 375 -362 375 -362 256 -362 c 0,7,8
 189 -362 189 -362 135.5 -339.5 c 128,-1,9
 82 -317 82 -317 20 -268 c 1,10,-1
 95 -104 l 1,11,-1
 96 -102 l 2,12,13
 97 -102 97 -102 99 -104 c 0,14,15
 100 -105 100 -105 119 -121 c 0,16,17
 160 -153 160 -153 188.5 -169.5 c 128,-1,18
 217 -186 217 -186 250 -186 c 0,19,20
 300 -186 300 -186 344 -136 c 128,-1,21
 388 -86 388 -86 425 4 c 1,22,-1
 63 956 l 1,23,-1
 287 956 l 1,24,-1
 527 285 l 1,25,-1
 651 627 l 1,26,27
 681 720 681 720 696.5 790 c 128,-1,28
 712 860 712 860 712 928 c 0,29,30
 712 947 712 947 711 956 c 1,31,-1
 930 956 l 1,0,1
125 -100 m 2,32,33
 125 -103 125 -103 121 -103 c 0,34,35
 118 -103 118 -103 99 -96 c 1,36,-1
 103 -87 l 1,37,-1
 124 -97 l 1,38,-1
 125 -100 l 2,32,33
87 -93 m 0,40,41
 87 -92 87 -92 99 -96 c 1,42,-1
 96 -102 l 1,43,39
 87 -95 87 -95 87 -93 c 0,40,41
EndSplineSet
EndChar

StartChar: z
Encoding: 122 122 466
Width: 1024
GlyphClass: 2
Flags: W
AnchorPoint: "Anchor-8" 0 0 basechar 0
AnchorPoint: "Anchor-7" 0 0 basechar 0
AnchorPoint: "Anchor-6" 522 956 basechar 0
AnchorPoint: "Anchor-5" 0 0 basechar 0
AnchorPoint: "Anchor-4" 512 0 basechar 0
LayerCount: 2
Fore
SplineSet
88 143 m 1,0,-1
 584 762 l 1,1,-1
 127 762 l 1,2,-1
 127 956 l 1,3,-1
 891 956 l 1,4,-1
 891 813 l 1,5,-1
 401 193 l 1,6,-1
 837 193 l 2,7,8
 870 193 870 193 885.5 196.5 c 128,-1,9
 901 200 901 200 913 211 c 1,10,-1
 936 211 l 1,11,-1
 936 0 l 1,12,-1
 88 0 l 1,13,-1
 88 143 l 1,0,-1
EndSplineSet
EndChar

StartChar: u.i
Encoding: 65539 -1 471
Width: 1024
GlyphClass: 2
Flags: W
AnchorPoint: "Anchor-8" 770 956 basechar 0
AnchorPoint: "Anchor-7" 0 0 basechar 0
AnchorPoint: "Anchor-6" 395 956 basechar 0
AnchorPoint: "Anchor-5" 631 0 basechar 0
AnchorPoint: "Anchor-4" 348 0 basechar 0
LayerCount: 2
Fore
SplineSet
124.5 54.5 m 128,-1,1
 51 150 51 150 51 358 c 2,2,-1
 51 956 l 1,3,-1
 254 956 l 1,4,-1
 254 358 l 2,5,6
 254 251 254 251 286.5 199 c 128,-1,7
 319 147 319 147 377 147 c 0,8,9
 429 147 429 147 471 177 c 128,-1,10
 513 207 513 207 537.5 261 c 128,-1,11
 562 315 562 315 562 383 c 2,12,-1
 562 956 l 1,13,-1
 770 956 l 1,14,-1
 770 156 l 2,15,16
 770 95 770 95 773 63 c 128,-1,17
 776 31 776 31 789 0 c 1,18,-1
 587 0 l 1,19,20
 575 25 575 25 572 49.5 c 128,-1,21
 569 74 569 74 569 111 c 1,22,23
 533 42 533 42 466.5 0.5 c 128,-1,24
 400 -41 400 -41 337 -41 c 0,25,0
 198 -41 198 -41 124.5 54.5 c 128,-1,1
EndSplineSet
EndChar

StartChar: r.serif
Encoding: 65540 -1 472
Width: 1024
GlyphClass: 2
Flags: W
LayerCount: 2
Fore
SplineSet
59 178 m 1,0,-1
 182 178 l 1,1,-1
 182 772 l 1,2,-1
 63 772 l 1,3,-1
 63 956 l 1,4,-1
 418 956 l 1,5,-1
 418 811 l 1,6,7
 464 893 464 893 539 936 c 128,-1,8
 614 979 614 979 700 979 c 0,9,10
 770 979 770 979 838 951.5 c 128,-1,11
 906 924 906 924 961 872 c 1,12,-1
 887 696 l 1,13,-1
 854 724 l 2,14,15
 818 755 818 755 793.5 772 c 128,-1,16
 769 789 769 789 733.5 799 c 128,-1,17
 698 809 698 809 645 809 c 0,18,19
 591 809 591 809 538 783.5 c 128,-1,20
 485 758 485 758 449.5 703.5 c 128,-1,21
 414 649 414 649 414 567 c 2,22,-1
 414 178 l 1,23,-1
 590 178 l 1,24,-1
 590 0 l 1,25,-1
 59 0 l 1,26,-1
 59 178 l 1,0,-1
EndSplineSet
EndChar

StartChar: fi
Encoding: 64257 64257 473
Width: 1024
GlyphClass: 3
Flags: W
LayerCount: 2
Fore
SplineSet
594 1143 m 1,0,1
 570 1180 570 1180 541.5 1198.5 c 128,-1,2
 513 1217 513 1217 477 1217 c 0,3,4
 446 1217 446 1217 419.5 1193.5 c 128,-1,5
 393 1170 393 1170 377.5 1123.5 c 128,-1,6
 362 1077 362 1077 362 1010 c 2,7,-1
 362 956 l 1,8,-1
 573 956 l 1,9,-1
 573 772 l 1,10,-1
 362 772 l 1,11,-1
 362 0 l 1,12,-1
 139 0 l 1,13,-1
 139 772 l 1,14,-1
 37 772 l 1,15,-1
 37 956 l 1,16,-1
 139 956 l 1,17,-1
 139 1008 l 2,18,19
 139 1130 139 1130 176 1218 c 128,-1,20
 213 1306 213 1306 282.5 1352.5 c 128,-1,21
 352 1399 352 1399 449 1399 c 0,22,23
 507 1399 507 1399 544.5 1391 c 128,-1,24
 582 1383 582 1383 611.5 1367 c 128,-1,25
 641 1351 641 1351 682 1319 c 1,26,-1
 594 1143 l 1,0,1
767 1140.5 m 128,-1,28
 734 1159 734 1159 715 1190 c 128,-1,29
 696 1221 696 1221 696 1257 c 0,30,31
 696 1316 696 1316 736 1354.5 c 128,-1,32
 776 1393 776 1393 839 1393 c 0,33,34
 876 1393 876 1393 909.5 1374.5 c 128,-1,35
 943 1356 943 1356 963 1324.5 c 128,-1,36
 983 1293 983 1293 983 1257 c 256,37,38
 983 1221 983 1221 963 1190 c 128,-1,39
 943 1159 943 1159 909.5 1140.5 c 128,-1,40
 876 1122 876 1122 839 1122 c 0,41,27
 800 1122 800 1122 767 1140.5 c 128,-1,28
565 1142 m 2,42,43
 565 1143 565 1143 565.5 1143 c 128,-1,44
 566 1143 566 1143 566 1143 c 2,45,46
 570 1143 570 1143 588 1132 c 1,47,-1
 587 1129 l 1,48,-1
 566 1139 l 1,49,-1
 565 1142 l 2,42,43
594 1143 m 1,50,51
 601 1132 601 1132 601 1128 c 1,52,-1
 600 1126 l 1,53,54
 598 1126 598 1126 588 1132 c 1,55,-1
 594 1143 l 1,50,51
662 772 m 1,56,-1
 662 956 l 1,57,-1
 969 956 l 1,58,-1
 969 0 l 1,59,-1
 739 0 l 1,60,-1
 739 772 l 1,61,-1
 662 772 l 1,56,-1
EndSplineSet
EndChar

StartChar: fl
Encoding: 64258 64258 474
Width: 1024
GlyphClass: 3
Flags: W
LayerCount: 2
Fore
SplineSet
614 1143 m 1,0,1
 590 1180 590 1180 561 1198.5 c 128,-1,2
 532 1217 532 1217 494 1217 c 0,3,4
 458 1217 458 1217 428 1193.5 c 128,-1,5
 398 1170 398 1170 380 1123.5 c 128,-1,6
 362 1077 362 1077 362 1010 c 2,7,-1
 362 956 l 1,8,-1
 573 956 l 1,9,-1
 573 774 l 1,10,-1
 362 774 l 1,11,-1
 362 0 l 1,12,-1
 139 0 l 1,13,-1
 139 774 l 1,14,-1
 37 774 l 1,15,-1
 37 956 l 1,16,-1
 139 956 l 1,17,-1
 139 1008 l 2,18,19
 139 1126 139 1126 184.5 1215 c 128,-1,20
 230 1304 230 1304 305.5 1351.5 c 128,-1,21
 381 1399 381 1399 469 1399 c 0,22,23
 539 1399 539 1399 590 1381 c 128,-1,24
 641 1363 641 1363 702 1319 c 1,25,-1
 614 1143 l 1,0,1
752 1382 m 1,26,-1
 975 1382 l 1,27,-1
 975 0 l 1,28,-1
 752 0 l 1,29,-1
 752 1382 l 1,26,-1
585 1142 m 2,30,31
 585 1143 585 1143 585.5 1143 c 128,-1,32
 586 1143 586 1143 586 1143 c 2,33,34
 590 1143 590 1143 608 1132 c 1,35,-1
 607 1129 l 1,36,-1
 586 1139 l 1,37,-1
 585 1142 l 2,30,31
621 1128 m 1,39,-1
 620 1126 l 1,40,41
 618 1126 618 1126 608 1132 c 1,42,-1
 614 1143 l 1,43,38
 621 1132 621 1132 621 1128 c 1,39,-1
EndSplineSet
EndChar

StartChar: ordfeminine
Encoding: 170 170 475
Width: 1024
GlyphClass: 2
Flags: W
LayerCount: 2
Fore
SplineSet
304 544 m 128,-1,1
 248 574 248 574 215 626.5 c 128,-1,2
 182 679 182 679 182 745 c 0,3,4
 182 863 182 863 279.5 919 c 128,-1,5
 377 975 377 975 535 975 c 0,6,7
 582 975 582 975 621 971 c 1,8,9
 621 1047 621 1047 595 1079.5 c 128,-1,10
 569 1112 569 1112 516 1112 c 0,11,12
 468 1112 468 1112 424.5 1092 c 128,-1,13
 381 1072 381 1072 334 1030 c 1,14,-1
 221 1143 l 1,15,16
 289 1213 289 1213 363 1244.5 c 128,-1,17
 437 1276 437 1276 528 1276 c 0,18,19
 670 1276 670 1276 747.5 1205.5 c 128,-1,20
 825 1135 825 1135 825 1001 c 2,21,-1
 825 535 l 1,22,-1
 623 535 l 1,23,-1
 623 627 l 1,24,25
 594 568 594 568 546.5 541 c 128,-1,26
 499 514 499 514 426 514 c 0,27,0
 360 514 360 514 304 544 c 128,-1,1
583 714 m 128,-1,29
 627 752 627 752 627 842 c 1,30,31
 589 845 589 845 560 845 c 0,32,33
 468 845 468 845 429.5 820.5 c 128,-1,34
 391 796 391 796 391 748 c 0,35,36
 391 720 391 720 415 698 c 128,-1,37
 439 676 439 676 479 676 c 0,38,28
 539 676 539 676 583 714 c 128,-1,29
141 293 m 1,39,-1
 141 453 l 1,40,-1
 889 453 l 1,41,-1
 889 293 l 1,42,-1
 141 293 l 1,39,-1
EndSplineSet
EndChar

StartChar: ordmasculine
Encoding: 186 186 476
Width: 1024
GlyphClass: 2
Flags: W
LayerCount: 2
Fore
SplineSet
336 590 m 128,-1,1
 261 637 261 637 217.5 722 c 128,-1,2
 174 807 174 807 174 915 c 0,3,4
 174 1028 174 1028 220.5 1118 c 128,-1,5
 267 1208 267 1208 344.5 1258.5 c 128,-1,6
 422 1309 422 1309 510 1309 c 0,7,8
 602 1309 602 1309 676 1264.5 c 128,-1,9
 750 1220 750 1220 793 1134.5 c 128,-1,10
 836 1049 836 1049 836 930 c 0,11,12
 836 812 836 812 790 724 c 128,-1,13
 744 636 744 636 667.5 589.5 c 128,-1,14
 591 543 591 543 502 543 c 0,15,0
 411 543 411 543 336 590 c 128,-1,1
566.5 751.5 m 128,-1,17
 595 774 595 774 612 818 c 128,-1,18
 629 862 629 862 629 922 c 0,19,20
 629 984 629 984 612 1030.5 c 128,-1,21
 595 1077 595 1077 567 1101.5 c 128,-1,22
 539 1126 539 1126 506 1126 c 0,23,24
 472 1126 472 1126 443.5 1101.5 c 128,-1,25
 415 1077 415 1077 398 1031.5 c 128,-1,26
 381 986 381 986 381 924 c 0,27,28
 381 864 381 864 397.5 819.5 c 128,-1,29
 414 775 414 775 442 752 c 128,-1,30
 470 729 470 729 504 729 c 256,31,16
 538 729 538 729 566.5 751.5 c 128,-1,17
137 307 m 1,32,-1
 137 483 l 1,33,-1
 889 483 l 1,34,-1
 889 307 l 1,35,-1
 137 307 l 1,32,-1
EndSplineSet
EndChar

StartChar: uni2124
Encoding: 8484 8484 478
Width: 1024
GlyphClass: 2
Flags: W
LayerCount: 2
Fore
SplineSet
950 1176 m 1,0,-1
 447 127 l 1,1,-1
 849 127 l 2,2,3
 882 127 882 127 897.5 130.5 c 128,-1,4
 913 134 913 134 925 145 c 1,5,-1
 948 145 l 1,6,-1
 948 0 l 1,7,-1
 102 0 l 1,8,-1
 102 100 l 1,9,-1
 614 1147 l 1,10,-1
 106 1147 l 1,11,-1
 106 1276 l 1,12,-1
 950 1276 l 1,13,-1
 950 1176 l 1,0,-1
221 127 m 1,14,-1
 345 127 l 1,15,-1
 834 1147 l 1,16,-1
 713 1147 l 1,17,-1
 221 127 l 1,14,-1
EndSplineSet
EndChar

StartChar: zero
Encoding: 48 48 479
Width: 1024
Flags: W
LayerCount: 2
Fore
SplineSet
750 1221 m 128,-1,1
 849 1142 849 1142 901.5 991.5 c 128,-1,2
 954 841 954 841 954 631 c 256,3,4
 954 421 954 421 901.5 270.5 c 128,-1,5
 849 120 849 120 750 40.5 c 128,-1,6
 651 -39 651 -39 512 -39 c 256,7,8
 373 -39 373 -39 274 40.5 c 128,-1,9
 175 120 175 120 122.5 270.5 c 128,-1,10
 70 421 70 421 70 631 c 256,11,12
 70 841 70 841 122.5 991.5 c 128,-1,13
 175 1142 175 1142 274 1221 c 128,-1,14
 373 1300 373 1300 512 1300 c 256,15,0
 651 1300 651 1300 750 1221 c 128,-1,1
392 1058.5 m 128,-1,17
 342 1001 342 1001 315.5 892 c 128,-1,18
 289 783 289 783 289 631 c 0,19,20
 289 553 289 553 297 478 c 1,21,-1
 692 947 l 1,22,23
 664 1029 664 1029 618 1072.5 c 128,-1,24
 572 1116 572 1116 512 1116 c 0,25,16
 442 1116 442 1116 392 1058.5 c 128,-1,17
632 203 m 128,-1,27
 682 261 682 261 708.5 370 c 128,-1,28
 735 479 735 479 735 631 c 0,29,30
 735 721 735 721 726 794 c 1,31,-1
 329 322 l 1,32,33
 357 236 357 236 403.5 190.5 c 128,-1,34
 450 145 450 145 512 145 c 0,35,26
 582 145 582 145 632 203 c 128,-1,27
EndSplineSet
Substitution2: "'ss02' +MLkwvzCkMOswuzDDMMgA-2 in +MOkwxjDzZYdbVwAA lookup 26 subtable" zero.ss02
Substitution2: "'zero' +MLkw6TDDMLcw5TBkME0wvDDt in +MOkwxjDzZYdbVwAA lookup 23 subtable" zero.zero
Substitution2: "'frac' +ZZwwgTBuUgZlcAAA in +MOkwxjDzZYdbVwAA lookup 18 subtable" zero.numr
Substitution2: "'dnom' +UgZrzQAA in +MOkwxjDzZYdbVwAA lookup 16 subtable" zero.dnom
Substitution2: "'numr' +UgZbUAAA in +MOkwxjDzZYdbVwAA lookup 15 subtable" zero.numr
Substitution2: "'sups' +TgowZDBNZYdbVwAA in +MOkwxjDzZYdbVwAA lookup 14 subtable" uni2070
Substitution2: "'subs' +TgswZDBNZYdbVwAA in +MOkwxjDzZYdbVwAA lookup 13 subtable" uni2080
AlternateSubs2: "'aalt' +MFkweTBmMG51cE9TW1cweDBuMKIwrzC7MLkA in +MOkwxjDzZYdbVwAA lookup 1 subtable" uni2080 uni2070 zero.numr zero.dnom zero.zero zero.ss02
EndChar

StartChar: one
Encoding: 49 49 480
Width: 1024
Flags: W
LayerCount: 2
Fore
SplineSet
428 0 m 1,0,-1
 428 1016 l 1,1,-1
 209 950 l 1,2,-1
 154 1090 l 1,3,-1
 500 1276 l 1,4,-1
 653 1276 l 1,5,-1
 653 0 l 1,6,-1
 428 0 l 1,0,-1
EndSplineSet
Substitution2: "'frac' +ZZwwgTBuUgZlcAAA in +MOkwxjDzZYdbVwAA lookup 18 subtable" one.numr
Substitution2: "'dnom' +UgZrzQAA in +MOkwxjDzZYdbVwAA lookup 16 subtable" one.dnom
Substitution2: "'numr' +UgZbUAAA in +MOkwxjDzZYdbVwAA lookup 15 subtable" one.numr
Substitution2: "'sups' +TgowZDBNZYdbVwAA in +MOkwxjDzZYdbVwAA lookup 14 subtable" uni00B9
Substitution2: "'subs' +TgswZDBNZYdbVwAA in +MOkwxjDzZYdbVwAA lookup 13 subtable" uni2081
AlternateSubs2: "'aalt' +MFkweTBmMG51cE9TW1cweDBuMKIwrzC7MLkA in +MOkwxjDzZYdbVwAA lookup 1 subtable" uni2081 uni00B9 one.numr one.dnom
EndChar

StartChar: two
Encoding: 50 50 481
Width: 1024
Flags: W
LayerCount: 2
Fore
SplineSet
117 168 m 1,0,1
 364 405 364 405 471.5 518 c 128,-1,2
 579 631 579 631 635.5 728.5 c 128,-1,3
 692 826 692 826 692 928 c 0,4,5
 692 1009 692 1009 641 1056.5 c 128,-1,6
 590 1104 590 1104 504 1104 c 0,7,8
 452 1104 452 1104 405 1092 c 128,-1,9
 358 1080 358 1080 326 1063 c 128,-1,10
 294 1046 294 1046 286 1031 c 0,11,12
 246 959 246 959 246 952 c 0,13,14
 246 951 246 951 247 951 c 0,15,16
 249 952 249 952 253 955 c 128,-1,17
 257 958 257 958 260.5 959 c 128,-1,18
 264 960 264 960 265 955 c 1,19,-1
 254 935 l 1,20,-1
 238 944 l 1,21,-1
 86 1059 l 1,22,23
 160 1178 160 1178 267.5 1241.5 c 128,-1,24
 375 1305 375 1305 508 1305 c 0,25,26
 622 1305 622 1305 713 1257.5 c 128,-1,27
 804 1210 804 1210 855.5 1125 c 128,-1,28
 907 1040 907 1040 907 930 c 0,29,30
 907 821 907 821 855.5 721 c 128,-1,31
 804 621 804 621 720.5 527 c 128,-1,32
 637 433 637 433 475 271 c 1,33,-1
 393 190 l 1,34,-1
 810 190 l 2,35,36
 843 190 843 190 858.5 193.5 c 128,-1,37
 874 197 874 197 886 208 c 1,38,-1
 909 208 l 1,39,-1
 909 0 l 1,40,-1
 117 0 l 1,41,-1
 117 168 l 1,0,1
EndSplineSet
Substitution2: "'frac' +ZZwwgTBuUgZlcAAA in +MOkwxjDzZYdbVwAA lookup 18 subtable" two.numr
Substitution2: "'dnom' +UgZrzQAA in +MOkwxjDzZYdbVwAA lookup 16 subtable" two.dnom
Substitution2: "'numr' +UgZbUAAA in +MOkwxjDzZYdbVwAA lookup 15 subtable" two.numr
Substitution2: "'sups' +TgowZDBNZYdbVwAA in +MOkwxjDzZYdbVwAA lookup 14 subtable" uni00B2
Substitution2: "'subs' +TgswZDBNZYdbVwAA in +MOkwxjDzZYdbVwAA lookup 13 subtable" uni2082
AlternateSubs2: "'aalt' +MFkweTBmMG51cE9TW1cweDBuMKIwrzC7MLkA in +MOkwxjDzZYdbVwAA lookup 1 subtable" uni2082 uni00B2 two.numr two.dnom
EndChar

StartChar: three
Encoding: 51 51 482
Width: 1024
Flags: W
LayerCount: 2
Fore
SplineSet
844 567.5 m 128,-1,1
 905 486 905 486 905 358 c 0,2,3
 905 247 905 247 853.5 156.5 c 128,-1,4
 802 66 802 66 705 13.5 c 128,-1,5
 608 -39 608 -39 475 -39 c 0,6,7
 213 -39 213 -39 76 133 c 1,8,-1
 171 324 l 1,9,-1
 172 325 l 1,10,-1
 173 323 l 1,11,12
 218 236 218 236 290.5 198 c 128,-1,13
 363 160 363 160 477 160 c 0,14,15
 571 160 571 160 623.5 216.5 c 128,-1,16
 676 273 676 273 676 367 c 0,17,18
 676 470 676 470 618.5 520.5 c 128,-1,19
 561 571 561 571 424 571 c 0,20,21
 376 571 376 571 317 565 c 1,22,-1
 317 750 l 1,23,24
 332 749 332 749 360 749 c 0,25,26
 518 749 518 749 579.5 800 c 128,-1,27
 641 851 641 851 641 942 c 0,28,29
 641 1016 641 1016 597.5 1062 c 128,-1,30
 554 1108 554 1108 475 1108 c 0,31,32
 406 1108 406 1108 347.5 1084 c 128,-1,33
 289 1060 289 1060 225 1001 c 1,34,-1
 96 1133 l 1,35,36
 169 1220 169 1220 266 1262.5 c 128,-1,37
 363 1305 363 1305 473 1305 c 0,38,39
 590 1305 590 1305 680.5 1260.5 c 128,-1,40
 771 1216 771 1216 821.5 1138.5 c 128,-1,41
 872 1061 872 1061 872 965 c 0,42,43
 872 862 872 862 819.5 787.5 c 128,-1,44
 767 713 767 713 694 680 c 1,45,0
 783 649 783 649 844 567.5 c 128,-1,1
168 338 m 0,47,48
 168 340 168 340 170 340 c 256,49,50
 172 340 172 340 178 337 c 1,51,-1
 172 325 l 1,52,46
 168 333 168 333 168 338 c 0,47,48
201 327 m 2,53,54
 201 326 201 326 200 326 c 0,55,56
 197 326 197 326 189.5 330.5 c 128,-1,57
 182 335 182 335 178 337 c 1,58,-1
 179 340 l 1,59,-1
 200 330 l 1,60,-1
 201 327 l 2,53,54
EndSplineSet
Substitution2: "'frac' +ZZwwgTBuUgZlcAAA in +MOkwxjDzZYdbVwAA lookup 18 subtable" three.numr
Substitution2: "'dnom' +UgZrzQAA in +MOkwxjDzZYdbVwAA lookup 16 subtable" three.dnom
Substitution2: "'numr' +UgZbUAAA in +MOkwxjDzZYdbVwAA lookup 15 subtable" three.numr
Substitution2: "'sups' +TgowZDBNZYdbVwAA in +MOkwxjDzZYdbVwAA lookup 14 subtable" uni00B3
Substitution2: "'subs' +TgswZDBNZYdbVwAA in +MOkwxjDzZYdbVwAA lookup 13 subtable" uni2083
AlternateSubs2: "'aalt' +MFkweTBmMG51cE9TW1cweDBuMKIwrzC7MLkA in +MOkwxjDzZYdbVwAA lookup 1 subtable" uni2083 uni00B3 three.numr three.dnom
EndChar

StartChar: four
Encoding: 52 52 483
Width: 1024
Flags: W
LayerCount: 2
Fore
SplineSet
557 0 m 1,0,-1
 557 315 l 1,1,-1
 70 315 l 1,2,-1
 70 459 l 1,3,-1
 623 1276 l 1,4,-1
 788 1276 l 1,5,-1
 788 506 l 1,6,-1
 958 506 l 1,7,-1
 958 313 l 1,8,-1
 788 313 l 1,9,-1
 788 0 l 1,10,-1
 557 0 l 1,0,-1
307 500 m 1,11,-1
 565 500 l 1,12,-1
 565 881 l 1,13,-1
 307 500 l 1,11,-1
EndSplineSet
Substitution2: "'frac' +ZZwwgTBuUgZlcAAA in +MOkwxjDzZYdbVwAA lookup 18 subtable" four.numr
Substitution2: "'dnom' +UgZrzQAA in +MOkwxjDzZYdbVwAA lookup 16 subtable" four.dnom
Substitution2: "'numr' +UgZbUAAA in +MOkwxjDzZYdbVwAA lookup 15 subtable" four.numr
Substitution2: "'sups' +TgowZDBNZYdbVwAA in +MOkwxjDzZYdbVwAA lookup 14 subtable" uni2074
Substitution2: "'subs' +TgswZDBNZYdbVwAA in +MOkwxjDzZYdbVwAA lookup 13 subtable" uni2084
AlternateSubs2: "'aalt' +MFkweTBmMG51cE9TW1cweDBuMKIwrzC7MLkA in +MOkwxjDzZYdbVwAA lookup 1 subtable" uni2084 uni2074 four.numr four.dnom
EndChar

StartChar: five
Encoding: 53 53 484
Width: 1024
Flags: W
LayerCount: 2
Fore
SplineSet
756 803 m 128,-1,1
 846 750 846 750 895 650 c 128,-1,2
 944 550 944 550 944 412 c 0,3,4
 944 279 944 279 892 177 c 128,-1,5
 840 75 840 75 744 18 c 128,-1,6
 648 -39 648 -39 520 -39 c 0,7,8
 238 -39 238 -39 109 203 c 1,9,-1
 279 333 l 1,10,-1
 281 334 l 1,11,-1
 282 332 l 2,12,13
 309 280 309 280 337 244.5 c 128,-1,14
 365 209 365 209 408 186.5 c 128,-1,15
 451 164 451 164 512 164 c 0,16,17
 571 164 571 164 617 192.5 c 128,-1,18
 663 221 663 221 690 277 c 128,-1,19
 717 333 717 333 717 414 c 0,20,21
 717 533 717 533 663 599.5 c 128,-1,22
 609 666 609 666 520 666 c 0,23,24
 459 666 459 666 412 636.5 c 128,-1,25
 365 607 365 607 319 543 c 1,26,-1
 172 606 l 1,27,-1
 219 1276 l 1,28,-1
 905 1276 l 1,29,-1
 905 1081 l 1,30,-1
 420 1081 l 1,31,-1
 403 834 l 1,32,33
 478 856 478 856 545 856 c 0,34,0
 666 856 666 856 756 803 c 128,-1,1
276 346 m 256,36,37
 276 349 276 349 285 338 c 1,38,-1
 281 334 l 1,39,35
 276 343 276 343 276 346 c 256,36,37
305 321 m 256,41,42
 302 321 302 321 294.5 328.5 c 128,-1,43
 287 336 287 336 285 338 c 1,44,-1
 294 344 l 1,45,-1
 308 325 l 1,46,40
 308 321 308 321 305 321 c 256,41,42
EndSplineSet
Substitution2: "'frac' +ZZwwgTBuUgZlcAAA in +MOkwxjDzZYdbVwAA lookup 18 subtable" five.numr
Substitution2: "'dnom' +UgZrzQAA in +MOkwxjDzZYdbVwAA lookup 16 subtable" five.dnom
Substitution2: "'numr' +UgZbUAAA in +MOkwxjDzZYdbVwAA lookup 15 subtable" five.numr
Substitution2: "'sups' +TgowZDBNZYdbVwAA in +MOkwxjDzZYdbVwAA lookup 14 subtable" uni2075
Substitution2: "'subs' +TgswZDBNZYdbVwAA in +MOkwxjDzZYdbVwAA lookup 13 subtable" uni2085
AlternateSubs2: "'aalt' +MFkweTBmMG51cE9TW1cweDBuMKIwrzC7MLkA in +MOkwxjDzZYdbVwAA lookup 1 subtable" uni2085 uni2075 five.numr five.dnom
EndChar

StartChar: six
Encoding: 54 54 485
Width: 1024
Flags: W
LayerCount: 2
Fore
SplineSet
739 794 m 128,-1,1
 827 738 827 738 878.5 638.5 c 128,-1,2
 930 539 930 539 930 414 c 0,3,4
 930 288 930 288 876.5 184.5 c 128,-1,5
 823 81 823 81 731.5 21 c 128,-1,6
 640 -39 640 -39 530 -39 c 0,7,8
 399 -39 399 -39 302.5 41 c 128,-1,9
 206 121 206 121 155 263 c 128,-1,10
 104 405 104 405 104 588 c 0,11,12
 104 807 104 807 163.5 968.5 c 128,-1,13
 223 1130 223 1130 331 1216.5 c 128,-1,14
 439 1303 439 1303 580 1303 c 0,15,16
 666 1303 666 1303 748 1264.5 c 128,-1,17
 830 1226 830 1226 901 1153 c 1,18,-1
 757 1000 l 1,19,-1
 756 999 l 1,20,-1
 743 1016 l 1,21,22
 716 1049 716 1049 697.5 1066.5 c 128,-1,23
 679 1084 679 1084 651 1095 c 128,-1,24
 623 1106 623 1106 580 1106 c 0,25,26
 526 1106 526 1106 475 1071 c 128,-1,27
 424 1036 424 1036 385.5 957.5 c 128,-1,28
 347 879 347 879 334 754 c 1,29,30
 375 795 375 795 433 822.5 c 128,-1,31
 491 850 491 850 545 850 c 0,32,0
 651 850 651 850 739 794 c 128,-1,1
728 1004 m 2,33,34
 728 1007 728 1007 731 1007 c 0,35,36
 736 1007 736 1007 752 995 c 1,37,-1
 745 987 l 1,38,-1
 728 1003 l 1,39,-1
 728 1004 l 2,33,34
765 986 m 1,41,42
 765 986 765 986 752 995 c 1,43,-1
 756 999 l 1,44,40
 765 989 765 989 765 986 c 1,41,42
620 200.5 m 128,-1,46
 658 229 658 229 680 283.5 c 128,-1,47
 702 338 702 338 702 414 c 256,48,49
 702 490 702 490 677 543 c 128,-1,50
 652 596 652 596 613 621.5 c 128,-1,51
 574 647 574 647 532 647 c 0,52,53
 477 647 477 647 424.5 613.5 c 128,-1,54
 372 580 372 580 338 524 c 1,55,56
 338 416 338 416 363.5 336.5 c 128,-1,57
 389 257 389 257 433.5 214.5 c 128,-1,58
 478 172 478 172 535 172 c 0,59,45
 582 172 582 172 620 200.5 c 128,-1,46
EndSplineSet
Substitution2: "'frac' +ZZwwgTBuUgZlcAAA in +MOkwxjDzZYdbVwAA lookup 18 subtable" six.numr
Substitution2: "'dnom' +UgZrzQAA in +MOkwxjDzZYdbVwAA lookup 16 subtable" six.dnom
Substitution2: "'numr' +UgZbUAAA in +MOkwxjDzZYdbVwAA lookup 15 subtable" six.numr
Substitution2: "'sups' +TgowZDBNZYdbVwAA in +MOkwxjDzZYdbVwAA lookup 14 subtable" uni2076
Substitution2: "'subs' +TgswZDBNZYdbVwAA in +MOkwxjDzZYdbVwAA lookup 13 subtable" uni2086
AlternateSubs2: "'aalt' +MFkweTBmMG51cE9TW1cweDBuMKIwrzC7MLkA in +MOkwxjDzZYdbVwAA lookup 1 subtable" uni2086 uni2076 six.numr six.dnom
EndChar

StartChar: seven
Encoding: 55 55 486
Width: 1024
Flags: W
LayerCount: 2
Fore
SplineSet
433.5 576 m 128,-1,1
 528 837 528 837 627 1075 c 1,2,-1
 135 1075 l 1,3,-1
 135 1276 l 1,4,-1
 903 1276 l 1,5,-1
 903 1159 l 1,6,7
 682 656 682 656 481 0 c 1,8,-1
 233 0 l 1,9,0
 339 315 339 315 433.5 576 c 128,-1,1
EndSplineSet
Substitution2: "'frac' +ZZwwgTBuUgZlcAAA in +MOkwxjDzZYdbVwAA lookup 18 subtable" seven.numr
Substitution2: "'dnom' +UgZrzQAA in +MOkwxjDzZYdbVwAA lookup 16 subtable" seven.dnom
Substitution2: "'numr' +UgZbUAAA in +MOkwxjDzZYdbVwAA lookup 15 subtable" seven.numr
Substitution2: "'sups' +TgowZDBNZYdbVwAA in +MOkwxjDzZYdbVwAA lookup 14 subtable" uni2077
Substitution2: "'subs' +TgswZDBNZYdbVwAA in +MOkwxjDzZYdbVwAA lookup 13 subtable" uni2087
AlternateSubs2: "'aalt' +MFkweTBmMG51cE9TW1cweDBuMKIwrzC7MLkA in +MOkwxjDzZYdbVwAA lookup 1 subtable" uni2087 uni2077 seven.numr seven.dnom
EndChar

StartChar: eight
Encoding: 56 56 487
Width: 1024
Flags: W
LayerCount: 2
Fore
SplineSet
295.5 10.5 m 128,-1,1
 198 60 198 60 142 145 c 128,-1,2
 86 230 86 230 86 332 c 0,3,4
 86 432 86 432 150.5 525.5 c 128,-1,5
 215 619 215 619 322 678 c 1,6,7
 243 730 243 730 194 807 c 128,-1,8
 145 884 145 884 145 965 c 0,9,10
 145 1058 145 1058 196 1137 c 128,-1,11
 247 1216 247 1216 334 1262.5 c 128,-1,12
 421 1309 421 1309 524 1309 c 0,13,14
 628 1309 628 1309 713.5 1264 c 128,-1,15
 799 1219 799 1219 848 1142.5 c 128,-1,16
 897 1066 897 1066 897 977 c 0,17,18
 897 896 897 896 844.5 817 c 128,-1,19
 792 738 792 738 711 684 c 1,20,21
 813 627 813 627 876.5 534 c 128,-1,22
 940 441 940 441 940 338 c 0,23,24
 940 233 940 233 883 147 c 128,-1,25
 826 61 826 61 728 11 c 128,-1,26
 630 -39 630 -39 512 -39 c 0,27,0
 393 -39 393 -39 295.5 10.5 c 128,-1,1
632.5 866 m 128,-1,29
 666 917 666 917 666 971 c 0,30,31
 666 1007 666 1007 646 1038.5 c 128,-1,32
 626 1070 626 1070 592 1089 c 128,-1,33
 558 1108 558 1108 518 1108 c 256,34,35
 478 1108 478 1108 445.5 1090 c 128,-1,36
 413 1072 413 1072 395 1041.5 c 128,-1,37
 377 1011 377 1011 377 975 c 0,38,39
 377 866 377 866 545 778 c 1,40,28
 599 815 599 815 632.5 866 c 128,-1,29
609.5 191 m 128,-1,42
 651 214 651 214 674.5 253 c 128,-1,43
 698 292 698 292 698 340 c 0,44,45
 698 413 698 413 641 477 c 128,-1,46
 584 541 584 541 489 575 c 1,47,48
 418 538 418 538 373 477 c 128,-1,49
 328 416 328 416 328 346 c 0,50,51
 328 299 328 299 353.5 258 c 128,-1,52
 379 217 379 217 422.5 192.5 c 128,-1,53
 466 168 466 168 516 168 c 0,54,41
 568 168 568 168 609.5 191 c 128,-1,42
EndSplineSet
Substitution2: "'frac' +ZZwwgTBuUgZlcAAA in +MOkwxjDzZYdbVwAA lookup 18 subtable" eight.numr
Substitution2: "'dnom' +UgZrzQAA in +MOkwxjDzZYdbVwAA lookup 16 subtable" eight.dnom
Substitution2: "'numr' +UgZbUAAA in +MOkwxjDzZYdbVwAA lookup 15 subtable" eight.numr
Substitution2: "'sups' +TgowZDBNZYdbVwAA in +MOkwxjDzZYdbVwAA lookup 14 subtable" uni2078
Substitution2: "'subs' +TgswZDBNZYdbVwAA in +MOkwxjDzZYdbVwAA lookup 13 subtable" uni2088
AlternateSubs2: "'aalt' +MFkweTBmMG51cE9TW1cweDBuMKIwrzC7MLkA in +MOkwxjDzZYdbVwAA lookup 1 subtable" uni2088 uni2078 eight.numr eight.dnom
EndChar

StartChar: nine
Encoding: 57 57 488
Width: 1024
Flags: W
LayerCount: 2
Fore
SplineSet
810.5 1147.5 m 128,-1,1
 911 992 911 992 911 676 c 0,2,3
 911 -39 911 -39 473 -39 c 0,4,5
 372 -39 372 -39 273 -1 c 128,-1,6
 174 37 174 37 94 113 c 1,7,-1
 232 267 l 1,8,-1
 233 268 l 1,9,-1
 235 266 l 2,10,11
 288 213 288 213 342 189.5 c 128,-1,12
 396 166 396 166 461 166 c 0,13,14
 541 166 541 166 587 200.5 c 128,-1,15
 633 235 633 235 655 309 c 128,-1,16
 677 383 677 383 685 512 c 1,17,18
 594 414 594 414 469 414 c 0,19,20
 373 414 373 414 284.5 471 c 128,-1,21
 196 528 196 528 141 629 c 128,-1,22
 86 730 86 730 86 856 c 0,23,24
 86 980 86 980 141 1082.5 c 128,-1,25
 196 1185 196 1185 294 1244 c 128,-1,26
 392 1303 392 1303 516 1303 c 0,27,0
 710 1303 710 1303 810.5 1147.5 c 128,-1,1
614.5 652.5 m 128,-1,29
 656 689 656 689 690 762 c 1,30,31
 687 896 687 896 667.5 969 c 128,-1,32
 648 1042 648 1042 612.5 1070 c 128,-1,33
 577 1098 577 1098 520 1098 c 0,34,35
 423 1098 423 1098 368 1031 c 128,-1,36
 313 964 313 964 313 842 c 0,37,38
 313 729 313 729 361.5 672.5 c 128,-1,39
 410 616 410 616 500 616 c 0,40,28
 573 616 573 616 614.5 652.5 c 128,-1,29
261 264 m 2,41,42
 261 260 261 260 257 260 c 256,43,44
 253 260 253 260 235 271 c 1,45,-1
 244 280 l 1,46,-1
 261 265 l 1,47,-1
 261 264 l 2,41,42
226.5 274.5 m 128,-1,49
 224 277 224 277 224 278 c 2,50,51
 224 278 224 278 235 271 c 1,52,-1
 233 268 l 1,53,48
 229 272 229 272 226.5 274.5 c 128,-1,49
EndSplineSet
Substitution2: "'frac' +ZZwwgTBuUgZlcAAA in +MOkwxjDzZYdbVwAA lookup 18 subtable" nine.numr
Substitution2: "'dnom' +UgZrzQAA in +MOkwxjDzZYdbVwAA lookup 16 subtable" nine.dnom
Substitution2: "'numr' +UgZbUAAA in +MOkwxjDzZYdbVwAA lookup 15 subtable" nine.numr
Substitution2: "'sups' +TgowZDBNZYdbVwAA in +MOkwxjDzZYdbVwAA lookup 14 subtable" uni2079
Substitution2: "'subs' +TgswZDBNZYdbVwAA in +MOkwxjDzZYdbVwAA lookup 13 subtable" uni2089
AlternateSubs2: "'aalt' +MFkweTBmMG51cE9TW1cweDBuMKIwrzC7MLkA in +MOkwxjDzZYdbVwAA lookup 1 subtable" uni2089 uni2079 nine.numr nine.dnom
EndChar

StartChar: zero.ss02
Encoding: 65541 -1 489
Width: 1024
Flags: W
LayerCount: 2
Fore
SplineSet
274 40.5 m 128,-1,1
 175 120 175 120 122.5 270.5 c 128,-1,2
 70 421 70 421 70 631 c 256,3,4
 70 841 70 841 122.5 991.5 c 128,-1,5
 175 1142 175 1142 274 1221 c 128,-1,6
 373 1300 373 1300 512 1300 c 256,7,8
 651 1300 651 1300 750 1221 c 128,-1,9
 849 1142 849 1142 901.5 991.5 c 128,-1,10
 954 841 954 841 954 631 c 256,11,12
 954 421 954 421 901.5 270.5 c 128,-1,13
 849 120 849 120 750 40.5 c 128,-1,14
 651 -39 651 -39 512 -39 c 256,15,0
 373 -39 373 -39 274 40.5 c 128,-1,1
632 203 m 128,-1,17
 682 261 682 261 708.5 370 c 128,-1,18
 735 479 735 479 735 631 c 256,19,20
 735 783 735 783 708.5 892 c 128,-1,21
 682 1001 682 1001 632 1058.5 c 128,-1,22
 582 1116 582 1116 512 1116 c 256,23,24
 442 1116 442 1116 392 1058.5 c 128,-1,25
 342 1001 342 1001 315.5 892 c 128,-1,26
 289 783 289 783 289 631 c 256,27,28
 289 479 289 479 315.5 370 c 128,-1,29
 342 261 342 261 392 203 c 128,-1,30
 442 145 442 145 512 145 c 256,31,16
 582 145 582 145 632 203 c 128,-1,17
EndSplineSet
EndChar

StartChar: uni2080
Encoding: 8320 8320 491
Width: 1024
Flags: W
LayerCount: 2
Fore
SplineSet
695 771 m 128,-1,1
 773 721 773 721 814.5 626 c 128,-1,2
 856 531 856 531 856 399 c 256,3,4
 856 267 856 267 814.5 172 c 128,-1,5
 773 77 773 77 695 27 c 128,-1,6
 617 -23 617 -23 508 -23 c 256,7,8
 399 -23 399 -23 321 27 c 128,-1,9
 243 77 243 77 201.5 172 c 128,-1,10
 160 267 160 267 160 399 c 256,11,12
 160 531 160 531 201.5 626 c 128,-1,13
 243 721 243 721 321 771 c 128,-1,14
 399 821 399 821 508 821 c 256,15,0
 617 821 617 821 695 771 c 128,-1,1
384 600.5 m 128,-1,17
 340 528 340 528 340 399 c 0,18,19
 340 324 340 324 355 267 c 1,20,-1
 622 615 l 1,21,22
 579 673 579 673 508 673 c 0,23,16
 428 673 428 673 384 600.5 c 128,-1,17
631.5 197.5 m 128,-1,25
 676 270 676 270 676 399 c 0,26,27
 676 461 676 461 665 514 c 1,28,-1
 400 175 l 1,29,30
 441 125 441 125 508 125 c 0,31,24
 587 125 587 125 631.5 197.5 c 128,-1,25
EndSplineSet
Substitution2: "'ss02' +MLkwvzCkMOswuzDDMMgA-2 in +MOkwxjDzZYdbVwAA lookup 26 subtable" uni2080.ss02
Substitution2: "'zero' +MLkw6TDDMLcw5TBkME0wvDDt in +MOkwxjDzZYdbVwAA lookup 23 subtable" uni2080.zero
AlternateSubs2: "'aalt' +MFkweTBmMG51cE9TW1cweDBuMKIwrzC7MLkA in +MOkwxjDzZYdbVwAA lookup 1 subtable" uni2080.zero uni2080.ss02
EndChar

StartChar: uni2081
Encoding: 8321 8321 492
Width: 1024
Flags: W
LayerCount: 2
Fore
SplineSet
494 0 m 1,0,-1
 494 571 l 1,1,-1
 305 503 l 1,2,-1
 246 622 l 1,3,-1
 563 790 l 1,4,-1
 678 790 l 1,5,-1
 678 0 l 1,6,-1
 494 0 l 1,0,-1
EndSplineSet
EndChar

StartChar: uni2085
Encoding: 8325 8325 496
Width: 1024
Flags: W
LayerCount: 2
Fore
SplineSet
700.5 508 m 128,-1,1
 764 476 764 476 800 415.5 c 128,-1,2
 836 355 836 355 836 274 c 0,3,4
 836 186 836 186 794 119 c 128,-1,5
 752 52 752 52 678 15.5 c 128,-1,6
 604 -21 604 -21 510 -21 c 0,7,8
 406 -21 406 -21 326.5 24 c 128,-1,9
 247 69 247 69 203 153 c 1,10,-1
 334 244 l 1,11,-1
 336 245 l 1,12,-1
 337 243 l 1,13,14
 405 143 405 143 516 143 c 0,15,16
 573 143 573 143 608 176 c 128,-1,17
 643 209 643 209 643 266 c 0,18,19
 643 328 643 328 606 360.5 c 128,-1,20
 569 393 569 393 518 393 c 0,21,22
 478 393 478 393 445.5 379.5 c 128,-1,23
 413 366 413 366 383 329 c 1,24,-1
 252 372 l 1,25,-1
 283 806 l 1,26,-1
 784 806 l 1,27,-1
 784 655 l 1,28,-1
 451 655 l 1,29,-1
 442 517 l 1,30,31
 495 540 495 540 557 540 c 0,32,0
 637 540 637 540 700.5 508 c 128,-1,1
330.5 253 m 128,-1,34
 328 256 328 256 328 257 c 0,35,36
 328 259 328 259 338 247 c 1,37,-1
 336 245 l 1,38,33
 333 250 333 250 330.5 253 c 128,-1,34
359 231 m 0,40,41
 354 231 354 231 338 247 c 1,42,-1
 349 254 l 1,43,-1
 362 235 l 1,44,39
 362 231 362 231 359 231 c 0,40,41
EndSplineSet
EndChar

StartChar: uni2086
Encoding: 8326 8326 497
Width: 1024
Flags: W
LayerCount: 2
Fore
SplineSet
675.5 519.5 m 128,-1,1
 736 486 736 486 770.5 423.5 c 128,-1,2
 805 361 805 361 805 278 c 0,3,4
 805 186 805 186 765 118 c 128,-1,5
 725 50 725 50 658 13.5 c 128,-1,6
 591 -23 591 -23 512 -23 c 0,7,8
 418 -23 418 -23 347 29 c 128,-1,9
 276 81 276 81 237.5 175.5 c 128,-1,10
 199 270 199 270 199 395 c 0,11,12
 199 524 199 524 241 620 c 128,-1,13
 283 716 283 716 362 768.5 c 128,-1,14
 441 821 441 821 549 821 c 0,15,16
 628 821 628 821 682 801.5 c 128,-1,17
 736 782 736 782 782 733 c 1,18,-1
 689 624 l 1,19,-1
 687 622 l 1,20,21
 655 649 655 649 625 661 c 128,-1,22
 595 673 595 673 557 673 c 0,23,24
 513 673 513 673 475 652 c 128,-1,25
 437 631 437 631 414 592.5 c 128,-1,26
 391 554 391 554 389 505 c 1,27,28
 420 529 420 529 461.5 541 c 128,-1,29
 503 553 503 553 541 553 c 0,30,0
 615 553 615 553 675.5 519.5 c 128,-1,1
660 626 m 2,31,32
 660 630 660 630 664 630 c 0,33,34
 670 630 670 630 686 620 c 1,35,-1
 678 610 l 1,36,-1
 660 625 l 1,37,-1
 660 626 l 2,31,32
700 612 m 1,38,39
 700 610 700 610 686 620 c 1,40,-1
 687 622 l 1,41,-1
 700 612 l 1,38,39
599 167.5 m 128,-1,43
 625 208 625 208 625 270 c 0,44,45
 625 342 625 342 589.5 380.5 c 128,-1,46
 554 419 554 419 498 419 c 0,47,48
 439 419 439 419 381 376 c 1,49,50
 378 127 378 127 514 127 c 0,51,42
 573 127 573 127 599 167.5 c 128,-1,43
EndSplineSet
EndChar

StartChar: uni2087
Encoding: 8327 8327 498
Width: 1024
Flags: W
LayerCount: 2
Fore
SplineSet
417 114 m 1,0,1
 473 286 473 286 515.5 401 c 128,-1,2
 558 516 558 516 614 630 c 1,3,-1
 289 630 l 1,4,-1
 289 806 l 1,5,-1
 831 806 l 1,6,-1
 831 712 l 1,7,8
 760 571 760 571 700.5 404 c 128,-1,9
 641 237 641 237 571 0 c 1,10,-1
 379 0 l 1,11,-1
 417 114 l 1,0,1
EndSplineSet
EndChar

StartChar: uni2088
Encoding: 8328 8328 499
Width: 1024
Flags: W
LayerCount: 2
Fore
SplineSet
353.5 6.5 m 128,-1,1
 283 36 283 36 242 90 c 128,-1,2
 201 144 201 144 201 213 c 0,3,4
 201 287 201 287 239.5 337 c 128,-1,5
 278 387 278 387 360 421 c 1,6,7
 298 455 298 455 265.5 498 c 128,-1,8
 233 541 233 541 233 598 c 0,9,10
 233 665 233 665 265.5 715.5 c 128,-1,11
 298 766 298 766 359 793.5 c 128,-1,12
 420 821 420 821 504 821 c 0,13,14
 635 821 635 821 709.5 764.5 c 128,-1,15
 784 708 784 708 784 604 c 0,16,17
 784 547 784 547 753 504 c 128,-1,18
 722 461 722 461 664 421 c 1,19,20
 735 385 735 385 779 337 c 128,-1,21
 823 289 823 289 823 221 c 0,22,23
 823 151 823 151 780.5 95 c 128,-1,24
 738 39 738 39 666.5 8 c 128,-1,25
 595 -23 595 -23 510 -23 c 0,26,0
 424 -23 424 -23 353.5 6.5 c 128,-1,1
596 531.5 m 128,-1,28
 621 558 621 558 621 596 c 0,29,30
 621 627 621 627 590.5 650 c 128,-1,31
 560 673 560 673 506 673 c 0,32,33
 450 673 450 673 422.5 652 c 128,-1,34
 395 631 395 631 395 600 c 0,35,36
 395 563 395 563 421.5 538 c 128,-1,37
 448 513 448 513 512 475 c 1,38,27
 571 505 571 505 596 531.5 c 128,-1,28
605 154.5 m 128,-1,40
 641 184 641 184 641 227 c 0,41,42
 641 271 641 271 599.5 309 c 128,-1,43
 558 347 558 347 489 370 c 1,44,45
 438 346 438 346 409.5 306 c 128,-1,46
 381 266 381 266 381 225 c 0,47,48
 381 182 381 182 416.5 153.5 c 128,-1,49
 452 125 452 125 514 125 c 0,50,39
 569 125 569 125 605 154.5 c 128,-1,40
EndSplineSet
EndChar

StartChar: uni2089
Encoding: 8329 8329 500
Width: 1024
Flags: W
LayerCount: 2
Fore
SplineSet
683 771 m 128,-1,1
 754 721 754 721 792.5 629 c 128,-1,2
 831 537 831 537 831 413 c 0,3,4
 831 285 831 285 788.5 187 c 128,-1,5
 746 89 746 89 667.5 34 c 128,-1,6
 589 -21 589 -21 483 -21 c 0,7,8
 406 -21 406 -21 348.5 -0.5 c 128,-1,9
 291 20 291 20 242 79 c 1,10,-1
 341 187 l 1,11,-1
 342 188 l 1,12,-1
 343 187 l 2,13,14
 371 159 371 159 405.5 144 c 128,-1,15
 440 129 440 129 477 129 c 0,16,17
 523 129 523 129 563.5 151.5 c 128,-1,18
 604 174 604 174 630 218 c 128,-1,19
 656 262 656 262 659 325 c 1,20,21
 611 297 611 297 570.5 284.5 c 128,-1,22
 530 272 530 272 483 272 c 0,23,24
 414 272 414 272 356.5 306 c 128,-1,25
 299 340 299 340 265 400 c 128,-1,26
 231 460 231 460 231 536 c 0,27,28
 231 617 231 617 268 682 c 128,-1,29
 305 747 305 747 370 784 c 128,-1,30
 435 821 435 821 516 821 c 0,31,0
 612 821 612 821 683 771 c 128,-1,1
589 422 m 128,-1,33
 632 433 632 433 668 454 c 1,34,35
 664 575 664 575 626 623 c 128,-1,36
 588 671 588 671 522 671 c 0,37,38
 469 671 469 671 437.5 631 c 128,-1,39
 406 591 406 591 406 536 c 0,40,41
 406 477 406 477 435 444 c 128,-1,42
 464 411 464 411 516 411 c 0,43,32
 546 411 546 411 589 422 c 128,-1,33
370 183 m 2,44,45
 370 180 370 180 367 180 c 0,46,47
 360 180 360 180 345 191 c 1,48,-1
 353 200 l 1,49,-1
 370 184 l 1,50,-1
 370 183 l 2,44,45
332 199 m 2,51,52
 332 200 332 200 345 191 c 1,53,-1
 342 188 l 1,54,-1
 332 199 l 2,51,52
EndSplineSet
EndChar

StartChar: uni2070
Encoding: 8304 8304 521
Width: 1024
Flags: W
LayerCount: 2
Fore
SplineSet
695 1308 m 128,-1,1
 773 1258 773 1258 814.5 1163 c 128,-1,2
 856 1068 856 1068 856 936 c 256,3,4
 856 804 856 804 814.5 709 c 128,-1,5
 773 614 773 614 695 564 c 128,-1,6
 617 514 617 514 508 514 c 256,7,8
 399 514 399 514 321 564 c 128,-1,9
 243 614 243 614 201.5 709 c 128,-1,10
 160 804 160 804 160 936 c 256,11,12
 160 1068 160 1068 201.5 1163 c 128,-1,13
 243 1258 243 1258 321 1308 c 128,-1,14
 399 1358 399 1358 508 1358 c 256,15,0
 617 1358 617 1358 695 1308 c 128,-1,1
384 1137.5 m 128,-1,17
 340 1065 340 1065 340 936 c 0,18,19
 340 861 340 861 355 804 c 1,20,-1
 622 1152 l 1,21,22
 579 1210 579 1210 508 1210 c 0,23,16
 428 1210 428 1210 384 1137.5 c 128,-1,17
631.5 734.5 m 128,-1,25
 676 807 676 807 676 936 c 0,26,27
 676 998 676 998 665 1051 c 1,28,-1
 400 712 l 1,29,30
 441 662 441 662 508 662 c 0,31,24
 587 662 587 662 631.5 734.5 c 128,-1,25
EndSplineSet
Substitution2: "'ss02' +MLkwvzCkMOswuzDDMMgA-2 in +MOkwxjDzZYdbVwAA lookup 26 subtable" uni2070.ss02
Substitution2: "'zero' +MLkw6TDDMLcw5TBkME0wvDDt in +MOkwxjDzZYdbVwAA lookup 23 subtable" uni2070.zero
AlternateSubs2: "'aalt' +MFkweTBmMG51cE9TW1cweDBuMKIwrzC7MLkA in +MOkwxjDzZYdbVwAA lookup 1 subtable" uni2070.zero uni2070.ss02
EndChar

StartChar: uni00B9
Encoding: 185 185 522
Width: 1024
Flags: W
LayerCount: 2
Fore
SplineSet
494 539 m 1,0,-1
 494 1110 l 1,1,-1
 305 1042 l 1,2,-1
 246 1161 l 1,3,-1
 563 1329 l 1,4,-1
 678 1329 l 1,5,-1
 678 539 l 1,6,-1
 494 539 l 1,0,-1
EndSplineSet
EndChar

StartChar: uni00B2
Encoding: 178 178 523
Width: 1024
Flags: W
LayerCount: 2
Fore
SplineSet
862 731 m 1,0,-1
 862 537 l 1,1,-1
 242 537 l 1,2,-1
 242 686 l 1,3,4
 279 719 279 719 381 807 c 1,5,6
 470 882 470 882 516 926 c 128,-1,7
 562 970 562 970 591.5 1016 c 128,-1,8
 621 1062 621 1062 621 1108 c 0,9,10
 621 1146 621 1146 595 1167 c 128,-1,11
 569 1188 569 1188 524 1188 c 0,12,13
 491 1188 491 1188 461 1180.5 c 128,-1,14
 431 1173 431 1173 411 1164 c 128,-1,15
 391 1155 391 1155 388 1150 c 0,16,17
 342 1080 342 1080 342 1074 c 0,18,19
 342 1073 342 1073 343 1073 c 0,20,21
 345 1074 345 1074 349.5 1077 c 128,-1,22
 354 1080 354 1080 357.5 1080.5 c 128,-1,23
 361 1081 361 1081 362 1076 c 1,24,-1
 349 1057 l 1,25,-1
 334 1067 l 1,26,-1
 209 1165 l 1,27,28
 269 1260 269 1260 350 1309 c 128,-1,29
 431 1358 431 1358 549 1358 c 0,30,31
 624 1358 624 1358 685 1329 c 128,-1,32
 746 1300 746 1300 780.5 1247 c 128,-1,33
 815 1194 815 1194 815 1124 c 0,34,35
 815 1056 815 1056 783 1000 c 128,-1,36
 751 944 751 944 699 896 c 128,-1,37
 647 848 647 848 545 768 c 1,38,-1
 476 713 l 1,39,-1
 763 713 l 2,40,41
 796 713 796 713 811.5 716.5 c 128,-1,42
 827 720 827 720 839 731 c 1,43,-1
 862 731 l 1,0,-1
EndSplineSet
EndChar

StartChar: uni00B3
Encoding: 179 179 524
Width: 1024
Flags: W
LayerCount: 2
Fore
SplineSet
801.5 885.5 m 128,-1,1
 840 840 840 840 840 776 c 0,2,3
 840 702 840 702 796.5 642 c 128,-1,4
 753 582 753 582 679 548 c 128,-1,5
 605 514 605 514 518 514 c 0,6,7
 412 514 412 514 330 553 c 128,-1,8
 248 592 248 592 176 674 c 1,9,-1
 302 819 l 1,10,-1
 303 820 l 1,11,12
 321 757 321 757 379 722.5 c 128,-1,13
 437 688 437 688 504 688 c 0,14,15
 563 688 563 688 603 715 c 128,-1,16
 643 742 643 742 643 791 c 0,17,18
 643 832 643 832 613.5 855.5 c 128,-1,19
 584 879 584 879 524 879 c 0,20,21
 479 879 479 879 428 874 c 1,22,-1
 428 1016 l 1,23,24
 467 1012 467 1012 526 1012 c 0,25,26
 565 1012 565 1012 591.5 1037 c 128,-1,27
 618 1062 618 1062 618 1106 c 0,28,29
 618 1151 618 1151 587.5 1172.5 c 128,-1,30
 557 1194 557 1194 504 1194 c 0,31,32
 458 1194 458 1194 410 1172 c 128,-1,33
 362 1150 362 1150 330 1112 c 1,34,-1
 205 1210 l 1,35,36
 263 1284 263 1284 340 1321 c 128,-1,37
 417 1358 417 1358 518 1358 c 0,38,39
 602 1358 602 1358 668 1327 c 128,-1,40
 734 1296 734 1296 770.5 1246 c 128,-1,41
 807 1196 807 1196 807 1141 c 0,42,43
 807 1082 807 1082 779 1035 c 128,-1,44
 751 988 751 988 694 958 c 1,45,0
 763 931 763 931 801.5 885.5 c 128,-1,1
300 834 m 0,47,48
 300 838 300 838 302 838 c 0,49,50
 305 838 305 838 312 831 c 1,51,-1
 303 820 l 1,52,46
 300 831 300 831 300 834 c 0,47,48
331 816 m 2,53,54
 331 814 331 814 330 814 c 0,55,56
 328 814 328 814 321.5 821 c 128,-1,57
 315 828 315 828 312 831 c 1,58,-1
 313 833 l 1,59,-1
 331 818 l 1,60,-1
 331 816 l 2,53,54
EndSplineSet
EndChar

StartChar: uni2074
Encoding: 8308 8308 525
Width: 1024
Flags: W
LayerCount: 2
Fore
SplineSet
541 537 m 1,0,-1
 541 721 l 1,1,-1
 125 721 l 1,2,-1
 125 836 l 1,3,-1
 563 1343 l 1,4,-1
 719 1343 l 1,5,-1
 719 872 l 1,6,-1
 848 872 l 1,7,-1
 848 721 l 1,8,-1
 719 721 l 1,9,-1
 719 537 l 1,10,-1
 541 537 l 1,0,-1
350 872 m 1,11,-1
 541 872 l 1,12,-1
 541 1096 l 1,13,-1
 350 872 l 1,11,-1
EndSplineSet
EndChar

StartChar: uni2075
Encoding: 8309 8309 526
Width: 1024
Flags: W
LayerCount: 2
Fore
SplineSet
700.5 1045 m 128,-1,1
 764 1013 764 1013 800 952.5 c 128,-1,2
 836 892 836 892 836 811 c 0,3,4
 836 723 836 723 794 656 c 128,-1,5
 752 589 752 589 678 552.5 c 128,-1,6
 604 516 604 516 510 516 c 0,7,8
 406 516 406 516 326.5 561 c 128,-1,9
 247 606 247 606 203 690 c 1,10,-1
 334 781 l 1,11,-1
 336 782 l 1,12,-1
 337 781 l 1,13,14
 404 680 404 680 516 680 c 0,15,16
 573 680 573 680 608 713 c 128,-1,17
 643 746 643 746 643 803 c 0,18,19
 643 865 643 865 606 897.5 c 128,-1,20
 569 930 569 930 518 930 c 0,21,22
 478 930 478 930 445.5 916.5 c 128,-1,23
 413 903 413 903 383 866 c 1,24,-1
 252 909 l 1,25,-1
 283 1343 l 1,26,-1
 784 1343 l 1,27,-1
 784 1192 l 1,28,-1
 451 1192 l 1,29,-1
 442 1054 l 1,30,31
 495 1077 495 1077 557 1077 c 0,32,0
 637 1077 637 1077 700.5 1045 c 128,-1,1
328 795 m 2,34,-1
 338 784 l 1,35,-1
 336 782 l 1,36,33
 328 794 328 794 328 795 c 2,34,-1
359 768 m 0,38,39
 354 768 354 768 338 784 c 1,40,-1
 349 791 l 1,41,-1
 362 772 l 1,42,37
 362 768 362 768 359 768 c 0,38,39
EndSplineSet
EndChar

StartChar: uni2076
Encoding: 8310 8310 527
Width: 1024
Flags: W
LayerCount: 2
Fore
SplineSet
675.5 1056.5 m 128,-1,1
 736 1023 736 1023 770.5 960.5 c 128,-1,2
 805 898 805 898 805 815 c 0,3,4
 805 723 805 723 765 655 c 128,-1,5
 725 587 725 587 658 550.5 c 128,-1,6
 591 514 591 514 512 514 c 0,7,8
 418 514 418 514 347 566 c 128,-1,9
 276 618 276 618 237.5 712.5 c 128,-1,10
 199 807 199 807 199 932 c 0,11,12
 199 1061 199 1061 241 1157 c 128,-1,13
 283 1253 283 1253 362 1305.5 c 128,-1,14
 441 1358 441 1358 549 1358 c 0,15,16
 628 1358 628 1358 682 1338.5 c 128,-1,17
 736 1319 736 1319 782 1270 c 1,18,-1
 689 1161 l 1,19,-1
 688 1159 l 1,20,21
 655 1186 655 1186 624.5 1198 c 128,-1,22
 594 1210 594 1210 557 1210 c 0,23,24
 513 1210 513 1210 475 1189 c 128,-1,25
 437 1168 437 1168 414 1129.5 c 128,-1,26
 391 1091 391 1091 389 1042 c 1,27,28
 420 1066 420 1066 461.5 1078 c 128,-1,29
 503 1090 503 1090 541 1090 c 0,30,0
 615 1090 615 1090 675.5 1056.5 c 128,-1,1
660 1163 m 2,31,32
 660 1167 660 1167 664 1167 c 0,33,34
 670 1167 670 1167 686 1157 c 1,35,-1
 678 1147 l 1,36,-1
 660 1162 l 1,37,-1
 660 1163 l 2,31,32
701 1149 m 2,38,39
 701 1148 701 1148 686 1157 c 1,40,-1
 688 1159 l 1,41,-1
 701 1149 l 2,38,39
599 704.5 m 128,-1,43
 625 745 625 745 625 807 c 0,44,45
 625 879 625 879 589.5 917.5 c 128,-1,46
 554 956 554 956 498 956 c 0,47,48
 439 956 439 956 381 913 c 1,49,50
 378 664 378 664 514 664 c 0,51,42
 573 664 573 664 599 704.5 c 128,-1,43
EndSplineSet
EndChar

StartChar: uni2077
Encoding: 8311 8311 528
Width: 1024
Flags: W
LayerCount: 2
Fore
SplineSet
417 651 m 1,0,1
 473 823 473 823 515.5 938 c 128,-1,2
 558 1053 558 1053 614 1167 c 1,3,-1
 289 1167 l 1,4,-1
 289 1343 l 1,5,-1
 831 1343 l 1,6,-1
 831 1249 l 1,7,8
 760 1108 760 1108 700.5 941 c 128,-1,9
 641 774 641 774 571 537 c 1,10,-1
 379 537 l 1,11,-1
 417 651 l 1,0,1
EndSplineSet
EndChar

StartChar: uni2078
Encoding: 8312 8312 529
Width: 1024
Flags: W
LayerCount: 2
Fore
SplineSet
353.5 543.5 m 128,-1,1
 283 573 283 573 242 627 c 128,-1,2
 201 681 201 681 201 750 c 0,3,4
 201 824 201 824 239.5 874 c 128,-1,5
 278 924 278 924 360 958 c 1,6,7
 298 992 298 992 265.5 1035 c 128,-1,8
 233 1078 233 1078 233 1135 c 0,9,10
 233 1202 233 1202 265.5 1252.5 c 128,-1,11
 298 1303 298 1303 359 1330.5 c 128,-1,12
 420 1358 420 1358 504 1358 c 0,13,14
 635 1358 635 1358 709.5 1301.5 c 128,-1,15
 784 1245 784 1245 784 1141 c 0,16,17
 784 1084 784 1084 753 1041 c 128,-1,18
 722 998 722 998 664 958 c 1,19,20
 735 922 735 922 779 874 c 128,-1,21
 823 826 823 826 823 758 c 0,22,23
 823 688 823 688 780.5 632 c 128,-1,24
 738 576 738 576 666.5 545 c 128,-1,25
 595 514 595 514 510 514 c 0,26,0
 424 514 424 514 353.5 543.5 c 128,-1,1
596 1068.5 m 128,-1,28
 621 1095 621 1095 621 1133 c 0,29,30
 621 1164 621 1164 590.5 1187 c 128,-1,31
 560 1210 560 1210 506 1210 c 0,32,33
 450 1210 450 1210 422.5 1189 c 128,-1,34
 395 1168 395 1168 395 1137 c 0,35,36
 395 1100 395 1100 421.5 1075 c 128,-1,37
 448 1050 448 1050 512 1012 c 1,38,27
 571 1042 571 1042 596 1068.5 c 128,-1,28
605 691.5 m 128,-1,40
 641 721 641 721 641 764 c 0,41,42
 641 808 641 808 599.5 846 c 128,-1,43
 558 884 558 884 489 907 c 1,44,45
 438 883 438 883 409.5 843 c 128,-1,46
 381 803 381 803 381 762 c 0,47,48
 381 719 381 719 416.5 690.5 c 128,-1,49
 452 662 452 662 514 662 c 0,50,39
 569 662 569 662 605 691.5 c 128,-1,40
EndSplineSet
EndChar

StartChar: uni2079
Encoding: 8313 8313 530
Width: 1024
Flags: W
LayerCount: 2
Fore
SplineSet
683 1308 m 128,-1,1
 754 1258 754 1258 792.5 1166 c 128,-1,2
 831 1074 831 1074 831 950 c 0,3,4
 831 822 831 822 788.5 724 c 128,-1,5
 746 626 746 626 667.5 571 c 128,-1,6
 589 516 589 516 483 516 c 0,7,8
 406 516 406 516 348.5 536.5 c 128,-1,9
 291 557 291 557 242 616 c 1,10,-1
 341 724 l 1,11,-1
 341 725 l 1,12,-1
 342 724 l 2,13,14
 369 696 369 696 404.5 681 c 128,-1,15
 440 666 440 666 477 666 c 0,16,17
 523 666 523 666 563.5 688.5 c 128,-1,18
 604 711 604 711 630 755 c 128,-1,19
 656 799 656 799 659 862 c 1,20,21
 611 834 611 834 570.5 821.5 c 128,-1,22
 530 809 530 809 483 809 c 0,23,24
 414 809 414 809 356.5 843 c 128,-1,25
 299 877 299 877 265 937 c 128,-1,26
 231 997 231 997 231 1073 c 0,27,28
 231 1154 231 1154 268 1219 c 128,-1,29
 305 1284 305 1284 370 1321 c 128,-1,30
 435 1358 435 1358 516 1358 c 0,31,0
 612 1358 612 1358 683 1308 c 128,-1,1
589 959 m 128,-1,33
 632 970 632 970 668 991 c 1,34,35
 664 1112 664 1112 626 1160 c 128,-1,36
 588 1208 588 1208 522 1208 c 0,37,38
 469 1208 469 1208 437.5 1168 c 128,-1,39
 406 1128 406 1128 406 1073 c 0,40,41
 406 1014 406 1014 435 981 c 128,-1,42
 464 948 464 948 516 948 c 0,43,32
 546 948 546 948 589 959 c 128,-1,33
331 737 m 1,45,46
 332 737 332 737 336 734 c 128,-1,47
 340 731 340 731 345 728 c 1,48,-1
 341 725 l 1,49,44
 331 736 331 736 331 737 c 1,45,46
370 720 m 2,50,51
 370 717 370 717 367 717 c 0,52,53
 360 717 360 717 345 728 c 1,54,-1
 353 737 l 1,55,-1
 370 721 l 1,56,-1
 370 720 l 2,50,51
EndSplineSet
EndChar

StartChar: fraction
Encoding: 8260 8260 531
Width: 1024
Flags: W
LayerCount: 2
Fore
SplineSet
252 -88 m 1,0,-1
 123 -8 l 1,1,-1
 758 1374 l 1,2,-1
 889 1290 l 1,3,-1
 252 -88 l 1,0,-1
EndSplineSet
EndChar

StartChar: onehalf
Encoding: 189 189 532
Width: 1024
Flags: W
LayerCount: 2
Fore
SplineSet
180 748 m 1,0,-1
 180 1198 l 1,1,-1
 47 1163 l 1,2,-1
 0 1257 l 1,3,-1
 240 1386 l 1,4,-1
 365 1386 l 1,5,-1
 365 748 l 1,6,-1
 180 748 l 1,0,-1
211 -88 m 1,7,-1
 82 -8 l 1,8,-1
 717 1374 l 1,9,-1
 848 1290 l 1,10,-1
 211 -88 l 1,7,-1
514 -45 m 1,11,12
 578 31 578 31 731 168 c 1,13,-1
 752 186 l 2,14,15
 789 218 789 218 809 241.5 c 128,-1,16
 829 265 829 265 829 289 c 0,17,18
 829 323 829 323 803.5 344 c 128,-1,19
 778 365 778 365 741 365 c 0,20,21
 677 365 677 365 653 293 c 0,22,23
 652 288 652 288 648 274 c 128,-1,24
 644 260 644 260 635 248 c 1,25,-1
 500 336 l 1,26,27
 552 419 552 419 619.5 460.5 c 128,-1,28
 687 502 687 502 782 502 c 0,29,30
 844 502 844 502 896 473 c 128,-1,31
 948 444 948 444 978 396.5 c 128,-1,32
 1008 349 1008 349 1008 295 c 0,33,34
 1008 249 1008 249 992.5 216.5 c 128,-1,35
 977 184 977 184 938.5 149 c 128,-1,36
 900 114 900 114 821 57 c 0,37,38
 790 35 790 35 743 -6 c 1,39,-1
 967 -6 l 1,40,41
 972 -5 972 -5 987 4 c 1,42,43
 1005 18 1005 18 1022 18 c 1,44,-1
 1022 -150 l 1,45,-1
 514 -150 l 1,46,-1
 514 -45 l 1,11,12
EndSplineSet
EndChar

StartChar: onequarter
Encoding: 188 188 533
Width: 1024
Flags: W
LayerCount: 2
Fore
SplineSet
180 748 m 1,0,-1
 180 1198 l 1,1,-1
 47 1163 l 1,2,-1
 0 1257 l 1,3,-1
 240 1386 l 1,4,-1
 365 1386 l 1,5,-1
 365 748 l 1,6,-1
 180 748 l 1,0,-1
252 -88 m 1,7,-1
 123 -8 l 1,8,-1
 758 1374 l 1,9,-1
 889 1290 l 1,10,-1
 252 -88 l 1,7,-1
735 -143 m 1,11,-1
 735 8 l 1,12,-1
 457 8 l 1,13,-1
 457 100 l 1,14,-1
 782 514 l 1,15,-1
 911 514 l 1,16,-1
 911 135 l 1,17,-1
 1008 135 l 1,18,-1
 1008 8 l 1,19,-1
 911 8 l 1,20,-1
 911 -143 l 1,21,-1
 735 -143 l 1,11,-1
637 131 m 1,22,-1
 737 131 l 1,23,-1
 737 258 l 1,24,-1
 637 131 l 1,22,-1
EndSplineSet
EndChar

StartChar: threequarters
Encoding: 190 190 534
Width: 1024
Flags: W
LayerCount: 2
Fore
SplineSet
121.5 787.5 m 128,-1,1
 59 819 59 819 0 885 c 1,2,-1
 117 1014 l 1,3,4
 127 1005 127 1005 132.5 995.5 c 128,-1,5
 138 986 138 986 142.5 975.5 c 128,-1,6
 147 965 147 965 150 958 c 0,7,8
 161 937 161 937 191 918 c 128,-1,9
 221 899 221 899 260 899 c 0,10,11
 303 899 303 899 330.5 915 c 128,-1,12
 358 931 358 931 358 963 c 0,13,14
 358 996 358 996 335 1011 c 128,-1,15
 312 1026 312 1026 260 1026 c 0,16,17
 244 1026 244 1026 182 1020 c 1,18,-1
 182 1171 l 1,19,20
 202 1163 202 1163 216.5 1160 c 128,-1,21
 231 1157 231 1157 256 1157 c 0,22,23
 294 1157 294 1157 314 1171.5 c 128,-1,24
 334 1186 334 1186 334 1206 c 0,25,26
 334 1231 334 1231 313 1250.5 c 128,-1,27
 292 1270 292 1270 258 1270 c 0,28,29
 223 1270 223 1270 188.5 1249 c 128,-1,30
 154 1228 154 1228 117 1182 c 1,31,-1
 23 1284 l 1,32,33
 125 1409 125 1409 264 1409 c 0,34,35
 329 1409 329 1409 383.5 1382.5 c 128,-1,36
 438 1356 438 1356 470 1311.5 c 128,-1,37
 502 1267 502 1267 502 1214 c 0,38,39
 502 1181 502 1181 481 1148 c 128,-1,40
 460 1115 460 1115 428 1100 c 1,41,42
 471 1077 471 1077 499.5 1040 c 128,-1,43
 528 1003 528 1003 528 963 c 0,44,45
 528 903 528 903 491 856 c 128,-1,46
 454 809 454 809 392 782.5 c 128,-1,47
 330 756 330 756 258 756 c 0,48,0
 184 756 184 756 121.5 787.5 c 128,-1,1
313 -88 m 1,49,-1
 184 -8 l 1,50,-1
 819 1374 l 1,51,-1
 950 1290 l 1,52,-1
 313 -88 l 1,49,-1
737 -143 m 1,53,-1
 737 8 l 1,54,-1
 459 8 l 1,55,-1
 459 100 l 1,56,-1
 784 514 l 1,57,-1
 913 514 l 1,58,-1
 913 135 l 1,59,-1
 1010 135 l 1,60,-1
 1010 8 l 1,61,-1
 913 8 l 1,62,-1
 913 -143 l 1,63,-1
 737 -143 l 1,53,-1
639 131 m 1,64,-1
 739 131 l 1,65,-1
 739 258 l 1,66,-1
 639 131 l 1,64,-1
EndSplineSet
EndChar

StartChar: uni2070.ss02
Encoding: 65566 -1 538
Width: 1024
Flags: W
LayerCount: 2
Fore
SplineSet
321 564 m 128,-1,1
 243 614 243 614 201.5 709 c 128,-1,2
 160 804 160 804 160 936 c 256,3,4
 160 1068 160 1068 201.5 1163 c 128,-1,5
 243 1258 243 1258 321 1308 c 128,-1,6
 399 1358 399 1358 508 1358 c 256,7,8
 617 1358 617 1358 695 1308 c 128,-1,9
 773 1258 773 1258 814.5 1163 c 128,-1,10
 856 1068 856 1068 856 936 c 256,11,12
 856 804 856 804 814.5 709 c 128,-1,13
 773 614 773 614 695 564 c 128,-1,14
 617 514 617 514 508 514 c 256,15,0
 399 514 399 514 321 564 c 128,-1,1
631.5 734.5 m 128,-1,17
 676 807 676 807 676 936 c 256,18,19
 676 1065 676 1065 631.5 1137.5 c 128,-1,20
 587 1210 587 1210 508 1210 c 0,21,22
 428 1210 428 1210 384 1137.5 c 128,-1,23
 340 1065 340 1065 340 936 c 256,24,25
 340 807 340 807 384 734.5 c 128,-1,26
 428 662 428 662 508 662 c 0,27,16
 587 662 587 662 631.5 734.5 c 128,-1,17
EndSplineSet
EndChar

StartChar: uni2080.zero
Encoding: 65567 -1 539
Width: 1024
Flags: W
LayerCount: 2
Fore
SplineSet
321 48 m 128,-1,1
 243 98 243 98 201.5 193 c 128,-1,2
 160 288 160 288 160 420 c 256,3,4
 160 552 160 552 201.5 647 c 128,-1,5
 243 742 243 742 321 792 c 128,-1,6
 399 842 399 842 508 842 c 256,7,8
 617 842 617 842 695 792 c 128,-1,9
 773 742 773 742 814.5 647 c 128,-1,10
 856 552 856 552 856 420 c 256,11,12
 856 288 856 288 814.5 193 c 128,-1,13
 773 98 773 98 695 48 c 128,-1,14
 617 -2 617 -2 508 -2 c 256,15,0
 399 -2 399 -2 321 48 c 128,-1,1
631.5 218.5 m 128,-1,17
 676 291 676 291 676 420 c 256,18,19
 676 549 676 549 631.5 621.5 c 128,-1,20
 587 694 587 694 508 694 c 0,21,22
 428 694 428 694 384 621.5 c 128,-1,23
 340 549 340 549 340 420 c 256,24,25
 340 291 340 291 384 218.5 c 128,-1,26
 428 146 428 146 508 146 c 0,27,16
 587 146 587 146 631.5 218.5 c 128,-1,17
EndSplineSet
EndChar

StartChar: uni2070.zero
Encoding: 65570 -1 542
Width: 1024
Flags: W
LayerCount: 2
Fore
SplineSet
321 564 m 128,-1,1
 243 614 243 614 201.5 709 c 128,-1,2
 160 804 160 804 160 936 c 256,3,4
 160 1068 160 1068 201.5 1163 c 128,-1,5
 243 1258 243 1258 321 1308 c 128,-1,6
 399 1358 399 1358 508 1358 c 256,7,8
 617 1358 617 1358 695 1308 c 128,-1,9
 773 1258 773 1258 814.5 1163 c 128,-1,10
 856 1068 856 1068 856 936 c 256,11,12
 856 804 856 804 814.5 709 c 128,-1,13
 773 614 773 614 695 564 c 128,-1,14
 617 514 617 514 508 514 c 256,15,0
 399 514 399 514 321 564 c 128,-1,1
631.5 734.5 m 128,-1,17
 676 807 676 807 676 936 c 256,18,19
 676 1065 676 1065 631.5 1137.5 c 128,-1,20
 587 1210 587 1210 508 1210 c 0,21,22
 428 1210 428 1210 384 1137.5 c 128,-1,23
 340 1065 340 1065 340 936 c 256,24,25
 340 807 340 807 384 734.5 c 128,-1,26
 428 662 428 662 508 662 c 0,27,16
 587 662 587 662 631.5 734.5 c 128,-1,17
448.5 883.5 m 128,-1,29
 424 906 424 906 424 939 c 0,30,31
 424 971 424 971 450 994.5 c 128,-1,32
 476 1018 476 1018 509 1018 c 0,33,34
 543 1018 543 1018 569.5 993.5 c 128,-1,35
 596 969 596 969 596 939 c 0,36,37
 596 907 596 907 571 884 c 128,-1,38
 546 861 546 861 509 861 c 0,39,28
 473 861 473 861 448.5 883.5 c 128,-1,29
EndSplineSet
EndChar

StartChar: asterisk
Encoding: 42 42 543
Width: 1024
Flags: W
LayerCount: 2
Fore
SplineSet
307 240 m 1,0,-1
 145 369 l 1,1,-1
 385 647 l 1,2,-1
 66 746 l 1,3,-1
 137 932 l 1,4,-1
 430 795 l 1,5,-1
 401 1110 l 1,6,-1
 643 1110 l 1,7,-1
 600 795 l 1,8,-1
 885 924 l 1,9,-1
 961 748 l 1,10,-1
 641 649 l 1,11,-1
 874 369 l 1,12,-1
 711 242 l 1,13,-1
 512 543 l 1,14,-1
 307 240 l 1,0,-1
EndSplineSet
Substitution2: "'ss01' +MLkwvzCkMOswuzDDMMgA-1 in +MOkwxjDzZYdbVwAA lookup 25 subtable" asterisk.ss01
Substitution2: "'salt' +W+l/jnaEUiVbV19i in +MOkwxjDzZYdbVwAA lookup 24 subtable" asterisk.ss01
Substitution2: "'aalt' +MFkweTBmMG51cE9TW1cweDBuMKIwrzC7MLkA in +MOkwxjDzZYdbVwAA lookup 0 subtable" asterisk.ss01
EndChar

StartChar: backslash
Encoding: 92 92 544
Width: 1024
Flags: W
LayerCount: 2
Fore
SplineSet
743 -96 m 1,0,-1
 104 1280 l 1,1,-1
 283 1374 l 1,2,-1
 922 -10 l 1,3,-1
 743 -96 l 1,0,-1
EndSplineSet
EndChar

StartChar: periodcentered
Encoding: 183 183 545
Width: 1024
Flags: W
LayerCount: 2
Fore
SplineSet
408 556 m 128,-1,1
 372 575 372 575 351 608.5 c 128,-1,2
 330 642 330 642 330 682 c 0,3,4
 330 721 330 721 352 754.5 c 128,-1,5
 374 788 374 788 410.5 807.5 c 128,-1,6
 447 827 447 827 487 827 c 0,7,8
 528 827 528 827 565.5 806.5 c 128,-1,9
 603 786 603 786 626 752 c 128,-1,10
 649 718 649 718 649 682 c 0,11,12
 649 643 649 643 627.5 609.5 c 128,-1,13
 606 576 606 576 569 556.5 c 128,-1,14
 532 537 532 537 487 537 c 0,15,0
 444 537 444 537 408 556 c 128,-1,1
EndSplineSet
Substitution2: "Single Substitution lookup 28 subtable" periodcentered.loclCAT
Substitution2: "'aalt' +MFkweTBmMG51cE9TW1cweDBuMKIwrzC7MLkA in +MOkwxjDzZYdbVwAA lookup 0 subtable" periodcentered.loclCAT
EndChar

StartChar: bullet
Encoding: 8226 8226 546
Width: 1024
Flags: W
LayerCount: 2
Fore
SplineSet
416.5 448.5 m 128,-1,1
 369 475 369 475 341 519.5 c 128,-1,2
 313 564 313 564 313 616 c 0,3,4
 313 669 313 669 341 713.5 c 128,-1,5
 369 758 369 758 416.5 784.5 c 128,-1,6
 464 811 464 811 520 811 c 256,7,8
 576 811 576 811 624 784.5 c 128,-1,9
 672 758 672 758 699.5 713.5 c 128,-1,10
 727 669 727 669 727 616 c 0,11,12
 727 564 727 564 699 519.5 c 128,-1,13
 671 475 671 475 623.5 448.5 c 128,-1,14
 576 422 576 422 520 422 c 256,15,0
 464 422 464 422 416.5 448.5 c 128,-1,1
EndSplineSet
EndChar

StartChar: colon
Encoding: 58 58 547
Width: 1024
Flags: W
LayerCount: 2
Fore
SplineSet
403 631 m 128,-1,1
 368 650 368 650 347 682.5 c 128,-1,2
 326 715 326 715 326 752 c 256,3,4
 326 789 326 789 347 821 c 128,-1,5
 368 853 368 853 403 872 c 128,-1,6
 438 891 438 891 477 891 c 0,7,8
 514 891 514 891 550 873 c 128,-1,9
 586 855 586 855 608.5 823 c 128,-1,10
 631 791 631 791 631 752 c 0,11,12
 631 715 631 715 610 682.5 c 128,-1,13
 589 650 589 650 553.5 631 c 128,-1,14
 518 612 518 612 477 612 c 0,15,0
 438 612 438 612 403 631 c 128,-1,1
401 -8.5 m 128,-1,17
 366 10 366 10 346 42 c 128,-1,18
 326 74 326 74 326 111 c 0,19,20
 326 149 326 149 347 181.5 c 128,-1,21
 368 214 368 214 403 233 c 128,-1,22
 438 252 438 252 477 252 c 0,23,24
 514 252 514 252 550 233.5 c 128,-1,25
 586 215 586 215 608.5 182.5 c 128,-1,26
 631 150 631 150 631 111 c 0,27,28
 631 74 631 74 610.5 42.5 c 128,-1,29
 590 11 590 11 554.5 -8 c 128,-1,30
 519 -27 519 -27 477 -27 c 0,31,16
 436 -27 436 -27 401 -8.5 c 128,-1,17
EndSplineSet
EndChar

StartChar: comma
Encoding: 44 44 548
Width: 1024
Flags: W
LayerCount: 2
Fore
SplineSet
305 -242 m 1,0,1
 362 -188 362 -188 400 -130.5 c 128,-1,2
 438 -73 438 -73 438 -41 c 0,3,4
 438 -32 438 -32 429.5 -22 c 128,-1,5
 421 -12 421 -12 403 5 c 0,6,7
 374 32 374 32 357 55 c 128,-1,8
 340 78 340 78 340 106 c 0,9,10
 340 146 340 146 359 179 c 128,-1,11
 378 212 378 212 413.5 231 c 128,-1,12
 449 250 449 250 494 250 c 0,13,14
 537 250 537 250 576 225.5 c 128,-1,15
 615 201 615 201 638.5 158 c 128,-1,16
 662 115 662 115 662 61 c 0,17,18
 662 -20 662 -20 602 -120.5 c 128,-1,19
 542 -221 542 -221 420 -346 c 1,20,-1
 305 -242 l 1,0,1
EndSplineSet
EndChar

StartChar: ellipsis
Encoding: 8230 8230 549
Width: 1024
Flags: W
LayerCount: 2
Fore
SplineSet
80 -10.5 m 128,-1,1
 47 8 47 8 28.5 40 c 128,-1,2
 10 72 10 72 10 111 c 0,3,4
 10 149 10 149 28.5 181 c 128,-1,5
 47 213 47 213 80 231.5 c 128,-1,6
 113 250 113 250 154 250 c 256,7,8
 195 250 195 250 228 231.5 c 128,-1,9
 261 213 261 213 280 181 c 128,-1,10
 299 149 299 149 299 111 c 0,11,12
 299 72 299 72 280 40 c 128,-1,13
 261 8 261 8 228 -10.5 c 128,-1,14
 195 -29 195 -29 154 -29 c 256,15,0
 113 -29 113 -29 80 -10.5 c 128,-1,1
420 -10.5 m 128,-1,17
 387 8 387 8 368.5 40 c 128,-1,18
 350 72 350 72 350 111 c 0,19,20
 350 149 350 149 368.5 181 c 128,-1,21
 387 213 387 213 420 231.5 c 128,-1,22
 453 250 453 250 494 250 c 256,23,24
 535 250 535 250 568 231.5 c 128,-1,25
 601 213 601 213 620 181 c 128,-1,26
 639 149 639 149 639 111 c 0,27,28
 639 72 639 72 620 40 c 128,-1,29
 601 8 601 8 568 -10.5 c 128,-1,30
 535 -29 535 -29 494 -29 c 256,31,16
 453 -29 453 -29 420 -10.5 c 128,-1,17
757.5 -10.5 m 128,-1,33
 725 8 725 8 706.5 40 c 128,-1,34
 688 72 688 72 688 111 c 0,35,36
 688 149 688 149 706.5 181 c 128,-1,37
 725 213 725 213 757.5 231.5 c 128,-1,38
 790 250 790 250 831 250 c 256,39,40
 872 250 872 250 905.5 231.5 c 128,-1,41
 939 213 939 213 958 181 c 128,-1,42
 977 149 977 149 977 111 c 0,43,44
 977 72 977 72 958 40 c 128,-1,45
 939 8 939 8 905.5 -10.5 c 128,-1,46
 872 -29 872 -29 831 -29 c 256,47,32
 790 -29 790 -29 757.5 -10.5 c 128,-1,33
EndSplineSet
EndChar

StartChar: exclam
Encoding: 33 33 550
Width: 1024
Flags: W
LayerCount: 2
Fore
SplineSet
350 1178 m 1,0,-1
 349 1202 l 1,1,2
 349 1291 349 1291 387.5 1332.5 c 128,-1,3
 426 1374 426 1374 494 1374 c 0,4,5
 560 1374 560 1374 599 1334 c 128,-1,6
 638 1294 638 1294 638 1206 c 0,7,8
 638 1188 638 1188 637 1178 c 2,9,-1
 584 406 l 1,10,-1
 399 406 l 1,11,-1
 350 1178 l 1,0,-1
410.5 -0.5 m 128,-1,13
 374 19 374 19 353 53 c 128,-1,14
 332 87 332 87 332 127 c 0,15,16
 332 166 332 166 353.5 200.5 c 128,-1,17
 375 235 375 235 411 255.5 c 128,-1,18
 447 276 447 276 489 276 c 0,19,20
 534 276 534 276 571 254.5 c 128,-1,21
 608 233 608 233 629.5 198.5 c 128,-1,22
 651 164 651 164 651 127 c 0,23,24
 651 88 651 88 628.5 54 c 128,-1,25
 606 20 606 20 568.5 0 c 128,-1,26
 531 -20 531 -20 489 -20 c 256,27,12
 447 -20 447 -20 410.5 -0.5 c 128,-1,13
EndSplineSet
EndChar

StartChar: exclamdown
Encoding: 161 161 551
Width: 1024
Flags: W
LayerCount: 2
Fore
SplineSet
568.5 1202 m 128,-1,1
 606 1182 606 1182 628.5 1148 c 128,-1,2
 651 1114 651 1114 651 1075 c 0,3,4
 651 1038 651 1038 629.5 1003.5 c 128,-1,5
 608 969 608 969 571 947.5 c 128,-1,6
 534 926 534 926 489 926 c 0,7,8
 447 926 447 926 411 946.5 c 128,-1,9
 375 967 375 967 353.5 1001.5 c 128,-1,10
 332 1036 332 1036 332 1075 c 0,11,12
 332 1115 332 1115 353 1149 c 128,-1,13
 374 1183 374 1183 410.5 1202.5 c 128,-1,14
 447 1222 447 1222 489 1222 c 256,15,0
 531 1222 531 1222 568.5 1202 c 128,-1,1
584 796 m 1,16,-1
 637 24 l 2,17,18
 638 14 638 14 638 -4 c 0,19,20
 638 -92 638 -92 599 -132 c 128,-1,21
 560 -172 560 -172 494 -172 c 0,22,23
 426 -172 426 -172 387.5 -130.5 c 128,-1,24
 349 -89 349 -89 349 0 c 1,25,-1
 350 24 l 1,26,-1
 399 796 l 1,27,-1
 584 796 l 1,16,-1
EndSplineSet
EndChar

StartChar: uni2E12
Encoding: 11794 11794 552
Width: 1024
Flags: W
LayerCount: 2
Fore
SplineSet
410 -76 m 1,0,1
 459 -76 459 -76 488.5 -43 c 128,-1,2
 518 -10 518 -10 518 51 c 256,3,4
 518 112 518 112 488.5 146 c 128,-1,5
 459 180 459 180 410 180 c 1,6,-1
 410 340 l 1,7,8
 481 340 481 340 540.5 300 c 128,-1,9
 600 260 600 260 635 193 c 128,-1,10
 670 126 670 126 670 49 c 256,11,12
 670 -28 670 -28 635 -95 c 128,-1,13
 600 -162 600 -162 540.5 -202 c 128,-1,14
 481 -242 481 -242 410 -242 c 1,15,-1
 410 -76 l 1,0,1
EndSplineSet
EndChar

StartChar: numbersign
Encoding: 35 35 553
Width: 1024
Flags: W
LayerCount: 2
Fore
SplineSet
498 14 m 1,0,-1
 541 360 l 1,1,-1
 426 360 l 1,2,-1
 385 25 l 1,3,-1
 180 23 l 1,4,-1
 217 358 l 1,5,-1
 39 358 l 1,6,-1
 51 518 l 1,7,-1
 240 518 l 1,8,-1
 270 797 l 1,9,-1
 68 797 l 1,10,-1
 78 958 l 1,11,-1
 289 958 l 1,12,-1
 326 1282 l 1,13,-1
 537 1284 l 1,14,-1
 498 963 l 1,15,-1
 608 963 l 1,16,-1
 645 1278 l 1,17,-1
 856 1280 l 1,18,-1
 819 967 l 1,19,-1
 991 967 l 1,20,-1
 971 803 l 1,21,-1
 799 803 l 1,22,-1
 768 526 l 1,23,-1
 950 526 l 1,24,-1
 938 367 l 1,25,-1
 750 367 l 1,26,-1
 709 27 l 1,27,-1
 498 14 l 1,0,-1
444 522 m 1,28,-1
 557 522 l 1,29,-1
 590 799 l 1,30,-1
 475 799 l 1,31,-1
 444 522 l 1,28,-1
EndSplineSet
EndChar

StartChar: period
Encoding: 46 46 554
Width: 1024
Flags: W
LayerCount: 2
Fore
SplineSet
421.5 -8.5 m 128,-1,1
 389 10 389 10 370.5 42.5 c 128,-1,2
 352 75 352 75 352 113 c 0,3,4
 352 150 352 150 370.5 181.5 c 128,-1,5
 389 213 389 213 421.5 231.5 c 128,-1,6
 454 250 454 250 492 250 c 0,7,8
 529 250 529 250 560.5 231.5 c 128,-1,9
 592 213 592 213 610.5 181.5 c 128,-1,10
 629 150 629 150 629 113 c 0,11,12
 629 75 629 75 610.5 42.5 c 128,-1,13
 592 10 592 10 560.5 -8.5 c 128,-1,14
 529 -27 529 -27 492 -27 c 0,15,0
 454 -27 454 -27 421.5 -8.5 c 128,-1,1
EndSplineSet
EndChar

StartChar: question
Encoding: 63 63 555
Width: 1024
Flags: W
LayerCount: 2
Fore
SplineSet
432 492 m 2,0,1
 432 554 432 554 452.5 605.5 c 128,-1,2
 473 657 473 657 502.5 695.5 c 128,-1,3
 532 734 532 734 581 786 c 0,4,5
 624 831 624 831 649.5 863.5 c 128,-1,6
 675 896 675 896 692 936 c 128,-1,7
 709 976 709 976 709 1022 c 0,8,9
 709 1101 709 1101 661.5 1147.5 c 128,-1,10
 614 1194 614 1194 522 1194 c 0,11,12
 466 1194 466 1194 419.5 1178 c 128,-1,13
 373 1162 373 1162 342.5 1140.5 c 128,-1,14
 312 1119 312 1119 302 1102 c 0,15,16
 258 1031 258 1031 258 1026 c 0,17,18
 258 1025 258 1025 259 1025 c 0,19,20
 261 1026 261 1026 265 1029 c 128,-1,21
 269 1032 269 1032 272.5 1032.5 c 128,-1,22
 276 1033 276 1033 277 1028 c 1,23,-1
 265 1009 l 1,24,-1
 250 1018 l 1,25,-1
 113 1141 l 1,26,27
 186 1251 186 1251 295 1313.5 c 128,-1,28
 404 1376 404 1376 530 1376 c 0,29,30
 644 1376 644 1376 730.5 1327 c 128,-1,31
 817 1278 817 1278 864 1197.5 c 128,-1,32
 911 1117 911 1117 911 1026 c 0,33,34
 911 956 911 956 891 903.5 c 128,-1,35
 871 851 871 851 842 815.5 c 128,-1,36
 813 780 813 780 764 733 c 0,37,38
 720 691 720 691 694.5 660.5 c 128,-1,39
 669 630 669 630 652 588 c 128,-1,40
 635 546 635 546 635 492 c 2,41,-1
 635 379 l 1,42,-1
 432 379 l 1,43,-1
 432 492 l 2,0,1
468.5 -8.5 m 128,-1,45
 436 10 436 10 417.5 42.5 c 128,-1,46
 399 75 399 75 399 113 c 0,47,48
 399 150 399 150 417.5 181.5 c 128,-1,49
 436 213 436 213 468.5 231.5 c 128,-1,50
 501 250 501 250 539 250 c 0,51,52
 576 250 576 250 607.5 231.5 c 128,-1,53
 639 213 639 213 657.5 181.5 c 128,-1,54
 676 150 676 150 676 113 c 0,55,56
 676 75 676 75 657.5 42.5 c 128,-1,57
 639 10 639 10 607.5 -8.5 c 128,-1,58
 576 -27 576 -27 539 -27 c 0,59,44
 501 -27 501 -27 468.5 -8.5 c 128,-1,45
EndSplineSet
EndChar

StartChar: questiondown
Encoding: 191 191 556
Width: 1024
Flags: W
LayerCount: 2
Fore
SplineSet
551.5 1159.5 m 128,-1,1
 584 1141 584 1141 602.5 1108.5 c 128,-1,2
 621 1076 621 1076 621 1038 c 0,3,4
 621 1001 621 1001 602.5 969.5 c 128,-1,5
 584 938 584 938 551.5 919.5 c 128,-1,6
 519 901 519 901 481 901 c 0,7,8
 444 901 444 901 412.5 919.5 c 128,-1,9
 381 938 381 938 362.5 969.5 c 128,-1,10
 344 1001 344 1001 344 1038 c 0,11,12
 344 1076 344 1076 362.5 1108.5 c 128,-1,13
 381 1141 381 1141 412.5 1159.5 c 128,-1,14
 444 1178 444 1178 481 1178 c 0,15,0
 519 1178 519 1178 551.5 1159.5 c 128,-1,1
588 659 m 2,16,17
 588 597 588 597 567.5 545.5 c 128,-1,18
 547 494 547 494 517.5 455.5 c 128,-1,19
 488 417 488 417 439 365 c 0,20,21
 396 320 396 320 370.5 287.5 c 128,-1,22
 345 255 345 255 328 215 c 128,-1,23
 311 175 311 175 311 129 c 0,24,25
 311 50 311 50 358.5 3.5 c 128,-1,26
 406 -43 406 -43 498 -43 c 0,27,28
 553 -43 553 -43 599.5 -27 c 128,-1,29
 646 -11 646 -11 676.5 10.5 c 128,-1,30
 707 32 707 32 718 49 c 0,31,32
 762 120 762 120 762 125 c 0,33,34
 762 126 762 126 757.5 123.5 c 128,-1,35
 753 121 753 121 748.5 119.5 c 128,-1,36
 744 118 744 118 743 123 c 1,37,-1
 755 142 l 1,38,-1
 770 133 l 1,39,-1
 907 10 l 1,40,41
 834 -100 834 -100 725 -162.5 c 128,-1,42
 616 -225 616 -225 490 -225 c 0,43,44
 376 -225 376 -225 289.5 -176 c 128,-1,45
 203 -127 203 -127 156 -46.5 c 128,-1,46
 109 34 109 34 109 125 c 0,47,48
 109 195 109 195 129 247.5 c 128,-1,49
 149 300 149 300 178 335.5 c 128,-1,50
 207 371 207 371 256 418 c 0,51,52
 300 460 300 460 325.5 490.5 c 128,-1,53
 351 521 351 521 368 563 c 128,-1,54
 385 605 385 605 385 659 c 2,55,-1
 385 772 l 1,56,-1
 588 772 l 1,57,-1
 588 659 l 2,16,17
EndSplineSet
EndChar

StartChar: quotesingle
Encoding: 39 39 558
Width: 1024
Flags: W
LayerCount: 2
Fore
SplineSet
614 1362 m 1,0,1
 614 1191 614 1191 609 1111 c 128,-1,2
 604 1031 604 1031 593 933 c 2,3,-1
 582 834 l 1,4,-1
 442 834 l 1,5,-1
 431 933 l 2,6,7
 420 1030 420 1030 415 1110 c 128,-1,8
 410 1190 410 1190 410 1362 c 1,9,-1
 614 1362 l 1,0,1
EndSplineSet
Substitution2: "'ss03' +MLkwvzCkMOswuzDDMMgA-3 in +MOkwxjDzZYdbVwAA lookup 27 subtable" quotesingle.ss03
Substitution2: "'aalt' +MFkweTBmMG51cE9TW1cweDBuMKIwrzC7MLkA in +MOkwxjDzZYdbVwAA lookup 0 subtable" quotesingle.ss03
EndChar

StartChar: semicolon
Encoding: 59 59 559
Width: 1024
Flags: W
LayerCount: 2
Fore
SplineSet
403 631 m 128,-1,1
 368 650 368 650 347 682.5 c 128,-1,2
 326 715 326 715 326 752 c 256,3,4
 326 789 326 789 347 821 c 128,-1,5
 368 853 368 853 403 872 c 128,-1,6
 438 891 438 891 477 891 c 0,7,8
 514 891 514 891 550 873 c 128,-1,9
 586 855 586 855 608.5 823 c 128,-1,10
 631 791 631 791 631 752 c 0,11,12
 631 715 631 715 610 682.5 c 128,-1,13
 589 650 589 650 553.5 631 c 128,-1,14
 518 612 518 612 477 612 c 0,15,0
 438 612 438 612 403 631 c 128,-1,1
289 -242 m 1,16,17
 347 -188 347 -188 385.5 -130.5 c 128,-1,18
 424 -73 424 -73 424 -41 c 0,19,20
 424 -32 424 -32 415.5 -22 c 128,-1,21
 407 -12 407 -12 389 5 c 0,22,23
 360 32 360 32 343 55 c 128,-1,24
 326 78 326 78 326 106 c 0,25,26
 326 146 326 146 345 179 c 128,-1,27
 364 212 364 212 398.5 231 c 128,-1,28
 433 250 433 250 477 250 c 256,29,30
 521 250 521 250 560 225.5 c 128,-1,31
 599 201 599 201 623 158 c 128,-1,32
 647 115 647 115 647 61 c 0,33,34
 647 -20 647 -20 587 -120.5 c 128,-1,35
 527 -221 527 -221 406 -346 c 1,36,-1
 289 -242 l 1,16,17
EndSplineSet
EndChar

StartChar: slash
Encoding: 47 47 560
Width: 1024
Flags: W
LayerCount: 2
Fore
SplineSet
287 -96 m 1,0,-1
 106 -10 l 1,1,-1
 741 1366 l 1,2,-1
 920 1274 l 1,3,-1
 287 -96 l 1,0,-1
EndSplineSet
Substitution2: "'frac' +ZZwwgTBuUgZlcAAA in +MOkwxjDzZYdbVwAA lookup 17 subtable" fraction
Substitution2: "'aalt' +MFkweTBmMG51cE9TW1cweDBuMKIwrzC7MLkA in +MOkwxjDzZYdbVwAA lookup 0 subtable" fraction
EndChar

StartChar: underscore
Encoding: 95 95 561
Width: 1024
Flags: W
LayerCount: 2
Fore
SplineSet
59 -207 m 1,0,-1
 59 -16 l 1,1,-1
 965 -16 l 1,2,-1
 965 -207 l 1,3,-1
 59 -207 l 1,0,-1
EndSplineSet
EndChar

StartChar: asterisk.ss01
Encoding: 65572 -1 563
Width: 1024
Flags: W
LayerCount: 2
Fore
SplineSet
307 363 m 1,0,-1
 145 492 l 1,1,-1
 385 770 l 1,2,-1
 66 869 l 1,3,-1
 137 1055 l 1,4,-1
 430 918 l 1,5,-1
 401 1233 l 1,6,-1
 643 1233 l 1,7,-1
 600 918 l 1,8,-1
 885 1047 l 1,9,-1
 961 871 l 1,10,-1
 641 772 l 1,11,-1
 874 492 l 1,12,-1
 711 365 l 1,13,-1
 512 666 l 1,14,-1
 307 363 l 1,0,-1
EndSplineSet
EndChar

StartChar: quotesingle.ss03
Encoding: 65574 -1 565
Width: 1024
Flags: W
LayerCount: 2
Fore
SplineSet
379 872 m 1,0,1
 407 962 407 962 416 1020.5 c 128,-1,2
 425 1079 425 1079 425 1142 c 2,3,-1
 424 1245 l 2,4,5
 424 1317 424 1317 458 1354 c 128,-1,6
 492 1391 492 1391 553 1391 c 0,7,8
 613 1391 613 1391 648.5 1352 c 128,-1,9
 684 1313 684 1313 684 1235 c 0,10,11
 684 1188 684 1188 657.5 1103.5 c 128,-1,12
 631 1019 631 1019 561 827 c 1,13,-1
 379 872 l 1,0,1
EndSplineSet
EndChar

StartChar: braceleft
Encoding: 123 123 566
Width: 1024
Flags: W
LayerCount: 2
Fore
SplineSet
469 -292 m 128,-1,1
 372 -258 372 -258 321 -175 c 128,-1,2
 270 -92 270 -92 270 53 c 1,3,-1
 276 225 l 1,4,5
 276 322 276 322 247 359.5 c 128,-1,6
 218 397 218 397 158 397 c 2,7,-1
 72 397 l 1,8,-1
 72 580 l 1,9,-1
 156 580 l 2,10,11
 220 580 220 580 250.5 619 c 128,-1,12
 281 658 281 658 281 743 c 1,13,-1
 276 936 l 1,14,15
 276 1118 276 1118 375.5 1211.5 c 128,-1,16
 475 1305 475 1305 668 1305 c 2,17,-1
 834 1305 l 1,18,-1
 834 1120 l 1,19,-1
 633 1120 l 2,20,21
 567 1120 567 1120 535.5 1079 c 128,-1,22
 504 1038 504 1038 504 956 c 1,23,-1
 508 766 l 1,24,25
 508 676 508 676 469.5 604.5 c 128,-1,26
 431 533 431 533 362 489 c 1,27,28
 426 448 426 448 465 371 c 128,-1,29
 504 294 504 294 504 197 c 1,30,-1
 500 53 l 1,31,32
 500 -51 500 -51 544 -98 c 128,-1,33
 588 -145 588 -145 688 -145 c 2,34,-1
 831 -145 l 1,35,-1
 831 -326 l 1,36,-1
 717 -326 l 2,37,0
 566 -326 566 -326 469 -292 c 128,-1,1
EndSplineSet
EndChar

StartChar: braceright
Encoding: 125 125 567
Width: 1024
Flags: W
LayerCount: 2
Fore
SplineSet
115 -326 m 1,0,-1
 115 -145 l 1,1,-1
 258 -145 l 2,2,3
 358 -145 358 -145 402 -98 c 128,-1,4
 446 -51 446 -51 446 53 c 1,5,-1
 442 197 l 1,6,7
 442 294 442 294 481 371 c 128,-1,8
 520 448 520 448 584 489 c 1,9,10
 515 533 515 533 476.5 604.5 c 128,-1,11
 438 676 438 676 438 766 c 1,12,-1
 442 956 l 1,13,14
 442 1038 442 1038 410.5 1079 c 128,-1,15
 379 1120 379 1120 313 1120 c 2,16,-1
 112 1120 l 1,17,-1
 112 1305 l 1,18,-1
 278 1305 l 2,19,20
 471 1305 471 1305 570.5 1211.5 c 128,-1,21
 670 1118 670 1118 670 936 c 1,22,-1
 665 743 l 1,23,24
 665 658 665 658 695.5 619 c 128,-1,25
 726 580 726 580 790 580 c 2,26,-1
 874 580 l 1,27,-1
 874 397 l 1,28,-1
 788 397 l 2,29,30
 728 397 728 397 699 359.5 c 128,-1,31
 670 322 670 322 670 225 c 1,32,-1
 676 53 l 1,33,34
 676 -92 676 -92 625 -175 c 128,-1,35
 574 -258 574 -258 477 -292 c 128,-1,36
 380 -326 380 -326 229 -326 c 2,37,-1
 115 -326 l 1,0,-1
EndSplineSet
EndChar

StartChar: bracketleft
Encoding: 91 91 568
Width: 1024
Flags: W
LayerCount: 2
Fore
SplineSet
242 -184 m 1,0,-1
 242 1370 l 1,1,-1
 877 1370 l 1,2,-1
 877 1180 l 1,3,-1
 457 1180 l 1,4,-1
 457 0 l 1,5,-1
 877 0 l 1,6,-1
 877 -184 l 1,7,-1
 242 -184 l 1,0,-1
EndSplineSet
EndChar

StartChar: bracketright
Encoding: 93 93 569
Width: 1024
Flags: W
LayerCount: 2
Fore
SplineSet
882 -184 m 1,0,-1
 247 -184 l 1,1,-1
 247 0 l 1,2,-1
 667 0 l 1,3,-1
 667 1180 l 1,4,-1
 247 1180 l 1,5,-1
 247 1370 l 1,6,-1
 882 1370 l 1,7,-1
 882 -184 l 1,0,-1
EndSplineSet
EndChar

